SplineFontDB: 3.0
FontName: Coda
FullName: Coda
FamilyName: Coda
Weight: Regular
Copyright: Copyright (c) 2011 by vernon adams. All rights reserved.
Version: 1.000;PS 001.001;hotconv 1.0.56
ItalicAngle: 0
UnderlinePosition: -103
UnderlineWidth: 102
Ascent: 1638
Descent: 410
sfntRevision: 0x00010000
LayerCount: 2
Layer: 0 1 "Back"  1
Layer: 1 1 "Fore"  0
NeedsXUIDChange: 1
XUID: [1021 14 500265001 7912473]
FSType: 256
OS2Version: 0
OS2_WeightWidthSlopeOnly: 0
OS2_UseTypoMetrics: 1
CreationTime: 1313148003
ModificationTime: 1317730538
PfmFamily: 33
TTFWeight: 400
TTFWidth: 5
LineGap: 0
VLineGap: 0
Panose: 2 0 5 5 2 0 0 2 0 4
OS2TypoAscent: 72
OS2TypoAOffset: 1
OS2TypoDescent: 2
OS2TypoDOffset: 1
OS2TypoLinegap: 0
OS2WinAscent: 0
OS2WinAOffset: 1
OS2WinDescent: -134
OS2WinDOffset: 1
HheadAscent: -440
HheadAOffset: 1
HheadDescent: 283
HheadDOffset: 1
OS2SubXSize: 1331
OS2SubYSize: 1228
OS2SubXOff: 0
OS2SubYOff: 153
OS2SupXSize: 1331
OS2SupYSize: 1228
OS2SupXOff: 0
OS2SupYOff: 716
OS2StrikeYSize: 102
OS2StrikeYPos: 780
OS2Vendor: 'newt'
OS2CodePages: 20000093.00000000
OS2UnicodeRanges: 00000007.00000000.00000000.00000000
Lookup: 258 0 0 "'kern' Horizontal Kerning in Latin lookup 0"  {"'kern' Horizontal Kerning in Latin lookup 0-1" [307,30,0] "'kern' Horizontal Kerning in Latin lookup 0-2" [307,30,0] } ['kern' ('DFLT' <'dflt' > 'latn' <'dflt' > ) ]
MarkAttachClasses: 1
DEI: 91125
KernClass2: 3 2 "'kern' Horizontal Kerning in Latin lookup 0-1" 
 3 T V
 0 
 11 a c e g o q
 0 {} 0 {} 0 {} -82 {} 0 {} 0 {}
ShortTable: maxp 16
  1
  0
  335
  147
  5
  140
  5
  1
  0
  0
  0
  0
  0
  0
  2
  1
EndShort
LangName: 1033 "" "" "" "1.000;;Coda" "" "Version 1.000;" "" "Coda is a trademark of vernon adams." "vernon adams" "vernon adams" "Copyright (c) 2011 by vernon adams. All rights reserved." "" "newtypography.co.uk" "" "http://scripts.sil.org/OFL" "" "Coda" "Book" "Coda" 
Encoding: UnicodeBmp
Compacted: 1
UnicodeInterp: none
NameList: Adobe Glyph List
DisplaySize: -48

StartChar: numbersign
Encoding: 35 35 4
Width: 1426
Flags: W
LayerCount: 2
Fore
SplineSet
1267.75976562 419 m 1,0,-1
 983.759765625 419 l 1,1,-1
 901.759765625 0 l 1,2,-1
 729.759765625 0 l 1,3,-1
 811.759765625 419 l 1,4,-1
 485.360351562 419 l 1,5,-1
 401.120117188 0 l 1,6,-1
 228.120117188 0 l 1,7,-1
 309.120117188 419 l 1,8,-1
 29.1201171875 419 l 1,9,-1
 61.1201171875 568 l 1,10,-1
 339.120117188 568 l 1,11,-1
 417.759765625 972 l 1,12,-1
 143.120117188 972 l 1,13,-1
 175.120117188 1135 l 1,14,-1
 452.080078125 1135 l 1,15,-1
 525.919921875 1499 l 1,16,-1
 704.799804688 1499 l 1,17,-1
 630.959960938 1135 l 1,18,-1
 950.759765625 1135 l 1,19,-1
 1022.75976562 1499 l 1,20,-1
 1195.75976562 1499 l 1,21,-1
 1123.75976562 1135 l 1,22,-1
 1401.75976562 1135 l 1,23,-1
 1374.75976562 972 l 1,24,-1
 1090.75976562 972 l 1,25,-1
 1012.75976562 568 l 1,26,-1
 1295.75976562 568 l 1,27,-1
 1267.75976562 419 l 1,0,-1
516.559570312 568 m 1,28,-1
 839.759765625 568 l 1,29,-1
 918.759765625 972 l 1,30,-1
 597.6796875 972 l 1,31,-1
 516.559570312 568 l 1,28,-1
EndSplineSet
EndChar

StartChar: dollar
Encoding: 36 36 5
Width: 1187
Flags: W
LayerCount: 2
Fore
SplineSet
563.559570312 1632 m 1,0,-1
 637.559570312 1632 l 1,1,-1
 637.559570312 -115 l 1,2,-1
 563.559570312 -115 l 1,3,-1
 563.559570312 1632 l 1,0,-1
366.583984375 1302.55371094 m 128,-1,5
 318.120117188 1265.10742188 318.120117188 1265.10742188 318.120117188 1110.84667969 c 128,-1,6
 318.120117188 956.5859375 318.120117188 956.5859375 368.188476562 915.9140625 c 128,-1,7
 418.255859375 875.2421875 418.255859375 875.2421875 590.122070312 862.509765625 c 128,-1,8
 761.98828125 849.77734375 761.98828125 849.77734375 861.416992188 823.463867188 c 0,9,10
 1082.55957031 762.981445312 1082.55957031 762.981445312 1082.55957031 434 c 0,11,12
 1082.55957031 163.125 1082.55957031 163.125 939.559570312 70.5 c 0,13,14
 855.45703125 17.0732421875 855.45703125 17.0732421875 759.508789062 10.037109375 c 128,-1,15
 663.559570312 3 663.559570312 3 577.059570312 3 c 0,16,17
 343.510742188 3 343.510742188 3 238.540039062 73.5 c 0,18,19
 105.040039062 164.953125 105.040039062 164.953125 105.040039062 419 c 2,20,-1
 105.040039062 436 l 1,21,-1
 291.080078125 436 l 1,22,23
 290.040039062 427 290.040039062 427 290.040039062 418.5 c 2,24,-1
 290.040039062 402 l 2,25,26
 290.040039062 200.872070312 290.040039062 200.872070312 453.3203125 182.5 c 0,27,28
 540.358398438 172.706054688 540.358398438 172.706054688 608 172.706054688 c 0,29,30
 807.55859375 172.706054688 807.55859375 172.706054688 860.969726562 254.600585938 c 0,31,32
 897.559570312 310.703125 897.559570312 310.703125 897.559570312 415.8515625 c 128,-1,33
 897.559570312 521 897.559570312 521 882.48046875 568.5 c 128,-1,34
 867.400390625 616 867.400390625 616 819.979492188 648.752929688 c 128,-1,35
 772.55859375 681.504882812 772.55859375 681.504882812 600.447265625 690.690429688 c 128,-1,36
 428.3359375 699.875976562 428.3359375 699.875976562 366.467773438 715.938476562 c 0,37,38
 122.040039062 781.139648438 122.040039062 781.139648438 122.040039062 1083.18554688 c 0,39,40
 122.040039062 1351.45410156 122.040039062 1351.45410156 231.6640625 1427.2265625 c 128,-1,41
 341.288085938 1503 341.288085938 1503 544.302734375 1503 c 128,-1,42
 747.317382812 1503 747.317382812 1503 845.758789062 1476.75878906 c 0,43,44
 1058.55957031 1418.31640625 1058.55957031 1418.31640625 1058.55957031 1106 c 1,45,-1
 872.599609375 1106 l 1,46,47
 870.666992188 1264.00878906 870.666992188 1264.00878906 792.51953125 1308.5 c 0,48,49
 737.192382812 1340 737.192382812 1340 576.120117188 1340 c 129,-1,4
 415.047851562 1340 415.047851562 1340 366.583984375 1302.55371094 c 128,-1,5
EndSplineSet
EndChar

StartChar: percent
Encoding: 37 37 6
Width: 2264
Flags: W
LayerCount: 2
Fore
SplineSet
121.6796875 1129 m 2,0,1
 121.6796875 1298.18945312 121.6796875 1298.18945312 187.958984375 1359.09472656 c 128,-1,2
 254.239257812 1420 254.239257812 1420 467.89453125 1420 c 128,-1,3
 681.55078125 1420 681.55078125 1420 750.315429688 1358.47363281 c 128,-1,4
 819.080078125 1296.94726562 819.080078125 1296.94726562 819.080078125 1129 c 2,5,-1
 819.080078125 795 l 2,6,7
 819.080078125 625.48046875 819.080078125 625.48046875 751.536132812 564.240234375 c 128,-1,8
 683.9921875 503 683.9921875 503 469.159179688 503 c 128,-1,9
 254.327148438 503 254.327148438 503 188.00390625 563.946289062 c 128,-1,10
 121.6796875 624.891601562 121.6796875 624.891601562 121.6796875 795 c 2,11,-1
 121.6796875 1129 l 2,0,1
469.400390625 1297 m 256,12,13
 318.3984375 1297 318.3984375 1297 296.659179688 1279 c 0,14,15
 268.6796875 1255.83300781 268.6796875 1255.83300781 268.6796875 1131 c 2,16,-1
 268.6796875 782 l 2,17,18
 268.6796875 665.833007812 268.6796875 665.833007812 290.51953125 648.916992188 c 0,19,20
 318.815429688 627 318.815429688 627 469.400390625 627 c 257,21,22
 618.9453125 627 618.9453125 627 640.892578125 644 c 0,23,24
 669.080078125 665.833007812 669.080078125 665.833007812 669.080078125 782 c 2,25,-1
 669.080078125 1131 l 2,26,27
 669.080078125 1255.83300781 669.080078125 1255.83300781 647.240234375 1273.91699219 c 0,28,29
 619.361328125 1297 619.361328125 1297 469.400390625 1297 c 256,12,13
1474.28027344 752 m 2,30,31
 1474.28027344 921.189453125 1474.28027344 921.189453125 1540.55957031 982.094726562 c 128,-1,32
 1606.83886719 1043 1606.83886719 1043 1820.6953125 1043 c 128,-1,33
 2034.55175781 1043 2034.55175781 1043 2102.09570312 981.759765625 c 128,-1,34
 2169.63964844 920.51953125 2169.63964844 920.51953125 2169.63964844 752 c 2,35,-1
 2169.63964844 418 l 2,36,37
 2169.63964844 248.48046875 2169.63964844 248.48046875 2102.09570312 187.240234375 c 128,-1,38
 2034.55175781 126 2034.55175781 126 1840.31835938 126 c 129,-1,39
 1646.0859375 126 1646.0859375 126 1580.48339844 187.109375 c 128,-1,40
 1514.87988281 248.21875 1514.87988281 248.21875 1474.28027344 418 c 2,41,-1
 1474.28027344 752 l 2,30,31
1820.95996094 920 m 257,42,43
 1670.99902344 920 1670.99902344 920 1649.25976562 902 c 0,44,45
 1621.28027344 878.833007812 1621.28027344 878.833007812 1621.28027344 754 c 2,46,-1
 1661.87988281 405 l 2,47,48
 1661.87988281 288.833007812 1661.87988281 288.833007812 1681.5 271.916992188 c 0,49,50
 1706.91796875 250 1706.91796875 250 1841.25976562 250 c 256,51,52
 1975.6015625 250 1975.6015625 250 1995.31835938 267 c 0,53,54
 2020.63964844 288.833007812 2020.63964844 288.833007812 2020.63964844 405 c 2,55,-1
 2020.63964844 754 l 2,56,57
 2020.63964844 878.833007812 2020.63964844 878.833007812 1998.79980469 896.916992188 c 0,58,59
 1970.92089844 920 1970.92089844 920 1820.95996094 920 c 257,42,43
1417.08007812 1557 m 1,60,-1
 1117.87988281 -38 l 1,61,-1
 956.879882812 -38 l 1,62,-1
 1251.71972656 1557 l 1,63,-1
 1417.08007812 1557 l 1,60,-1
EndSplineSet
EndChar

StartChar: ampersand
Encoding: 38 38 7
Width: 1443
Flags: W
LayerCount: 2
Fore
SplineSet
354.120117188 831 m 1,0,1
 205 852.286132812 205 852.286132812 205 1193 c 0,2,3
 205 1353.42089844 205 1353.42089844 258.616210938 1426.79101562 c 128,-1,4
 312.233398438 1500.16113281 312.233398438 1500.16113281 425.599609375 1516.58007812 c 128,-1,5
 538.966796875 1533 538.966796875 1533 726.303710938 1533 c 128,-1,6
 913.639648438 1533 913.639648438 1533 998.560546875 1526 c 128,-1,7
 1083.48046875 1519 1083.48046875 1519 1134.98046875 1495 c 128,-1,8
 1186.48046875 1471 1186.48046875 1471 1209.98046875 1424 c 128,-1,9
 1233.48046875 1377 1233.48046875 1377 1233.48046875 1312 c 128,-1,10
 1233.48046875 1247 1233.48046875 1247 1225.48046875 1189 c 1,11,-1
 1065.48046875 1189 l 1,12,13
 1065.48046875 1291.125 1065.48046875 1291.125 1052.11816406 1324.8515625 c 128,-1,14
 1038.75585938 1358.57714844 1038.75585938 1358.57714844 984.102539062 1366.7890625 c 128,-1,15
 929.448242188 1375 929.448242188 1375 745.263671875 1375 c 128,-1,16
 561.080078125 1375 561.080078125 1375 497.100585938 1363.81445312 c 128,-1,17
 433.12109375 1352.62988281 433.12109375 1352.62988281 417.020507812 1308.63085938 c 128,-1,18
 400.919921875 1264.63183594 400.919921875 1264.63183594 400.919921875 1158.31542969 c 128,-1,19
 400.919921875 1052 400.919921875 1052 402.48046875 1006 c 128,-1,20
 404.040039062 960 404.040039062 960 413.919921875 936.5 c 0,21,22
 429.265625 900 429.265625 900 507 900 c 2,23,-1
 1065.48046875 900 l 1,24,-1
 1065.48046875 1039 l 1,25,-1
 1235.48046875 1039 l 1,26,-1
 1235.48046875 901 l 1,27,-1
 1375.48046875 901 l 1,28,-1
 1375.48046875 752 l 1,29,-1
 1235.48046875 752 l 1,30,31
 1235.48046875 331.833007812 1235.48046875 331.833007812 1217.98046875 230.916992188 c 128,-1,32
 1200.48046875 130 1200.48046875 130 1167.48046875 82 c 128,-1,33
 1134.48046875 34 1134.48046875 34 1056.93066406 5 c 128,-1,34
 979.381835938 -24 979.381835938 -24 727.278320312 -24 c 128,-1,35
 475.17578125 -24 475.17578125 -24 373.225585938 -2.1181640625 c 0,36,37
 155 46.4013671875 155 46.4013671875 155 408 c 0,38,39
 155 673.7890625 155 673.7890625 254 778 c 0,40,41
 298 825 298 825 354.120117188 831 c 1,0,1
1065.48046875 482 m 2,42,-1
 1065.48046875 752 l 1,43,-1
 503.879882812 752 l 2,44,45
 422.908203125 752 422.908203125 752 394.036132812 733.78125 c 128,-1,46
 365.163085938 715.561523438 365.163085938 715.561523438 358.081054688 654.28125 c 128,-1,47
 351 593 351 593 351 472.5 c 0,48,49
 351 261.286132812 351 261.286132812 368.09765625 210.399414062 c 128,-1,50
 385.196289062 159.512695312 385.196289062 159.512695312 455.88671875 145.755859375 c 128,-1,51
 526.576171875 132 526.576171875 132 725.724609375 132 c 128,-1,52
 924.872070312 132 924.872070312 132 981.796875 148.098632812 c 128,-1,53
 1038.72265625 164.197265625 1038.72265625 164.197265625 1052.1015625 226.911132812 c 128,-1,54
 1065.48046875 289.625 1065.48046875 289.625 1065.48046875 482 c 2,42,-1
EndSplineSet
EndChar

StartChar: quotesingle
Encoding: 39 39 8
Width: 444
Flags: W
LayerCount: 2
Fore
SplineSet
228.98046875 1500 m 0,0,1
 315.48046875 1500 315.48046875 1500 315.48046875 1378.16699219 c 128,-1,2
 315.48046875 1256.33300781 315.48046875 1256.33300781 284.48046875 1111.66699219 c 128,-1,3
 253.48046875 967 253.48046875 967 249.15625 946 c 128,-1,4
 244.833007812 925 244.833007812 925 232.65625 925 c 128,-1,5
 220.48046875 925 220.48046875 925 217.48046875 930 c 128,-1,6
 214.48046875 935 214.48046875 935 208.98046875 955.166992188 c 128,-1,7
 203.48046875 975.333007812 203.48046875 975.333007812 172.98046875 1123.76660156 c 128,-1,8
 142.48046875 1272.20019531 142.48046875 1272.20019531 142.48046875 1363.30859375 c 128,-1,9
 142.48046875 1454.41699219 142.48046875 1454.41699219 164.360351562 1477.20800781 c 128,-1,10
 186.240234375 1500 186.240234375 1500 228.98046875 1500 c 0,0,1
EndSplineSet
EndChar

StartChar: parenleft
Encoding: 40 40 9
Width: 640
Flags: W
LayerCount: 2
Fore
SplineSet
134.16015625 816.227539062 m 0,0,1
 134.16015625 921.454101562 134.16015625 921.454101562 155.16015625 1067.5 c 0,2,3
 210.703125 1453.77832031 210.703125 1453.77832031 378.567382812 1627.11621094 c 0,4,5
 470.455078125 1722 470.455078125 1722 602.16015625 1722 c 2,6,-1
 688.16015625 1722 l 1,7,-1
 688.16015625 1577 l 1,8,-1
 627.16015625 1577 l 2,9,10
 513.258789062 1577 513.258789062 1577 436.16015625 1416 c 0,11,12
 320.16015625 1173.76464844 320.16015625 1173.76464844 320.16015625 744.666992188 c 0,13,14
 320.16015625 652.333007812 320.16015625 652.333007812 348.426757812 473.310546875 c 128,-1,15
 376.693359375 294.287109375 376.693359375 294.287109375 445.020507812 156.643554688 c 128,-1,16
 513.346679688 19 513.346679688 19 627.16015625 19 c 2,17,-1
 688.16015625 19 l 1,18,-1
 688.16015625 -125 l 1,19,-1
 602.16015625 -125 l 2,20,21
 430.524414062 -125 430.524414062 -125 315.16015625 42.5 c 0,22,23
 134.16015625 305.297851562 134.16015625 305.297851562 134.16015625 816.227539062 c 0,0,1
EndSplineSet
EndChar

StartChar: parenright
Encoding: 41 41 10
Width: 646
Flags: W
LayerCount: 2
Fore
SplineSet
-37.4404296875 -125 m 1,0,-1
 -37.4404296875 19 l 1,1,-1
 24.5595703125 19 l 2,2,3
 230.559570312 19 230.559570312 19 307.059570312 503.5 c 0,4,5
 330.559570312 652.333007812 330.559570312 652.333007812 330.559570312 785.147460938 c 128,-1,6
 330.559570312 917.961914062 330.559570312 917.961914062 303.009765625 1103.39355469 c 128,-1,7
 275.459960938 1288.82617188 275.459960938 1288.82617188 206.4609375 1432.91308594 c 128,-1,8
 137.4609375 1577 137.4609375 1577 24.5595703125 1577 c 2,9,-1
 -37.4404296875 1577 l 1,10,-1
 -37.4404296875 1722 l 1,11,-1
 48.5595703125 1722 l 2,12,13
 292.7734375 1722 292.7734375 1722 422.559570312 1373.5 c 0,14,15
 517.559570312 1118.40722656 517.559570312 1118.40722656 517.559570312 797.41796875 c 128,-1,16
 517.559570312 476.428710938 517.559570312 476.428710938 422.559570312 214.5 c 0,17,18
 299.424804688 -125 299.424804688 -125 48.5595703125 -125 c 2,19,-1
 -37.4404296875 -125 l 1,0,-1
EndSplineSet
EndChar

StartChar: asterisk
Encoding: 42 42 11
Width: 1038
Flags: W
LayerCount: 2
Fore
SplineSet
516.409179688 1012 m 1,0,1
 270.16015625 1280.875 270.16015625 1280.875 270.16015625 1333.9375 c 128,-1,2
 270.16015625 1387 270.16015625 1387 294.66015625 1411.5 c 128,-1,3
 319.16015625 1436 319.16015625 1436 347.584960938 1436 c 128,-1,4
 376.009765625 1436 376.009765625 1436 398.889648438 1413 c 128,-1,5
 421.76953125 1390 421.76953125 1390 439.44921875 1353 c 128,-1,6
 457.129882812 1316 457.129882812 1316 471.689453125 1270 c 128,-1,7
 486.25 1224 486.25 1224 497.169921875 1178 c 128,-1,8
 508.08984375 1132 508.08984375 1132 516.409179688 1090.5 c 128,-1,9
 524.729492188 1049 524.729492188 1049 532.009765625 1022 c 1,10,11
 539.290039062 1049 539.290039062 1049 548.129882812 1090 c 128,-1,12
 556.969726562 1131 556.969726562 1131 575.452148438 1208.85546875 c 128,-1,13
 593.93359375 1286.70996094 593.93359375 1286.70996094 628.838867188 1361.35546875 c 128,-1,14
 663.745117188 1436 663.745117188 1436 710.883789062 1436 c 129,-1,15
 758.0234375 1436 758.0234375 1436 783.109375 1387.5 c 0,16,17
 790.609375 1373 790.609375 1373 790.609375 1353 c 128,-1,18
 790.609375 1333 790.609375 1333 777.609375 1304.5 c 128,-1,19
 764.609375 1276 764.609375 1276 743.609375 1244 c 128,-1,20
 722.609375 1212 722.609375 1212 696.609375 1179.5 c 128,-1,21
 670.609375 1147 670.609375 1147 643.94921875 1116 c 128,-1,22
 617.290039062 1085 617.290039062 1085 591.809570312 1058 c 128,-1,23
 566.330078125 1031 566.330078125 1031 548.649414062 1012 c 1,24,25
 584.009765625 1022 584.009765625 1022 698.452148438 1059 c 128,-1,26
 812.895507812 1096 812.895507812 1096 879.609375 1096 c 0,27,28
 978.609375 1096 978.609375 1096 978.609375 1005.5 c 128,-1,29
 978.609375 915 978.609375 915 875.609375 915 c 0,30,31
 803.180664062 915 803.180664062 915 693.075195312 951 c 128,-1,32
 582.969726562 987 582.969726562 987 548.649414062 997 c 1,33,34
 790.609375 728.125 790.609375 728.125 790.609375 674.454101562 c 128,-1,35
 790.609375 620.782226562 790.609375 620.782226562 764.990234375 597.391601562 c 128,-1,36
 739.37109375 574 739.37109375 574 712.490234375 574 c 128,-1,37
 685.609375 574 685.609375 574 664.109375 597 c 128,-1,38
 642.609375 620 642.609375 620 625.26953125 657 c 128,-1,39
 607.9296875 694 607.9296875 694 593.369140625 740.5 c 128,-1,40
 578.809570312 787 578.809570312 787 567.369140625 833 c 128,-1,41
 555.9296875 879 555.9296875 879 547.609375 920 c 128,-1,42
 539.290039062 961 539.290039062 961 532.009765625 988 c 1,43,44
 525.76953125 961 525.76953125 961 517.44921875 919.5 c 0,45,46
 448.182617188 574 448.182617188 574 348.969726562 574 c 1,47,48
 321.3984375 574 321.3984375 574 295.779296875 597.391601562 c 128,-1,49
 270.16015625 620.782226562 270.16015625 620.782226562 270.16015625 648.391601562 c 128,-1,50
 270.16015625 676 270.16015625 676 283.16015625 705 c 128,-1,51
 296.16015625 734 296.16015625 734 316.844726562 765.5 c 128,-1,52
 337.529296875 797 337.529296875 797 365.08984375 830 c 128,-1,53
 392.649414062 863 392.649414062 863 420.209960938 893.5 c 128,-1,54
 447.76953125 924 447.76953125 924 473.25 951 c 128,-1,55
 498.729492188 978 498.729492188 978 516.409179688 997 c 1,56,57
 480.009765625 987 480.009765625 987 366.513671875 951 c 128,-1,58
 253.017578125 915 253.017578125 915 183.16015625 915 c 0,59,60
 82.16015625 915 82.16015625 915 82.16015625 1005.5 c 128,-1,61
 82.16015625 1096 82.16015625 1096 181.16015625 1096 c 0,62,63
 251.16015625 1096 251.16015625 1096 365.064453125 1059 c 128,-1,64
 478.969726562 1022 478.969726562 1022 516.409179688 1012 c 1,0,1
EndSplineSet
EndChar

StartChar: plus
Encoding: 43 43 12
Width: 907
Flags: W
LayerCount: 2
Fore
SplineSet
542.009765625 1117 m 1,0,-1
 542.009765625 754 l 1,1,-1
 850.418945312 754 l 1,2,-1
 850.418945312 585 l 1,3,-1
 542.009765625 585 l 1,4,-1
 542.009765625 223 l 1,5,-1
 376.009765625 223 l 1,6,-1
 376.009765625 585 l 1,7,-1
 68.6396484375 585 l 1,8,-1
 68.6396484375 754 l 1,9,-1
 376.009765625 754 l 1,10,-1
 376.009765625 1117 l 1,11,-1
 542.009765625 1117 l 1,0,-1
EndSplineSet
EndChar

StartChar: comma
Encoding: 44 44 13
Width: 534
Flags: W
LayerCount: 2
Fore
SplineSet
166.620117188 -231 m 128,-1,1
 125.120117188 -231 125.120117188 -231 107.120117188 -227 c 1,2,-1
 107.120117188 -159 l 1,3,4
 162.231445312 -159 162.231445312 -159 220.67578125 -118.538085938 c 128,-1,5
 279.120117188 -78.0771484375 279.120117188 -78.0771484375 279.120117188 -20 c 2,6,-1
 279.120117188 0 l 1,7,8
 218.544921875 0 218.544921875 0 176.83203125 42.7822265625 c 128,-1,9
 135.120117188 85.564453125 135.120117188 85.564453125 135.120117188 153.953125 c 128,-1,10
 135.120117188 222.341796875 135.120117188 222.341796875 175.278320312 265.670898438 c 128,-1,11
 215.4375 309 215.4375 309 282.04296875 309 c 128,-1,12
 348.649414062 309 348.649414062 309 385.884765625 256.25 c 128,-1,13
 423.120117188 203.5 423.120117188 203.5 423.120117188 130.25 c 128,-1,14
 423.120117188 57 423.120117188 57 402.620117188 -5.5 c 128,-1,15
 382.120117188 -68 382.120117188 -68 345.120117188 -118 c 128,-1,16
 308.120117188 -168 308.120117188 -168 258.120117188 -199.5 c 128,-1,0
 208.120117188 -231 208.120117188 -231 166.620117188 -231 c 128,-1,1
EndSplineSet
EndChar

StartChar: hyphen
Encoding: 45 45 14
Width: 1114
Flags: W
LayerCount: 2
Fore
SplineSet
975.619140625 568 m 1,0,-1
 148.719726562 568 l 1,1,-1
 148.719726562 724 l 1,2,-1
 975.619140625 724 l 1,3,-1
 975.619140625 568 l 1,0,-1
EndSplineSet
EndChar

StartChar: period
Encoding: 46 46 15
Width: 518
Flags: W
LayerCount: 2
Fore
SplineSet
122.719726562 117 m 256,0,1
 122.719726562 221.904296875 122.719726562 221.904296875 207.719726562 259.5 c 0,2,3
 233.719726562 271 233.719726562 271 263.719726562 271 c 256,4,5
 322.870117188 271 322.870117188 271 363.294921875 228.447265625 c 128,-1,6
 403.719726562 185.89453125 403.719726562 185.89453125 403.719726562 117 c 256,7,8
 403.719726562 12.607421875 403.719726562 12.607421875 319.219726562 -25.5 c 0,9,10
 293.719726562 -37 293.719726562 -37 263.719726562 -37 c 256,11,12
 203.037109375 -37 203.037109375 -37 162.87890625 6.3291015625 c 128,-1,13
 122.719726562 49.658203125 122.719726562 49.658203125 122.719726562 117 c 256,0,1
EndSplineSet
EndChar

StartChar: slash
Encoding: 47 47 16
Width: 606
Flags: W
LayerCount: 2
Fore
SplineSet
542.879882812 1499 m 1,0,-1
 221.879882812 0 l 1,1,-1
 48.8798828125 0 l 1,2,-1
 369.879882812 1499 l 1,3,-1
 542.879882812 1499 l 1,0,-1
EndSplineSet
EndChar

StartChar: zero
Encoding: 48 48 17
Width: 1400
Flags: W
LayerCount: 2
Fore
SplineSet
712.41796875 -24 m 256,0,1
 392.893554688 -24 392.893554688 -24 284.446289062 117.077148438 c 128,-1,2
 176 258.154296875 176 258.154296875 176 621 c 2,3,-1
 176 912 l 2,4,5
 176 1258.72753906 176 1258.72753906 288.528320312 1390.86328125 c 128,-1,6
 401.057617188 1523 401.057617188 1523 712.41796875 1523 c 256,7,8
 1022.29394531 1523 1022.29394531 1523 1135.3671875 1391.11132812 c 128,-1,9
 1248.43945312 1259.22167969 1248.43945312 1259.22167969 1248.43945312 912 c 2,10,-1
 1248.43945312 621 l 2,11,12
 1248.43945312 258.154296875 1248.43945312 258.154296875 1140.19140625 117.077148438 c 128,-1,13
 1031.94238281 -24 1031.94238281 -24 712.41796875 -24 c 256,0,1
370.2578125 841.5 m 1,14,-1
 363.538085938 557.295898438 l 1,15,16
 363.538085938 425.638671875 363.538085938 425.638671875 380.41796875 352.319335938 c 128,-1,17
 397.297851562 279 397.297851562 279 435.778320312 233.5 c 128,-1,18
 474.2578125 188 474.2578125 188 541.858398438 163.5 c 128,-1,19
 609.458007812 139 609.458007812 139 708.2578125 139 c 0,20,21
 886.67578125 139 886.67578125 139 968.826171875 209.08984375 c 128,-1,22
 1050.97558594 279.1796875 1050.97558594 279.1796875 1050.97558594 488.612304688 c 2,23,-1
 1050.41796875 641 l 1,24,-1
 1056.44238281 933.5078125 l 1,25,26
 1056.44238281 992.49609375 1056.44238281 992.49609375 1054.45214844 1059.77929688 c 0,27,28
 1050.44433594 1194.55761719 1050.44433594 1194.55761719 978.928710938 1280.27929688 c 128,-1,29
 907.412109375 1366 907.412109375 1366 681.625976562 1366 c 128,-1,30
 455.83984375 1366 455.83984375 1366 399.377929688 1217.5 c 0,31,32
 368.546875 1136.41113281 368.546875 1136.41113281 368.546875 1038.57519531 c 2,33,-1
 370.2578125 841.5 l 1,14,-1
EndSplineSet
EndChar

StartChar: one
Encoding: 49 49 18
Width: 632
Flags: W
LayerCount: 2
Fore
SplineSet
75 1426 m 1,0,1
 220.6796875 1426 220.6796875 1426 282 1499 c 1,2,-1
 445 1499 l 1,3,-1
 445 0 l 1,4,-1
 248 0 l 1,5,-1
 248 1309 l 1,6,-1
 75 1309 l 1,7,-1
 75 1426 l 1,0,1
EndSplineSet
EndChar

StartChar: two
Encoding: 50 50 19
Width: 1173
Flags: W
LayerCount: 2
Fore
SplineSet
1016.92089844 185 m 1,0,-1
 1016.92089844 1 l 1,1,-1
 152.059570312 1 l 1,2,-1
 152.059570312 189 l 2,3,4
 152.059570312 432.5 152.059570312 432.5 369.059570312 611 c 0,5,6
 481.83203125 700.661132812 481.83203125 700.661132812 588.431640625 761.830078125 c 128,-1,7
 695.03125 823 695.03125 823 744.952148438 858.5 c 0,8,9
 853.920898438 937.635742188 853.920898438 937.635742188 853.920898438 1003 c 2,10,-1
 853.920898438 1077 l 2,11,12
 853.920898438 1261.75 853.920898438 1261.75 823.876953125 1299.875 c 128,-1,13
 793.83203125 1338 793.83203125 1338 743.912109375 1349 c 128,-1,14
 693.9921875 1360 693.9921875 1360 610.271484375 1360 c 0,15,16
 429.461914062 1360 429.461914062 1360 378.94140625 1324.60742188 c 0,17,18
 331.990234375 1290.52929688 331.990234375 1290.52929688 331.990234375 1132.37890625 c 0,19,20
 331.990234375 1126.28125 331.990234375 1126.28125 332.059570312 1120 c 1,21,-1
 138.059570312 1120 l 1,22,23
 138 1125.52148438 138 1125.52148438 138 1130.96386719 c 0,24,25
 138 1375.90722656 138 1375.90722656 259.559570312 1459 c 0,26,27
 332.733398438 1509.01757812 332.733398438 1509.01757812 427.04296875 1516.50878906 c 128,-1,28
 521.3515625 1524 521.3515625 1524 591.03125 1524 c 256,29,30
 825.99609375 1524 825.99609375 1524 920.920898438 1459.5 c 0,31,32
 1041.92089844 1377.28222656 1041.92089844 1377.28222656 1041.92089844 1115.75585938 c 128,-1,33
 1041.92089844 854.229492188 1041.92089844 854.229492188 897.420898438 728 c 0,34,35
 826.250976562 665.828125 826.250976562 665.828125 735.161132812 620.9140625 c 128,-1,36
 644.071289062 576 644.071289062 576 590.51171875 543.5 c 0,37,38
 439.859375 452.084960938 439.859375 452.084960938 364.059570312 302.5 c 0,39,40
 342.298828125 258.297851562 342.298828125 258.297851562 342.298828125 230.884765625 c 1,41,-1
 344.059570312 185 l 1,42,-1
 1016.92089844 185 l 1,0,-1
EndSplineSet
EndChar

StartChar: three
Encoding: 51 51 20
Width: 1251
Flags: W
LayerCount: 2
Fore
SplineSet
891.267578125 434.75 m 128,-1,1
 891.267578125 557.5 891.267578125 557.5 866.624023438 610.23828125 c 128,-1,2
 841.981445312 662.975585938 841.981445312 662.975585938 781.9296875 675.98828125 c 128,-1,3
 721.876953125 689 721.876953125 689 560.547851562 689 c 1,4,-1
 560.547851562 847 l 1,5,6
 627.107421875 847 627.107421875 847 677.547851562 846 c 0,7,8
 682.951171875 845.892578125 682.951171875 845.892578125 688.418945312 845.892578125 c 0,9,10
 733.98046875 845.892578125 733.98046875 845.892578125 783.927734375 853.333984375 c 0,11,12
 839.8671875 861.666992188 839.8671875 861.666992188 865.567382812 909.119140625 c 128,-1,13
 891.267578125 956.571289062 891.267578125 956.571289062 891.267578125 1072.78515625 c 128,-1,14
 891.267578125 1189 891.267578125 1189 881.387695312 1240 c 128,-1,15
 871.5078125 1291 871.5078125 1291 842.387695312 1317.5 c 128,-1,16
 813.267578125 1344 813.267578125 1344 758.666992188 1352 c 128,-1,17
 704.067382812 1360 704.067382812 1360 619.307617188 1360 c 0,18,19
 437.133789062 1360 437.133789062 1360 388.081054688 1324.625 c 128,-1,20
 339.02734375 1289.25 339.02734375 1289.25 339.02734375 1120 c 1,21,-1
 146.02734375 1120 l 1,22,23
 146 1123.71972656 146 1123.71972656 146 1127.40234375 c 0,24,25
 146 1375.20214844 146 1375.20214844 268.02734375 1460 c 0,26,27
 359.471679688 1523 359.471679688 1523 545.290039062 1523 c 128,-1,28
 731.107421875 1523 731.107421875 1523 822.6875 1509.5 c 128,-1,29
 914.267578125 1496 914.267578125 1496 972.267578125 1450.5 c 0,30,31
 1087.26757812 1360.28417969 1087.26757812 1360.28417969 1087.26757812 1087 c 0,32,33
 1087.26757812 891.805664062 1087.26757812 891.805664062 1004.76757812 813 c 0,34,35
 971.267578125 781 971.267578125 781 917.267578125 763 c 1,36,37
 1058.34960938 708.134765625 1058.34960938 708.134765625 1080.76757812 515 c 0,38,39
 1087.26757812 459 1087.26757812 459 1087.26757812 360.5 c 128,-1,40
 1087.26757812 262 1087.26757812 262 1055.76757812 175 c 128,-1,41
 1024.26757812 88 1024.26757812 88 963.767578125 44 c 128,-1,42
 903.267578125 0 903.267578125 0 811.467773438 -12 c 128,-1,43
 719.666992188 -24 719.666992188 -24 576.3203125 -24 c 128,-1,44
 432.973632812 -24 432.973632812 -24 337.466796875 1.0615234375 c 0,45,46
 146.02734375 53.2734375 146.02734375 53.2734375 146.02734375 376 c 1,47,-1
 339.02734375 376 l 1,48,49
 339.02734375 211.563476562 339.02734375 211.563476562 378.547851562 179.78125 c 128,-1,50
 418.067382812 148 418.067382812 148 468.5078125 143.5 c 128,-1,51
 518.947265625 139 518.947265625 139 604.747070312 139 c 128,-1,52
 690.547851562 139 690.547851562 139 747.747070312 144.5 c 128,-1,53
 804.947265625 150 804.947265625 150 837.1875 176 c 128,-1,54
 869.427734375 202 869.427734375 202 880.34765625 257 c 128,-1,0
 891.267578125 312 891.267578125 312 891.267578125 434.75 c 128,-1,1
EndSplineSet
EndChar

StartChar: four
Encoding: 52 52 21
Width: 1165
Flags: W
LayerCount: 2
Fore
SplineSet
732.969726562 392 m 1,0,-1
 124 392 l 1,1,-1
 124 564 l 1,2,-1
 592.569335938 1499 l 1,3,-1
 930.969726562 1499 l 1,4,-1
 930.969726562 552 l 1,5,-1
 1060.96972656 552 l 1,6,-1
 1060.96972656 392 l 1,7,-1
 930.969726562 392 l 1,8,-1
 930.969726562 0 l 1,9,-1
 732.969726562 0 l 1,10,-1
 732.969726562 392 l 1,0,-1
732.969726562 552 m 1,11,-1
 732.969726562 1370 l 1,12,-1
 331 552 l 1,13,-1
 732.969726562 552 l 1,11,-1
EndSplineSet
EndChar

StartChar: five
Encoding: 53 53 22
Width: 1280
Flags: W
LayerCount: 2
Fore
SplineSet
745.518554688 963 m 0,0,1
 958.038085938 963 958.038085938 963 1043.97851562 852.771484375 c 128,-1,2
 1129.91894531 742.543945312 1129.91894531 742.543945312 1129.91894531 456.412109375 c 128,-1,3
 1129.91894531 170.280273438 1129.91894531 170.280273438 1024.41894531 69 c 0,4,5
 952.6953125 0.14453125 952.6953125 0.14453125 842.346679688 -11.927734375 c 128,-1,6
 731.999023438 -24 731.999023438 -24 599.225585938 -24 c 128,-1,7
 466.452148438 -24 466.452148438 -24 364.178710938 7.2041015625 c 0,8,9
 169 69.03125 169 69.03125 169 374.802734375 c 0,10,11
 169 390.576171875 169 390.576171875 169.518554688 407 c 1,12,-1
 355.518554688 407 l 1,13,14
 355.518554688 269.25 355.518554688 269.25 365.3984375 233.625 c 0,15,16
 383.452148438 168.52734375 383.452148438 168.52734375 444.41796875 150.763671875 c 128,-1,17
 505.383789062 133 505.383789062 133 620.250976562 133 c 128,-1,18
 735.119140625 133 735.119140625 133 782.438476562 136.5 c 128,-1,19
 829.758789062 140 829.758789062 140 860.438476562 153 c 128,-1,20
 891.119140625 166 891.119140625 166 907.23828125 191 c 128,-1,21
 923.358398438 216 923.358398438 216 930.638671875 258.5 c 128,-1,22
 937.918945312 301 937.918945312 301 937.918945312 365 c 128,-1,23
 937.918945312 429 937.918945312 429 936.307617188 546.428710938 c 128,-1,24
 934.697265625 663.857421875 934.697265625 663.857421875 924.677734375 715.23828125 c 128,-1,25
 914.659179688 766.618164062 914.659179688 766.618164062 878.657226562 781.109375 c 128,-1,26
 842.655273438 795.599609375 842.655273438 795.599609375 736.3671875 799.799804688 c 0,27,28
 683.681640625 801.881835938 683.681640625 801.881835938 639.674804688 801.881835938 c 0,29,30
 499.973632812 801.881835938 499.973632812 801.881835938 447.735351562 780.900390625 c 0,31,32
 379.041992188 753.30859375 379.041992188 753.30859375 366.958984375 641 c 1,33,-1
 177.518554688 641 l 1,34,-1
 195.518554688 1501 l 1,35,-1
 1060.91894531 1501 l 1,36,-1
 1060.91894531 1338 l 1,37,-1
 392.958984375 1338 l 1,38,-1
 364.87890625 813 l 1,39,40
 364.87890625 963 364.87890625 963 745.518554688 963 c 0,0,1
EndSplineSet
EndChar

StartChar: six
Encoding: 54 54 23
Width: 1348
Flags: W
LayerCount: 2
Fore
SplineSet
1104.25488281 875.72265625 m 128,-1,1
 1199.12011719 787.444335938 1199.12011719 787.444335938 1199.12011719 529.4140625 c 128,-1,2
 1199.12011719 271.3828125 1199.12011719 271.3828125 1154.71386719 162.727539062 c 128,-1,3
 1110.30664062 54.072265625 1110.30664062 54.072265625 1007.99609375 15.0361328125 c 128,-1,4
 905.686523438 -24 905.686523438 -24 730.223632812 -24 c 128,-1,5
 554.760742188 -24 554.760742188 -24 454.879882812 -5.5 c 128,-1,6
 355 13 355 13 295 66.5 c 0,7,8
 182 167.258789062 182 167.258789062 182 467 c 2,9,-1
 182 1031 l 2,10,11
 182 1331.81640625 182 1331.81640625 295.295898438 1427.40820312 c 128,-1,12
 408.591796875 1523 408.591796875 1523 638.196289062 1523 c 128,-1,13
 867.80078125 1523 867.80078125 1523 962.26171875 1497.04882812 c 0,14,15
 1163.17480469 1440.09667969 1163.17480469 1440.09667969 1163.17480469 1140.96386719 c 0,16,17
 1163.17480469 1136.01464844 1163.17480469 1136.01464844 1163.12011719 1131 c 1,18,-1
 967.640625 1131 l 1,19,20
 967.640625 1295.42285156 967.640625 1295.42285156 934.879882812 1325.7109375 c 128,-1,21
 902.120117188 1356 902.120117188 1356 845.959960938 1362 c 0,22,23
 808.3203125 1366.02148438 808.3203125 1366.02148438 738.331054688 1366.02148438 c 0,24,25
 703.89453125 1366.02148438 703.89453125 1366.02148438 661.627929688 1365.04785156 c 0,26,27
 533.456054688 1362.09570312 533.456054688 1362.09570312 474.077148438 1341.33398438 c 128,-1,28
 414.69921875 1320.57324219 414.69921875 1320.57324219 396.849609375 1258.78710938 c 128,-1,29
 379 1197 379 1197 379 1036 c 2,30,-1
 379 814 l 1,31,32
 397.572265625 964 397.572265625 964 703.48046875 964 c 128,-1,0
 1009.38867188 964 1009.38867188 964 1104.25488281 875.72265625 c 128,-1,1
698.280273438 133 m 256,33,34
 868.40234375 133 868.40234375 133 908.141601562 144 c 128,-1,35
 947.879882812 155 947.879882812 155 966.600585938 175 c 128,-1,36
 985.3203125 195 985.3203125 195 995.720703125 239.1171875 c 128,-1,37
 1006.12011719 283.235351562 1006.12011719 283.235351562 1006.12011719 473.087890625 c 128,-1,38
 1006.12011719 662.94140625 1006.12011719 662.94140625 992.538085938 716.094726562 c 128,-1,39
 978.955078125 769.248046875 978.955078125 769.248046875 924.469726562 785.124023438 c 128,-1,40
 869.984375 801 869.984375 801 696.563476562 801 c 128,-1,41
 523.143554688 801 523.143554688 801 465.307617188 788.732421875 c 128,-1,42
 407.471679688 776.46484375 407.471679688 776.46484375 393.236328125 727.349609375 c 128,-1,43
 379 678.235351562 379 678.235351562 379 499.959960938 c 128,-1,44
 379 321.684570312 379 321.684570312 395.767578125 245.317382812 c 128,-1,45
 412.534179688 168.950195312 412.534179688 168.950195312 470.31640625 150.974609375 c 128,-1,46
 528.098632812 133 528.098632812 133 698.280273438 133 c 256,33,34
EndSplineSet
EndChar

StartChar: seven
Encoding: 55 55 24
Width: 902
Flags: W
LayerCount: 2
Fore
SplineSet
62 1339 m 1,0,-1
 62 1499 l 1,1,-1
 793.219726562 1499 l 1,2,-1
 793.219726562 1327 l 1,3,-1
 344 0 l 1,4,-1
 146 0 l 1,5,-1
 616.219726562 1339 l 1,6,-1
 62 1339 l 1,0,-1
EndSplineSet
EndChar

StartChar: eight
Encoding: 56 56 25
Width: 1321
Flags: W
LayerCount: 2
Fore
SplineSet
312.231445312 802 m 1,0,1
 222.231445312 874 222.231445312 874 222.231445312 1117.55566406 c 128,-1,2
 222.231445312 1361.11132812 222.231445312 1361.11132812 329.428710938 1442.05566406 c 128,-1,3
 436.625976562 1523 436.625976562 1523 666.762695312 1523 c 256,4,5
 896.477539062 1523 896.477539062 1523 1002.3828125 1441.65625 c 128,-1,6
 1108.28808594 1360.31347656 1108.28808594 1360.31347656 1108.28808594 1115.99609375 c 128,-1,7
 1108.28808594 871.677734375 1108.28808594 871.677734375 1018.28808594 802 c 1,8,9
 1183.28808594 668.62890625 1183.28808594 668.62890625 1183.28808594 454.8671875 c 128,-1,10
 1183.28808594 241.106445312 1183.28808594 241.106445312 1139.26269531 141.814453125 c 128,-1,11
 1095.23730469 42.5224609375 1095.23730469 42.5224609375 984.870117188 9.26171875 c 128,-1,12
 874.502929688 -24 874.502929688 -24 655.293945312 -24 c 128,-1,13
 436.084960938 -24 436.084960938 -24 338.421875 4.02734375 c 128,-1,14
 240.758789062 32.0537109375 240.758789062 32.0537109375 198.032226562 119.364257812 c 128,-1,15
 155.305664062 206.674804688 155.305664062 206.674804688 149.423828125 390.045898438 c 0,16,17
 149 404.188476562 149 404.188476562 149 417.927734375 c 0,18,19
 149 687.541015625 149 687.541015625 312.231445312 802 c 1,0,1
741.123046875 713 m 2,20,-1
 603.842773438 713 l 2,21,22
 472.932617188 713 472.932617188 713 396.362304688 694 c 1,23,24
 342.208984375 642 342.208984375 642 341.075195312 465.9296875 c 0,25,26
 340.948242188 446.173828125 340.948242188 446.173828125 340.948242188 428.063476562 c 0,27,28
 340.948242188 284.76171875 340.948242188 284.76171875 348.913085938 244.4296875 c 0,29,30
 357.8828125 199 357.8828125 199 374.522460938 177.5 c 128,-1,31
 391.163085938 156 391.163085938 156 425.249023438 144.5 c 128,-1,32
 459.3359375 133 459.3359375 133 637.791992188 133 c 128,-1,33
 816.249023438 133 816.249023438 133 886.40234375 148.629882812 c 128,-1,34
 956.555664062 164.259765625 956.555664062 164.259765625 976.6875 236.159179688 c 0,35,36
 992.411132812 292.315429688 992.411132812 292.315429688 992.411132812 413.842773438 c 0,37,38
 992.411132812 447.912109375 992.411132812 447.912109375 991.17578125 487.119140625 c 0,39,40
 985.911132812 666.1796875 985.911132812 666.1796875 950.682617188 698 c 1,41,42
 844.602539062 713 844.602539062 713 741.123046875 713 c 2,20,-1
891.40234375 863 m 1,43,44
 927.802734375 914.154296875 927.802734375 914.154296875 927.802734375 1071.67773438 c 128,-1,45
 927.802734375 1229.20019531 927.802734375 1229.20019531 918.442382812 1267.59960938 c 128,-1,46
 909.083007812 1306 909.083007812 1306 891.40234375 1324.5 c 0,47,48
 853.540039062 1366 853.540039062 1366 665.72265625 1366 c 256,49,50
 479.703125 1366 479.703125 1366 440.04296875 1324.5 c 0,51,52
 422.362304688 1306 422.362304688 1306 412.482421875 1268 c 128,-1,53
 402.602539062 1230 402.602539062 1230 402.602539062 1070.92871094 c 128,-1,54
 402.602539062 911.857421875 402.602539062 911.857421875 440.04296875 863 c 1,55,-1
 665.72265625 864 l 257,56,-1
 891.40234375 863 l 1,43,44
EndSplineSet
EndChar

StartChar: nine
Encoding: 57 57 26
Width: 1339
Flags: W
LayerCount: 2
Fore
SplineSet
561.919921875 533 m 0,0,1
 332.549804688 533 332.549804688 533 241.275390625 643.63671875 c 128,-1,2
 150 754.272460938 150 754.272460938 150 1033 c 0,3,4
 150 1330.92285156 150 1330.92285156 259.5 1432 c 4,5,6
 358.686523438 1523 358.686523438 1523 656.560546875 1523 c 4,7,8
 959.205078125 1523 959.205078125 1523 1067.30273438 1426.92480469 c 132,-1,9
 1175.40039062 1330.84960938 1175.40039062 1330.84960938 1175.40039062 1042 c 2,10,-1
 1175.40039062 468 l 2,11,12
 1175.40039062 164.713867188 1175.40039062 164.713867188 1059.85644531 70.357421875 c 128,-1,13
 944.311523438 -24 944.311523438 -24 713.260742188 -24 c 128,-1,14
 482.208984375 -24 482.208984375 -24 386.248046875 2.298828125 c 0,15,16
 184.944335938 59.73046875 184.944335938 59.73046875 184.944335938 367.647460938 c 0,17,18
 184.944335938 372.7890625 184.944335938 372.7890625 185 378 c 1,19,-1
 379 378 l 1,20,21
 379 204.799804688 379 204.799804688 430.055664062 158.625 c 0,22,23
 462.250976562 129.5078125 462.250976562 129.5078125 597.494140625 129.5078125 c 0,24,25
 676.721679688 129.5078125 676.721679688 129.5078125 791.3125 139.5 c 0,26,27
 894.134765625 148.466796875 894.134765625 148.466796875 931.877929688 190.38671875 c 128,-1,28
 969.62109375 232.307617188 969.62109375 232.307617188 973.510742188 310.654296875 c 128,-1,29
 977.400390625 389 977.400390625 389 977.400390625 463 c 2,30,-1
 977.400390625 683 l 1,31,32
 943.971679688 533 943.971679688 533 561.919921875 533 c 0,0,1
655.71484375 1366 m 132,-1,34
 483.126953125 1366 483.126953125 1366 427.231445312 1350.98242188 c 132,-1,35
 371.334960938 1335.96582031 371.334960938 1335.96582031 357.16796875 1275.86523438 c 132,-1,36
 343 1215.76464844 343 1215.76464844 343 1030.91210938 c 128,-1,37
 343 846.05859375 343 846.05859375 356.5625 786.995117188 c 128,-1,38
 370.124023438 727.931640625 370.124023438 727.931640625 425.748046875 711.965820312 c 128,-1,39
 481.372070312 696 481.372070312 696 657.314453125 696 c 128,-1,40
 833.256835938 696 833.256835938 696 891.092773438 708.267578125 c 128,-1,41
 948.9296875 720.53515625 948.9296875 720.53515625 963.165039062 769.650390625 c 128,-1,42
 977.400390625 818.764648438 977.400390625 818.764648438 977.400390625 998.040039062 c 128,-1,43
 977.400390625 1177.31542969 977.400390625 1177.31542969 960.633789062 1253.68261719 c 132,-1,44
 943.866210938 1330.04980469 943.866210938 1330.04980469 886.084960938 1348.02539062 c 132,-1,33
 828.302734375 1366 828.302734375 1366 655.71484375 1366 c 132,-1,34
EndSplineSet
EndChar

StartChar: colon
Encoding: 58 58 27
Width: 543
Flags: W
LayerCount: 2
Fore
SplineSet
149.759765625 1079 m 256,0,1
 149.759765625 1183.84277344 149.759765625 1183.84277344 233.259765625 1221.5 c 0,2,3
 258.759765625 1233 258.759765625 1233 303.834960938 1233 c 128,-1,4
 348.91015625 1233 348.91015625 1233 389.334960938 1190.44726562 c 128,-1,5
 429.759765625 1147.89453125 429.759765625 1147.89453125 429.759765625 1079 c 256,6,7
 429.759765625 974.607421875 429.759765625 974.607421875 345.259765625 936.5 c 0,8,9
 319.759765625 925 319.759765625 925 289.759765625 925 c 256,10,11
 194.759765625 925 194.759765625 925 160.259765625 1017 c 0,12,13
 149.759765625 1045 149.759765625 1045 149.759765625 1079 c 256,0,1
149.759765625 288 m 256,14,15
 149.759765625 392.842773438 149.759765625 392.842773438 233.259765625 430.5 c 0,16,17
 258.759765625 442 258.759765625 442 303.834960938 442 c 128,-1,18
 348.91015625 442 348.91015625 442 389.334960938 399.447265625 c 128,-1,19
 429.759765625 356.89453125 429.759765625 356.89453125 429.759765625 288 c 256,20,21
 429.759765625 183.607421875 429.759765625 183.607421875 345.259765625 145.5 c 0,22,23
 319.759765625 134 319.759765625 134 289.759765625 134 c 256,24,25
 194.759765625 134 194.759765625 134 160.259765625 226 c 0,26,27
 149.759765625 254 149.759765625 254 149.759765625 288 c 256,14,15
EndSplineSet
EndChar

StartChar: semicolon
Encoding: 59 59 28
Width: 547
Flags: W
LayerCount: 2
Fore
SplineSet
177.559570312 -101 m 128,-1,1
 136.559570312 -101 136.559570312 -101 118.559570312 -97 c 1,2,-1
 118.559570312 -29 l 1,3,4
 173.670898438 -29 173.670898438 -29 232.115234375 11.4609375 c 128,-1,5
 290.559570312 51.9228515625 290.559570312 51.9228515625 290.559570312 110 c 2,6,-1
 290.559570312 130 l 1,7,8
 229.984375 130 229.984375 130 187.772460938 173.294921875 c 128,-1,9
 145.559570312 216.58984375 145.559570312 216.58984375 145.559570312 284.755859375 c 128,-1,10
 145.559570312 352.922851562 145.559570312 352.922851562 186.499023438 395.9609375 c 128,-1,11
 227.4375 439 227.4375 439 292.979492188 439 c 128,-1,12
 358.520507812 439 358.520507812 439 396.540039062 386.594726562 c 128,-1,13
 434.559570312 334.189453125 434.559570312 334.189453125 434.559570312 260.594726562 c 128,-1,14
 434.559570312 187 434.559570312 187 413.559570312 124.5 c 128,-1,15
 392.559570312 62 392.559570312 62 356.059570312 12 c 128,-1,16
 319.559570312 -38 319.559570312 -38 269.059570312 -69.5 c 128,-1,0
 218.559570312 -101 218.559570312 -101 177.559570312 -101 c 128,-1,1
150.559570312 1079 m 256,17,18
 150.559570312 1183.39257812 150.559570312 1183.39257812 235.059570312 1221.5 c 0,19,20
 260.559570312 1233 260.559570312 1233 290.559570312 1233 c 256,21,22
 349.709960938 1233 349.709960938 1233 390.134765625 1190.44726562 c 128,-1,23
 430.559570312 1147.89453125 430.559570312 1147.89453125 430.559570312 1079 c 256,24,25
 430.559570312 974.607421875 430.559570312 974.607421875 346.059570312 936.5 c 0,26,27
 320.559570312 925 320.559570312 925 290.559570312 925 c 256,28,29
 230.876953125 925 230.876953125 925 190.71875 968.329101562 c 128,-1,30
 150.559570312 1011.65820312 150.559570312 1011.65820312 150.559570312 1079 c 256,17,18
EndSplineSet
EndChar

StartChar: less
Encoding: 60 60 29
Width: 891
Flags: W
LayerCount: 2
Fore
SplineSet
65.51953125 838 m 1,0,-1
 779.059570312 1276 l 1,1,-1
 779.059570312 1045 l 1,2,-1
 239.51953125 766 l 1,3,-1
 779.059570312 478 l 1,4,-1
 779.059570312 257 l 1,5,-1
 65.51953125 676 l 1,6,-1
 65.51953125 838 l 1,0,-1
EndSplineSet
EndChar

StartChar: equal
Encoding: 61 61 30
Width: 1129
Flags: W
LayerCount: 2
Fore
SplineSet
989.139648438 854 m 1,0,-1
 989.139648438 668 l 1,1,-1
 163.280273438 668 l 1,2,-1
 163.280273438 854 l 1,3,-1
 989.139648438 854 l 1,0,-1
989.139648438 305 m 1,4,-1
 163.280273438 305 l 1,5,-1
 163.280273438 491 l 1,6,-1
 989.139648438 491 l 1,7,-1
 989.139648438 305 l 1,4,-1
EndSplineSet
EndChar

StartChar: greater
Encoding: 62 62 31
Width: 870
Flags: W
LayerCount: 2
Fore
SplineSet
870.579101562 838 m 1,0,-1
 870.579101562 676 l 1,1,-1
 156 257 l 1,2,-1
 156 478 l 1,3,-1
 695.579101562 766 l 1,4,-1
 156 1045 l 1,5,-1
 156 1276 l 1,6,-1
 870.579101562 838 l 1,0,-1
EndSplineSet
EndChar

StartChar: question
Encoding: 63 63 32
Width: 748
Flags: W
LayerCount: 2
Fore
SplineSet
277.083984375 1534 m 0,0,1
 640.639648438 1534 640.639648438 1534 640.639648438 1175.1640625 c 0,2,3
 640.639648438 1000.91503906 640.639648438 1000.91503906 486.639648438 822.5 c 0,4,5
 324.744140625 634.9375 324.744140625 634.9375 308.639648438 490 c 1,6,7
 287.639648438 482 287.639648438 482 264.568359375 482 c 128,-1,8
 241.497070312 482 241.497070312 482 226.639648438 495 c 1,9,10
 226.639648438 698.2109375 226.639648438 698.2109375 316.825195312 845.35546875 c 128,-1,11
 407.010742188 992.5 407.010742188 992.5 427.325195312 1049.75 c 128,-1,12
 447.639648438 1107 447.639648438 1107 447.639648438 1163 c 0,13,14
 447.639648438 1350 447.639648438 1350 261.639648438 1350 c 0,15,16
 191.83984375 1350 191.83984375 1350 40.6396484375 1308 c 1,17,-1
 16.6396484375 1473 l 1,18,19
 172.528320312 1534 172.528320312 1534 277.083984375 1534 c 0,0,1
160.639648438 0 m 1,20,-1
 161.639648438 228 l 1,21,-1
 357.639648438 228 l 1,22,-1
 358.639648438 0 l 1,23,-1
 160.639648438 0 l 1,20,-1
EndSplineSet
EndChar

StartChar: at
Encoding: 64 64 33
Width: 2031
Flags: W
LayerCount: 2
Fore
SplineSet
1094.13671875 1266 m 0,0,1
 1482.12011719 1266 1482.12011719 1266 1482.12011719 944.299804688 c 2,2,-1
 1482.12011719 717 l 1,3,-1
 1483.16015625 422 l 1,4,-1
 1483.16015625 215 l 1,5,6
 1615.45507812 215 1615.45507812 215 1646.54785156 232 c 128,-1,7
 1677.63964844 249 1677.63964844 249 1691.6796875 280.5 c 128,-1,8
 1705.71972656 312 1705.71972656 312 1713.51953125 379.5 c 128,-1,9
 1721.3203125 447 1721.3203125 447 1721.3203125 670 c 128,-1,10
 1721.3203125 893 1721.3203125 893 1706.24023438 1006.5 c 0,11,12
 1663.50292969 1328.16308594 1663.50292969 1328.16308594 1463.60546875 1414.69433594 c 0,13,14
 1335.84179688 1472 1335.84179688 1472 1064.96289062 1472 c 128,-1,15
 794.083984375 1472 794.083984375 1472 636.923828125 1395.64648438 c 128,-1,16
 479.763671875 1319.29296875 479.763671875 1319.29296875 411.322265625 1137.125 c 128,-1,17
 342.879882812 954.956054688 342.879882812 954.956054688 342.879882812 659.22265625 c 128,-1,18
 342.879882812 363.489257812 342.879882812 363.489257812 375.120117188 246.744140625 c 128,-1,19
 407.360351562 130 407.360351562 130 451.559570312 56 c 0,20,21
 594.911132812 -184 594.911132812 -184 987.6796875 -184 c 0,22,23
 1248.83886719 -184 1248.83886719 -184 1537.24023438 -99.5 c 0,24,25
 1598.59960938 -82 1598.59960938 -82 1617.3203125 -77 c 1,26,-1
 1665.16015625 -224 l 1,27,28
 1389.88476562 -344 1389.88476562 -344 1060.46289062 -344 c 128,-1,29
 731.040039062 -344 731.040039062 -344 543.922851562 -261.629882812 c 0,30,31
 152.879882812 -91.046875 152.879882812 -91.046875 152.879882812 627 c 0,32,33
 152.879882812 1189.98242188 152.879882812 1189.98242188 376.432617188 1412.49121094 c 128,-1,34
 599.984375 1635 599.984375 1635 1045.91992188 1635 c 0,35,36
 1403.86523438 1635 1403.86523438 1635 1583.40234375 1543.64355469 c 128,-1,37
 1762.94042969 1452.28710938 1762.94042969 1452.28710938 1836.12988281 1250.05078125 c 128,-1,38
 1909.3203125 1047.81542969 1909.3203125 1047.81542969 1909.3203125 661.53125 c 128,-1,39
 1909.3203125 275.24609375 1909.3203125 275.24609375 1809.8203125 163.5 c 0,40,41
 1749.98535156 96.30078125 1749.98535156 96.30078125 1667.53222656 91.650390625 c 128,-1,42
 1585.08007812 87 1585.08007812 87 1522.00195312 87 c 0,43,44
 1369.41796875 87 1369.41796875 87 1356.12011719 212 c 1,45,46
 1321.00292969 61 1321.00292969 61 939.3203125 61 c 0,47,48
 751.276367188 61 751.276367188 61 673.958007812 131.875 c 128,-1,49
 596.639648438 202.75 596.639648438 202.75 596.639648438 410.375 c 128,-1,50
 596.639648438 618 596.639648438 618 673.639648438 695 c 128,-1,51
 750.639648438 772 750.639648438 772 903.48046875 772 c 128,-1,52
 1056.3203125 772 1056.3203125 772 1285.12011719 732 c 1,53,-1
 1285.12011719 959 l 2,54,55
 1285.12011719 1066.60449219 1285.12011719 1066.60449219 1259.12011719 1082.30273438 c 128,-1,56
 1233.12011719 1098 1233.12011719 1098 1184.24023438 1100.5 c 128,-1,57
 1135.36035156 1103 1135.36035156 1103 1051.63964844 1103 c 128,-1,58
 967.919921875 1103 967.919921875 1103 924.759765625 1101.5 c 128,-1,59
 881.599609375 1100 881.599609375 1100 860.799804688 1089.5 c 128,-1,60
 840 1079 840 1079 835.3203125 1057 c 128,-1,61
 830.639648438 1035 830.639648438 1035 830.639648438 992 c 128,-1,62
 830.639648438 949 830.639648438 949 834.799804688 903 c 1,63,-1
 671.639648438 883 l 1,64,65
 659.639648438 943 659.639648438 943 659.639648438 1013.5 c 0,66,67
 659.639648438 1156.02929688 659.639648438 1156.02929688 758.8125 1211.01464844 c 128,-1,68
 857.984375 1266 857.984375 1266 1094.13671875 1266 c 0,0,1
1285.12011719 311 m 2,69,-1
 1285.12011719 624 l 1,70,-1
 976.240234375 624 l 2,71,72
 866 624 866 624 830.862304688 614.346679688 c 128,-1,73
 795.723632812 604.693359375 795.723632812 604.693359375 787.181640625 564.447265625 c 128,-1,74
 778.639648438 524.200195312 778.639648438 524.200195312 778.639648438 438.599609375 c 128,-1,75
 778.639648438 353 778.639648438 353 780.200195312 319 c 128,-1,76
 781.759765625 285 781.759765625 285 789.040039062 263 c 128,-1,77
 796.3203125 241 796.3203125 241 811.919921875 229 c 128,-1,78
 827.51953125 217 827.51953125 217 856.120117188 211.5 c 128,-1,79
 884.719726562 206 884.719726562 206 928.400390625 205 c 0,80,81
 950.240234375 204.5 950.240234375 204.5 980.66015625 204.5 c 128,-1,82
 1011.08007812 204.5 1011.08007812 204.5 1050.08007812 205 c 0,83,84
 1128.08007812 206 1128.08007812 206 1178.51953125 209 c 128,-1,85
 1228.95996094 212 1228.95996094 212 1252.87988281 222.5 c 0,86,87
 1285.12011719 236.65234375 1285.12011719 236.65234375 1285.12011719 311 c 2,69,-1
EndSplineSet
EndChar

StartChar: A
Encoding: 65 65 34
Width: 1301
Flags: W
LayerCount: 2
Fore
SplineSet
911.200195312 388 m 1,0,-1
 364.16015625 388 l 1,1,-1
 256 0 l 1,2,-1
 66 0 l 1,3,-1
 512.879882812 1499 l 1,4,-1
 790.560546875 1499 l 1,5,-1
 1225.48046875 0 l 1,6,-1
 1022.48046875 0 l 1,7,-1
 911.200195312 388 l 1,0,-1
402.640625 524 m 1,8,-1
 872.720703125 524 l 1,9,-1
 641.83984375 1363 l 1,10,-1
 402.640625 524 l 1,8,-1
EndSplineSet
EndChar

StartChar: B
Encoding: 66 66 35
Width: 1369
Flags: W
LayerCount: 2
Fore
SplineSet
1227.63964844 411 m 0,0,1
 1227.63964844 138.182617188 1227.63964844 138.182617188 1075.13964844 55 c 0,2,3
 972.052734375 0 972.052734375 0 687.439453125 0 c 2,4,-1
 188 0 l 1,5,-1
 188 1499 l 1,6,-1
 646.879882812 1499 l 2,7,8
 924.559570312 1499 924.559570312 1499 1023.05957031 1451 c 0,9,10
 1190.05957031 1367.5 1190.05957031 1367.5 1188.55957031 1146.93945312 c 128,-1,11
 1187.05957031 926.377929688 1187.05957031 926.377929688 1065.05957031 850.5 c 1,12,13
 1033.93945312 825 1033.93945312 825 957.83984375 808 c 1,14,15
 1226.05957031 750.786132812 1226.05957031 750.786132812 1227.63964844 411 c 0,0,1
390 719 m 1,16,-1
 390 161 l 1,17,-1
 723.83984375 161 l 2,18,19
 917.495117188 161 917.495117188 161 969.408203125 196.75 c 0,20,21
 1035.63964844 242.5 1035.63964844 242.5 1030.54003906 422.8515625 c 128,-1,22
 1025.43945312 603.203125 1025.43945312 603.203125 954.711914062 661.1015625 c 128,-1,23
 883.983398438 719 883.983398438 719 710.319335938 719 c 2,24,-1
 390 719 l 1,16,-1
390 869 m 1,25,-1
 692.639648438 869 l 2,26,27
 856.54296875 869 856.54296875 869 922.271484375 908.5 c 128,-1,28
 988 948 988 948 989.529296875 1098.3359375 c 128,-1,29
 991.059570312 1248.671875 991.059570312 1248.671875 934.998046875 1293.3359375 c 128,-1,30
 878.936523438 1338 878.936523438 1338 714.479492188 1338 c 2,31,-1
 390 1338 l 1,32,-1
 390 869 l 1,25,-1
EndSplineSet
EndChar

StartChar: C
Encoding: 67 67 36
Width: 1434
Flags: W
LayerCount: 2
Fore
SplineSet
1267.50976562 1166.5 m 128,-1,1
 1267.50976562 1066 1267.50976562 1066 1259.50976562 980 c 1,2,-1
 1076.50976562 980 l 1,3,4
 1074.2109375 1198.38964844 1074.2109375 1198.38964844 1063.46582031 1244.6953125 c 128,-1,5
 1052.71972656 1291 1052.71972656 1291 1031.91992188 1313.5 c 128,-1,6
 1011.12011719 1336 1011.12011719 1336 967.142578125 1348 c 128,-1,7
 923.166015625 1360 923.166015625 1360 780.982421875 1360 c 128,-1,8
 638.799804688 1360 638.799804688 1360 575.359375 1358 c 128,-1,9
 511.919921875 1356 511.919921875 1356 470.319335938 1343.5 c 128,-1,10
 428.719726562 1331 428.719726562 1331 406.359375 1303.5 c 128,-1,11
 384 1276 384 1276 371 1212.875 c 128,-1,12
 358 1149.75 358 1149.75 358 903 c 2,13,-1
 358 594 l 2,14,15
 358 348.5 358 348.5 371 284.75 c 128,-1,16
 384 221 384 221 406.359375 194 c 128,-1,17
 428.719726562 167 428.719726562 167 489.076171875 149.58984375 c 0,18,19
 529.915039062 137.80859375 529.915039062 137.80859375 692.354492188 137.80859375 c 0,20,21
 769.989257812 137.80859375 769.989257812 137.80859375 875.399414062 140.5 c 0,22,23
 992.9765625 143.500976562 992.9765625 143.500976562 1031.95996094 187.545898438 c 128,-1,24
 1070.94433594 231.590820312 1070.94433594 231.590820312 1073.22753906 333.794921875 c 128,-1,25
 1075.50976562 436 1075.50976562 436 1076.50976562 537 c 1,26,-1
 1259.50976562 537 l 1,27,28
 1264.50976562 432 1264.50976562 432 1264.50976562 360.5 c 0,29,30
 1264.50976562 46.4306640625 1264.50976562 46.4306640625 1053.28613281 -0.740234375 c 0,31,32
 920.2890625 -29.4033203125 920.2890625 -29.4033203125 765.3828125 -29.4033203125 c 0,33,34
 714.961914062 -29.4033203125 714.961914062 -29.4033203125 662.219726562 -26.3662109375 c 0,35,36
 447.439453125 -14 447.439453125 -14 382.439453125 5.5 c 0,37,38
 257.08984375 44.31640625 257.08984375 44.31640625 207.544921875 172.384765625 c 128,-1,39
 158 300.453125 158 300.453125 158 594 c 2,40,-1
 158 903 l 2,41,42
 158 1189.76464844 158 1189.76464844 205.95703125 1319.53125 c 128,-1,43
 253.915039062 1449.29785156 253.915039062 1449.29785156 363.068359375 1486.1484375 c 128,-1,44
 472.221679688 1523 472.221679688 1523 662.111328125 1523 c 128,-1,45
 852 1523 852 1523 959.639648438 1511.5 c 128,-1,46
 1067.27929688 1500 1067.27929688 1500 1134.89453125 1460.5 c 128,-1,47
 1202.50976562 1421 1202.50976562 1421 1235.00976562 1344 c 128,-1,0
 1267.50976562 1267 1267.50976562 1267 1267.50976562 1166.5 c 128,-1,1
EndSplineSet
EndChar

StartChar: D
Encoding: 68 68 37
Width: 1435
Flags: W
LayerCount: 2
Fore
SplineSet
699.959960938 162 m 2,0,1
 906.254882812 162 906.254882812 162 953.907226562 176.5 c 128,-1,2
 1001.55957031 191 1001.55957031 191 1023.91992188 217 c 128,-1,3
 1046.27929688 243 1046.27929688 243 1058.10449219 297.575195312 c 128,-1,4
 1069.92871094 352.150390625 1069.92871094 352.150390625 1072.27929688 594 c 1,5,-1
 1072.27929688 903 l 1,6,7
 1069.87109375 1143.92871094 1069.87109375 1143.92871094 1059.63476562 1196.96484375 c 128,-1,8
 1049.39941406 1250 1049.39941406 1250 1030.16015625 1277.5 c 128,-1,9
 1010.91992188 1305 1010.91992188 1305 966.392578125 1322 c 128,-1,10
 921.864257812 1339 921.864257812 1339 750.919921875 1339 c 2,11,-1
 389 1339 l 1,12,-1
 389 162 l 1,13,-1
 699.959960938 162 l 2,0,1
188 0 m 1,14,-1
 188 1499 l 1,15,-1
 699.959960938 1499 l 2,16,17
 953.08984375 1499 953.08984375 1499 1033.48535156 1475.5 c 0,18,19
 1174.796875 1432.99511719 1174.796875 1432.99511719 1224.03808594 1310.35546875 c 128,-1,20
 1273.27929688 1187.71679688 1273.27929688 1187.71679688 1273.27929688 903 c 2,21,-1
 1273.27929688 594 l 2,22,23
 1273.27929688 314.283203125 1273.27929688 314.283203125 1223.80957031 191.07421875 c 128,-1,24
 1174.33886719 67.8662109375 1174.33886719 67.8662109375 1060.29394531 33.93359375 c 128,-1,25
 946.248046875 0 946.248046875 0 699.959960938 0 c 2,26,-1
 188 0 l 1,14,-1
EndSplineSet
EndChar

StartChar: E
Encoding: 69 69 38
Width: 1204
Flags: W
LayerCount: 2
Fore
SplineSet
390 701 m 1,0,-1
 390 164 l 1,1,-1
 1066.56933594 164 l 1,2,-1
 1066.56933594 0 l 1,3,-1
 188 0 l 1,4,-1
 188 1499 l 1,5,-1
 1051.56933594 1499 l 1,6,-1
 1051.56933594 1335 l 1,7,-1
 390 1335 l 1,8,-1
 390 865 l 1,9,-1
 970.569335938 865 l 1,10,-1
 970.569335938 701 l 1,11,-1
 390 701 l 1,0,-1
EndSplineSet
EndChar

StartChar: F
Encoding: 70 70 39
Width: 1069
Flags: W
LayerCount: 2
Fore
SplineSet
390 686 m 1,0,-1
 390 0 l 1,1,-1
 188 0 l 1,2,-1
 188 1499 l 1,3,-1
 977.12890625 1499 l 1,4,-1
 977.12890625 1335 l 1,5,-1
 390 1335 l 1,6,-1
 390 850 l 1,7,-1
 932.12890625 850 l 1,8,-1
 932.12890625 686 l 1,9,-1
 390 686 l 1,0,-1
EndSplineSet
EndChar

StartChar: G
Encoding: 71 71 40
Width: 1415
Flags: W
LayerCount: 2
Fore
SplineSet
1060.04003906 606 m 1,0,-1
 796.919921875 606 l 1,1,-1
 796.919921875 748 l 1,2,-1
 1241.359375 748 l 1,3,-1
 1242.04003906 53 l 1,4,5
 1102.04003906 -24 1102.04003906 -24 730.83203125 -24 c 128,-1,6
 359.625 -24 359.625 -24 258.3125 83.837890625 c 128,-1,7
 157 191.67578125 157 191.67578125 157 594 c 2,8,-1
 157 903 l 2,9,10
 157 1189.76464844 157 1189.76464844 204.849609375 1319.24121094 c 128,-1,11
 252.700195312 1448.71777344 252.700195312 1448.71777344 360.056640625 1485.859375 c 128,-1,12
 467.413085938 1523 467.413085938 1523 655.56640625 1523 c 128,-1,13
 843.719726562 1523 843.719726562 1523 945.040039062 1512.5 c 128,-1,14
 1046.359375 1502 1046.359375 1502 1109.359375 1464.5 c 128,-1,15
 1172.359375 1427 1172.359375 1427 1202.359375 1353.5 c 128,-1,16
 1232.359375 1280 1232.359375 1280 1232.359375 1178 c 128,-1,17
 1232.359375 1076 1232.359375 1076 1220.359375 980 c 1,18,-1
 1042.359375 980 l 1,19,20
 1042.359375 1194.66699219 1042.359375 1194.66699219 1033.51953125 1242.83398438 c 128,-1,21
 1024.6796875 1291 1024.6796875 1291 1006.47949219 1313.5 c 128,-1,22
 988.279296875 1336 988.279296875 1336 949.056640625 1348 c 128,-1,23
 909.833984375 1360 909.833984375 1360 773.81640625 1360 c 128,-1,24
 637.799804688 1360 637.799804688 1360 574.359375 1358 c 128,-1,25
 510.919921875 1356 510.919921875 1356 469.319335938 1343.5 c 128,-1,26
 427.719726562 1331 427.719726562 1331 405.359375 1303.5 c 128,-1,27
 383 1276 383 1276 370 1212.875 c 128,-1,28
 357 1149.75 357 1149.75 357 903 c 2,29,-1
 357 594 l 2,30,31
 357 343.400390625 357 343.400390625 369.479492188 282.200195312 c 128,-1,32
 381.959960938 221 381.959960938 221 404.83984375 194 c 128,-1,33
 427.719726562 167 427.719726562 167 476.252929688 153 c 128,-1,34
 524.786132812 139 524.786132812 139 777.333007812 139 c 128,-1,35
 1029.87988281 139 1029.87988281 139 1060.04003906 168 c 1,36,-1
 1060.04003906 606 l 1,0,-1
EndSplineSet
EndChar

StartChar: H
Encoding: 72 72 41
Width: 1446
Flags: W
LayerCount: 2
Fore
SplineSet
389 679 m 1,0,-1
 389 0 l 1,1,-1
 188 0 l 1,2,-1
 188 1499 l 1,3,-1
 389 1499 l 1,4,-1
 389 840 l 1,5,-1
 1056.6796875 840 l 1,6,-1
 1056.6796875 1499 l 1,7,-1
 1257.6796875 1499 l 1,8,-1
 1257.6796875 0 l 1,9,-1
 1056.6796875 0 l 1,10,-1
 1056.6796875 679 l 1,11,-1
 389 679 l 1,0,-1
EndSplineSet
EndChar

StartChar: I
Encoding: 73 73 42
Width: 577
Flags: W
LayerCount: 2
Fore
SplineSet
389 0 m 1,0,-1
 188 0 l 1,1,-1
 188 1499 l 1,2,-1
 389 1499 l 1,3,-1
 389 0 l 1,0,-1
EndSplineSet
EndChar

StartChar: J
Encoding: 74 74 43
Width: 689
Flags: W
LayerCount: 2
Fore
SplineSet
298 -24 m 0,0,1
 204 -24 204 -24 92 0 c 1,2,-1
 92 179 l 1,3,-1
 304 179 l 1,4,-1
 304 1499 l 1,5,-1
 504 1499 l 1,6,-1
 504 177 l 2,7,8
 504 -24 504 -24 298 -24 c 0,0,1
EndSplineSet
EndChar

StartChar: K
Encoding: 75 75 44
Width: 1266
Flags: W
LayerCount: 2
Fore
SplineSet
390 0 m 1,0,-1
 188 0 l 1,1,-1
 188 1499 l 1,2,-1
 390 1499 l 1,3,-1
 390 821 l 1,4,-1
 921.439453125 1499 l 1,5,-1
 1161.59960938 1499 l 1,6,-1
 615.6796875 795 l 1,7,-1
 1223.59960938 0 l 1,8,-1
 977.599609375 0 l 1,9,-1
 436.799804688 712 l 1,10,-1
 390 657 l 1,11,-1
 390 0 l 1,0,-1
EndSplineSet
EndChar

StartChar: L
Encoding: 76 76 45
Width: 1016
Flags: W
LayerCount: 2
Fore
SplineSet
188 0 m 1,0,-1
 188 1499 l 1,1,-1
 390 1499 l 1,2,-1
 390 164 l 1,3,-1
 939.689453125 164 l 1,4,-1
 939.689453125 0 l 1,5,-1
 188 0 l 1,0,-1
EndSplineSet
EndChar

StartChar: M
Encoding: 77 77 46
Width: 1748
Flags: W
LayerCount: 2
Fore
SplineSet
383.83984375 1152 m 1,0,-1
 310 0 l 1,1,-1
 155 0 l 1,2,-1
 225 1499 l 1,3,-1
 444.16015625 1499 l 1,4,-1
 870.040039062 326 l 1,5,-1
 1292.08007812 1499 l 1,6,-1
 1522.36035156 1499 l 1,7,-1
 1593.36035156 0 l 1,8,-1
 1403.36035156 0 l 1,9,-1
 1330.56054688 1151 l 1,10,-1
 927.040039062 0 l 1,11,-1
 805.040039062 0 l 1,12,-1
 383.83984375 1152 l 1,0,-1
EndSplineSet
EndChar

StartChar: N
Encoding: 78 78 47
Width: 1469
Flags: W
LayerCount: 2
Fore
SplineSet
1116.359375 1499 m 1,0,-1
 1281.359375 1499 l 1,1,-1
 1281.359375 0 l 1,2,-1
 1076.83984375 0 l 1,3,-1
 353 1194 l 1,4,-1
 353 0 l 1,5,-1
 188 0 l 1,6,-1
 188 1499 l 1,7,-1
 391.479492188 1499 l 1,8,-1
 1116.359375 287 l 1,9,-1
 1116.359375 1499 l 1,0,-1
EndSplineSet
EndChar

StartChar: O
Encoding: 79 79 48
Width: 1467
Flags: W
LayerCount: 2
Fore
SplineSet
730.83984375 1360 m 128,-1,1
 638.799804688 1360 638.799804688 1360 575.359375 1358 c 128,-1,2
 511.919921875 1356 511.919921875 1356 470.319335938 1343.5 c 128,-1,3
 428.719726562 1331 428.719726562 1331 406.359375 1303.5 c 128,-1,4
 384 1276 384 1276 371 1212.875 c 128,-1,5
 358 1149.75 358 1149.75 358 903 c 2,6,-1
 358 594 l 1,7,8
 360.387695312 334.607421875 360.387695312 334.607421875 371.673828125 279.803710938 c 128,-1,9
 382.959960938 225 382.959960938 225 404.279296875 197.5 c 128,-1,10
 425.599609375 170 425.599609375 170 472.719726562 154.5 c 128,-1,11
 519.83984375 139 519.83984375 139 664.599609375 139 c 128,-1,12
 809.359375 139 809.359375 139 875.919921875 140.5 c 128,-1,13
 942.479492188 142 942.479492188 142 985.639648438 153.5 c 128,-1,14
 1028.79980469 165 1028.79980469 165 1052.71972656 191.5 c 128,-1,15
 1076.63964844 218 1076.63964844 218 1089.63964844 278.119140625 c 128,-1,16
 1102.63964844 338.23828125 1102.63964844 338.23828125 1102.63964844 594 c 2,17,-1
 1102.63964844 903 l 2,18,19
 1102.63964844 1154.79980469 1102.63964844 1154.79980469 1090.16015625 1215.40039062 c 128,-1,20
 1077.6796875 1276 1077.6796875 1276 1055.31933594 1303.5 c 128,-1,21
 1032.95996094 1331 1032.95996094 1331 991.359375 1343.5 c 128,-1,22
 949.759765625 1356 949.759765625 1356 886.319335938 1358 c 128,-1,0
 822.879882812 1360 822.879882812 1360 730.83984375 1360 c 128,-1,1
731.359375 -24 m 256,23,24
 480.7734375 -24 480.7734375 -24 368.931640625 10.158203125 c 128,-1,25
 257.08984375 44.31640625 257.08984375 44.31640625 207.544921875 172.384765625 c 128,-1,26
 158 300.453125 158 300.453125 158 594 c 2,27,-1
 158 903 l 2,28,29
 158 1196.11328125 158 1196.11328125 207.340820312 1324.5859375 c 128,-1,30
 256.681640625 1453.05859375 256.681640625 1453.05859375 368.310546875 1488.02929688 c 128,-1,31
 479.939453125 1523 479.939453125 1523 731.359375 1523 c 256,32,33
 983.040039062 1523 983.040039062 1523 1094.03417969 1487.9375 c 128,-1,34
 1205.02832031 1452.875 1205.02832031 1452.875 1254.33398438 1324.49414062 c 128,-1,35
 1303.63964844 1196.11328125 1303.63964844 1196.11328125 1303.63964844 903 c 2,36,-1
 1303.63964844 594 l 2,37,38
 1303.63964844 300.453125 1303.63964844 300.453125 1254.12988281 172.47265625 c 128,-1,39
 1204.61914062 44.4931640625 1204.61914062 44.4931640625 1093.41601562 10.24609375 c 128,-1,40
 982.212890625 -24 982.212890625 -24 731.359375 -24 c 256,23,24
EndSplineSet
EndChar

StartChar: P
Encoding: 80 80 49
Width: 1331
Flags: W
LayerCount: 2
Fore
SplineSet
717.599609375 1499 m 2,0,1
 966.16015625 1499 966.16015625 1499 1075.5 1405.57128906 c 128,-1,2
 1184.83984375 1312.14257812 1184.83984375 1312.14257812 1184.83984375 996.86328125 c 128,-1,3
 1184.83984375 681.583007812 1184.83984375 681.583007812 1078.62207031 597.037109375 c 128,-1,4
 972.405273438 512.4921875 972.405273438 512.4921875 874.122070312 504.74609375 c 128,-1,5
 775.83984375 497 775.83984375 497 705.120117188 497 c 2,6,-1
 390 497 l 1,7,-1
 390 0 l 1,8,-1
 188 0 l 1,9,-1
 188 1499 l 1,10,-1
 717.599609375 1499 l 2,0,1
699.919921875 661 m 2,11,12
 888.783203125 661 888.783203125 661 936.311523438 718.125 c 128,-1,13
 983.83984375 775.25 983.83984375 775.25 983.83984375 965.458984375 c 128,-1,14
 983.83984375 1155.66699219 983.83984375 1155.66699219 963.810546875 1226.28125 c 128,-1,15
 943.78125 1296.89648438 943.78125 1296.89648438 888.953125 1317.44824219 c 128,-1,16
 834.125 1338 834.125 1338 705.120117188 1338 c 2,17,-1
 390 1338 l 1,18,-1
 390 661 l 1,19,-1
 699.919921875 661 l 2,11,12
EndSplineSet
EndChar

StartChar: Q
Encoding: 81 81 50
Width: 1468
Flags: W
LayerCount: 2
Fore
SplineSet
1267.63964844 -243 m 1,0,-1
 1128.63964844 -358 l 1,1,-1
 904 -21 l 1,2,-1
 1084.95996094 38 l 1,3,-1
 1267.63964844 -243 l 1,0,-1
730.83984375 1360 m 128,-1,5
 638.799804688 1360 638.799804688 1360 575.359375 1358 c 128,-1,6
 511.919921875 1356 511.919921875 1356 470.319335938 1343.5 c 128,-1,7
 428.719726562 1331 428.719726562 1331 406.359375 1303.5 c 128,-1,8
 384 1276 384 1276 371 1212.875 c 128,-1,9
 358 1149.75 358 1149.75 358 903 c 2,10,-1
 358 594 l 1,11,12
 360.387695312 334.607421875 360.387695312 334.607421875 371.673828125 279.803710938 c 128,-1,13
 382.959960938 225 382.959960938 225 404.279296875 197.5 c 128,-1,14
 425.599609375 170 425.599609375 170 472.719726562 154.5 c 128,-1,15
 519.83984375 139 519.83984375 139 664.599609375 139 c 128,-1,16
 809.359375 139 809.359375 139 875.919921875 140.5 c 128,-1,17
 942.479492188 142 942.479492188 142 985.639648438 153.5 c 128,-1,18
 1028.79980469 165 1028.79980469 165 1052.71972656 191.5 c 128,-1,19
 1076.63964844 218 1076.63964844 218 1089.63964844 278.119140625 c 128,-1,20
 1102.63964844 338.23828125 1102.63964844 338.23828125 1102.63964844 594 c 2,21,-1
 1102.63964844 903 l 2,22,23
 1102.63964844 1154.79980469 1102.63964844 1154.79980469 1090.16015625 1215.40039062 c 128,-1,24
 1077.6796875 1276 1077.6796875 1276 1055.31933594 1303.5 c 128,-1,25
 1032.95996094 1331 1032.95996094 1331 991.359375 1343.5 c 128,-1,26
 949.759765625 1356 949.759765625 1356 886.319335938 1358 c 128,-1,4
 822.879882812 1360 822.879882812 1360 730.83984375 1360 c 128,-1,5
731.359375 -24 m 256,27,28
 480.7734375 -24 480.7734375 -24 368.931640625 10.158203125 c 128,-1,29
 257.08984375 44.31640625 257.08984375 44.31640625 207.544921875 172.384765625 c 128,-1,30
 158 300.453125 158 300.453125 158 594 c 2,31,-1
 158 903 l 2,32,33
 158 1196.11328125 158 1196.11328125 207.340820312 1324.5859375 c 128,-1,34
 256.681640625 1453.05859375 256.681640625 1453.05859375 368.310546875 1488.02929688 c 128,-1,35
 479.939453125 1523 479.939453125 1523 731.359375 1523 c 256,36,37
 983.040039062 1523 983.040039062 1523 1094.03417969 1487.9375 c 128,-1,38
 1205.02832031 1452.875 1205.02832031 1452.875 1254.33398438 1324.49414062 c 128,-1,39
 1303.63964844 1196.11328125 1303.63964844 1196.11328125 1303.63964844 903 c 2,40,-1
 1303.63964844 594 l 2,41,42
 1303.63964844 300.453125 1303.63964844 300.453125 1254.12988281 172.47265625 c 128,-1,43
 1204.61914062 44.4931640625 1204.61914062 44.4931640625 1093.41601562 10.24609375 c 128,-1,44
 982.212890625 -24 982.212890625 -24 731.359375 -24 c 256,27,28
EndSplineSet
EndChar

StartChar: R
Encoding: 82 82 51
Width: 1382
Flags: W
LayerCount: 2
Fore
SplineSet
390 0 m 1,0,-1
 188 0 l 1,1,-1
 188 1499 l 1,2,-1
 715.51953125 1499 l 2,3,4
 892.588867188 1499 892.588867188 1499 993.54296875 1474.09960938 c 128,-1,5
 1094.49707031 1449.19921875 1094.49707031 1449.19921875 1153.18847656 1357.25 c 128,-1,6
 1211.87988281 1265.29980469 1211.87988281 1265.29980469 1211.87988281 1092.15039062 c 128,-1,7
 1211.87988281 919 1211.87988281 919 1163.015625 821.2734375 c 128,-1,8
 1114.15234375 723.545898438 1114.15234375 723.545898438 985.919921875 709 c 1,9,10
 1162.57910156 686.5703125 1162.57910156 686.5703125 1187.63964844 463 c 1,11,-1
 1232.63964844 0 l 1,12,-1
 1030.63964844 0 l 1,13,-1
 984.879882812 402 l 1,14,15
 967.795898438 541.630859375 967.795898438 541.630859375 931.682617188 581.315429688 c 128,-1,16
 895.569335938 621 895.569335938 621 780 621 c 2,17,-1
 390 621 l 1,18,-1
 390 0 l 1,0,-1
725.919921875 775 m 2,19,20
 901.375 775 901.375 775 956.126953125 823.46875 c 128,-1,21
 1010.87988281 871.936523438 1010.87988281 871.936523438 1010.87988281 1016.96875 c 128,-1,22
 1010.87988281 1162 1010.87988281 1162 997.359375 1217.5 c 128,-1,23
 983.83984375 1273 983.83984375 1273 941.749023438 1305.5 c 128,-1,24
 899.658203125 1338 899.658203125 1338 712.399414062 1338 c 2,25,-1
 390 1338 l 1,26,-1
 390 775 l 1,27,-1
 725.919921875 775 l 2,19,20
EndSplineSet
EndChar

StartChar: S
Encoding: 83 83 52
Width: 1330
Flags: W
LayerCount: 2
Fore
SplineSet
1153.71972656 1242 m 0,0,1
 1153.71972656 1166 1153.71972656 1166 1147.71972656 1103 c 1,2,-1
 965.719726562 1103 l 1,3,4
 965.719726562 1291.22265625 965.719726562 1291.22265625 936.600585938 1316.11132812 c 128,-1,5
 907.48046875 1341 907.48046875 1341 863.41015625 1350.5 c 128,-1,6
 819.33984375 1360 819.33984375 1360 658.46484375 1360 c 128,-1,7
 497.58984375 1360 497.58984375 1360 449.145507812 1347.15039062 c 128,-1,8
 400.701171875 1334.29980469 400.701171875 1334.29980469 387.850585938 1284.04980469 c 128,-1,9
 375 1233.79980469 375 1233.79980469 375 1114.17285156 c 128,-1,10
 375 994.545898438 375 994.545898438 383.770507812 966.94921875 c 128,-1,11
 392.540039062 939.3515625 392.540039062 939.3515625 455.426757812 918.927734375 c 128,-1,12
 518.3125 898.502929688 518.3125 898.502929688 747.516601562 863.751953125 c 128,-1,13
 976.719726562 829 976.719726562 829 1031.71972656 808.5 c 0,14,15
 1186.63183594 750.006835938 1186.63183594 750.006835938 1187.75195312 380.151367188 c 128,-1,16
 1188.87207031 10.294921875 1188.87207031 10.294921875 878.19140625 -12.92578125 c 0,17,18
 730.533203125 -23.68359375 730.533203125 -23.68359375 611.923828125 -23.68359375 c 0,19,20
 144 -23.68359375 144 -23.68359375 144 238.3671875 c 0,21,22
 144 370.666992188 144 370.666992188 149 419 c 1,23,-1
 339 419 l 1,24,25
 339 210.133789062 339 210.133789062 362.919921875 184.06640625 c 128,-1,26
 386.83984375 158 386.83984375 158 421.419921875 148.5 c 128,-1,27
 456 139 456 139 629.123046875 139 c 128,-1,28
 802.24609375 139 802.24609375 139 875.265625 150.646484375 c 128,-1,29
 948.286132812 162.291992188 948.286132812 162.291992188 968.123046875 209.732421875 c 128,-1,30
 987.959960938 257.173828125 987.959960938 257.173828125 987.959960938 444.711914062 c 128,-1,31
 987.959960938 632.25 987.959960938 632.25 938.70703125 642.489257812 c 128,-1,32
 889.455078125 652.728515625 889.455078125 652.728515625 781.813476562 671.5 c 2,33,-1
 436.721679688 732.498046875 l 1,34,35
 318.165039062 757.915039062 318.165039062 757.915039062 246.69140625 825.938476562 c 128,-1,36
 175.216796875 893.961914062 175.216796875 893.961914062 174 1131.92675781 c 0,37,38
 171.997070312 1524.1640625 171.997070312 1524.1640625 544.520507812 1523 c 0,39,40
 596.012695312 1522.95507812 596.012695312 1522.95507812 783.458007812 1518.47949219 c 0,41,42
 1153.71972656 1509.703125 1153.71972656 1509.703125 1153.71972656 1242 c 0,0,1
EndSplineSet
EndChar

StartChar: T
Encoding: 84 84 53
Width: 932
Flags: W
LayerCount: 2
Fore
SplineSet
935.338867188 1499 m 1,0,-1
 935.338867188 1335 l 1,1,-1
 551.009765625 1335 l 1,2,-1
 551.009765625 0 l 1,3,-1
 351.009765625 0 l 1,4,-1
 351.009765625 1335 l 1,5,-1
 -25 1335 l 1,6,-1
 -25 1499 l 1,7,-1
 935.338867188 1499 l 1,0,-1
EndSplineSet
EndChar

StartChar: U
Encoding: 85 85 54
Width: 1483
Flags: W
LayerCount: 2
Fore
SplineSet
740 -24 m 256,0,1
 499.301757812 -24 499.301757812 -24 414.651367188 5 c 128,-1,2
 330 34 330 34 288.5 73 c 128,-1,3
 247 112 247 112 211 204.16015625 c 128,-1,4
 175 296.3203125 175 296.3203125 175 550 c 2,5,-1
 175 1499 l 1,6,-1
 376 1499 l 1,7,-1
 376 468 l 2,8,9
 376 246 376 246 444.48046875 192.5 c 128,-1,10
 512.9609375 139 512.9609375 139 740 139 c 256,11,12
 967.040039062 139 967.040039062 139 1018.88085938 179.5 c 128,-1,13
 1070.72070312 220 1070.72070312 220 1087.88085938 286 c 128,-1,14
 1105.04003906 352 1105.04003906 352 1105.04003906 468 c 2,15,-1
 1105.04003906 1499 l 1,16,-1
 1306.04003906 1499 l 1,17,-1
 1306.04003906 550 l 2,18,19
 1306.04003906 295.215820312 1306.04003906 295.215820312 1258.20214844 175.15234375 c 128,-1,20
 1210.36425781 55.0888671875 1210.36425781 55.0888671875 1094.83105469 15.544921875 c 128,-1,21
 979.296875 -24 979.296875 -24 740 -24 c 256,0,1
EndSplineSet
EndChar

StartChar: V
Encoding: 86 86 55
Width: 1235
Flags: W
LayerCount: 2
Fore
SplineSet
611.73046875 259 m 1,0,-1
 980.099609375 1499 l 1,1,-1
 1198.09960938 1499 l 1,2,-1
 708.73046875 0 l 1,3,-1
 500.73046875 0 l 1,4,-1
 28 1499 l 1,5,-1
 240 1499 l 1,6,-1
 609.73046875 259 l 1,7,-1
 611.73046875 259 l 1,0,-1
EndSplineSet
EndChar

StartChar: W
Encoding: 87 87 56
Width: 1819
Flags: W
LayerCount: 2
Fore
SplineSet
1302.51953125 269 m 1,0,-1
 1303.51953125 269 l 1,1,-1
 1538.51953125 1499 l 1,2,-1
 1745.51953125 1499 l 1,3,-1
 1409.51953125 0 l 1,4,-1
 1182.51953125 0 l 1,5,-1
 905.879882812 1183 l 1,6,-1
 623 0 l 1,7,-1
 396 0 l 1,8,-1
 66 1499 l 1,9,-1
 279 1499 l 1,10,-1
 515 269 l 1,11,-1
 517 269 l 1,12,-1
 802.919921875 1499 l 1,13,-1
 1005.71972656 1499 l 1,14,-1
 1302.51953125 269 l 1,0,-1
EndSplineSet
EndChar

StartChar: X
Encoding: 88 88 57
Width: 1238
Flags: W
LayerCount: 2
Fore
SplineSet
620.48046875 593 m 1,0,-1
 296 0 l 1,1,-1
 81 0 l 1,2,-1
 507.120117188 770 l 1,3,-1
 100 1499 l 1,4,-1
 310.560546875 1499 l 1,5,-1
 620.48046875 938 l 1,6,-1
 930.400390625 1499 l 1,7,-1
 1141.95996094 1499 l 1,8,-1
 735.920898438 770 l 1,9,-1
 1160.95996094 0 l 1,10,-1
 944.959960938 0 l 1,11,-1
 620.48046875 593 l 1,0,-1
EndSplineSet
EndChar

StartChar: Y
Encoding: 89 89 58
Width: 1058
Flags: W
LayerCount: 2
Fore
SplineSet
615.889648438 0 m 1,0,-1
 415.889648438 0 l 1,1,-1
 415.889648438 510 l 1,2,-1
 -9 1499 l 1,3,-1
 206 1499 l 1,4,-1
 524.049804688 723 l 1,5,-1
 848.059570312 1499 l 1,6,-1
 1056.05957031 1499 l 1,7,-1
 615.889648438 510 l 1,8,-1
 615.889648438 0 l 1,0,-1
EndSplineSet
EndChar

StartChar: Z
Encoding: 90 90 59
Width: 1124
Flags: W
LayerCount: 2
Fore
SplineSet
115 0 m 1,0,-1
 115 150 l 1,1,-1
 776.458984375 1332 l 1,2,-1
 184 1332 l 1,3,-1
 184 1499 l 1,4,-1
 982.458984375 1499 l 1,5,-1
 982.458984375 1325 l 1,6,-1
 344 172 l 1,7,-1
 982.458984375 172 l 1,8,-1
 982.458984375 0 l 1,9,-1
 115 0 l 1,0,-1
EndSplineSet
EndChar

StartChar: bracketleft
Encoding: 91 91 60
Width: 566
Flags: W
LayerCount: 2
Fore
SplineSet
193.440429688 -262 m 1,0,-1
 193.440429688 1690 l 1,1,-1
 638.440429688 1690 l 1,2,-1
 638.440429688 1543 l 1,3,-1
 383.440429688 1543 l 1,4,-1
 383.440429688 -114 l 1,5,-1
 638.440429688 -114 l 1,6,-1
 638.440429688 -262 l 1,7,-1
 193.440429688 -262 l 1,0,-1
EndSplineSet
EndChar

StartChar: backslash
Encoding: 92 92 61
Width: 611
Flags: W
LayerCount: 2
Fore
SplineSet
361.639648438 0 m 1,0,-1
 68.6396484375 1499 l 1,1,-1
 265.639648438 1499 l 1,2,-1
 558.639648438 0 l 1,3,-1
 361.639648438 0 l 1,0,-1
EndSplineSet
EndChar

StartChar: bracketright
Encoding: 93 93 62
Width: 581
Flags: W
LayerCount: 2
Fore
SplineSet
-52 1690 m 1,0,-1
 391 1690 l 1,1,-1
 391 -262 l 1,2,-1
 -52 -262 l 1,3,-1
 -52 -114 l 1,4,-1
 202 -114 l 1,5,-1
 202 1543 l 1,6,-1
 -52 1543 l 1,7,-1
 -52 1690 l 1,0,-1
EndSplineSet
EndChar

StartChar: asciicircum
Encoding: 94 94 63
Width: 816
Flags: W
LayerCount: 2
Fore
SplineSet
696.400390625 1440.5 m 0,0,1
 696.400390625 1401 696.400390625 1401 658.900390625 1401 c 0,2,3
 643.400390625 1401 643.400390625 1401 625.400390625 1416 c 1,4,-1
 418.400390625 1627 l 1,5,-1
 211.400390625 1416 l 1,6,7
 193.400390625 1401 193.400390625 1401 177.900390625 1401 c 0,8,9
 140.400390625 1401 140.400390625 1401 140.400390625 1441 c 256,10,11
 140.400390625 1461 140.400390625 1461 153.400390625 1481 c 2,12,-1
 324.400390625 1754 l 2,13,14
 351.182617188 1798 351.182617188 1798 418.400390625 1798 c 256,15,16
 483.704101562 1798 483.704101562 1798 512.400390625 1754 c 1,17,-1
 682.400390625 1481 l 2,18,19
 696.400390625 1459 696.400390625 1459 696.400390625 1440.5 c 0,0,1
EndSplineSet
EndChar

StartChar: underscore
Encoding: 95 95 64
Width: 1150
Flags: W
LayerCount: 2
Fore
SplineSet
996.418945312 0 m 1,0,-1
 996.418945312 -127 l 1,1,-1
 159.120117188 -127 l 1,2,-1
 159.120117188 0 l 1,3,-1
 996.418945312 0 l 1,0,-1
EndSplineSet
EndChar

StartChar: grave
Encoding: 96 96 65
Width: 708
Flags: W
LayerCount: 2
Fore
SplineSet
581.16015625 1332 m 128,-1,1
 590.16015625 1324 590.16015625 1324 590.16015625 1308 c 128,-1,2
 590.16015625 1292 590.16015625 1292 553.09765625 1292 c 128,-1,3
 516.03515625 1292 516.03515625 1292 348.59765625 1362.5 c 128,-1,4
 181.16015625 1433 181.16015625 1433 175.16015625 1438 c 1,5,6
 108.16015625 1475.22265625 108.16015625 1475.22265625 108.16015625 1540.13867188 c 128,-1,7
 108.16015625 1605.05566406 108.16015625 1605.05566406 164.16015625 1631.5 c 0,8,9
 182.16015625 1640 182.16015625 1640 209.795898438 1640 c 128,-1,10
 237.432617188 1640 237.432617188 1640 264.795898438 1623.5 c 128,-1,11
 292.16015625 1607 292.16015625 1607 323.16015625 1581 c 128,-1,12
 354.16015625 1555 354.16015625 1555 387.66015625 1523.5 c 128,-1,13
 421.16015625 1492 421.16015625 1492 454.16015625 1459.5 c 128,-1,14
 487.16015625 1427 487.16015625 1427 513.16015625 1400.5 c 128,-1,15
 539.16015625 1374 539.16015625 1374 555.66015625 1357 c 128,-1,0
 572.16015625 1340 572.16015625 1340 581.16015625 1332 c 128,-1,1
EndSplineSet
EndChar

StartChar: a
Encoding: 97 97 66
Width: 1163
Flags: W
LayerCount: 2
Fore
SplineSet
176 895 m 0,0,1
 176 1025 176 1025 274.740234375 1074 c 128,-1,2
 373.48046875 1123 373.48046875 1123 583.560546875 1123 c 128,-1,3
 793.640625 1123 793.640625 1123 896.860351562 1058.5 c 128,-1,4
 1000.08007812 994 1000.08007812 994 1000.08007812 816 c 2,5,-1
 1000.08007812 0 l 1,6,-1
 852.080078125 0 l 1,7,-1
 815.080078125 186 l 1,8,9
 771.80078125 7 771.80078125 7 567.959960938 -17 c 0,10,11
 507.640625 -24 507.640625 -24 382.8203125 -24 c 128,-1,12
 258 -24 258 -24 194 35.5 c 128,-1,13
 130 95 130 95 130 249.5 c 128,-1,14
 130 404 130 404 160.5 443.5 c 0,15,16
 190 483 190 483 234 504 c 0,17,18
 346.440429688 558 346.440429688 558 805.080078125 578 c 1,19,-1
 805.080078125 841 l 2,20,21
 805.080078125 940 805.080078125 940 758.80078125 961.5 c 128,-1,22
 712.520507812 983 712.520507812 983 569.520507812 983 c 128,-1,23
 426.520507812 983 426.520507812 983 387.520507812 965 c 128,-1,24
 348.520507812 947 348.520507812 947 348.520507812 884 c 128,-1,25
 348.520507812 821 348.520507812 821 352.680664062 771 c 1,26,-1
 188 771 l 1,27,28
 176 828 176 828 176 895 c 0,0,1
337.080078125 136 m 128,-1,30
 365.16015625 107 365.16015625 107 475.400390625 107 c 0,31,32
 678.200195312 107 678.200195312 107 742.140625 174 c 128,-1,33
 806.080078125 241 806.080078125 241 806.080078125 453 c 2,34,-1
 806.080078125 469 l 1,35,36
 462.919921875 455 462.919921875 455 402.600585938 431.5 c 128,-1,37
 342.280273438 408 342.280273438 408 325.640625 384.5 c 128,-1,38
 309 361 309 361 309 263 c 128,-1,29
 309 165 309 165 337.080078125 136 c 128,-1,30
EndSplineSet
EndChar

StartChar: b
Encoding: 98 98 67
Width: 1248
Flags: W
LayerCount: 2
Fore
SplineSet
383 768 m 2,0,-1
 383 325 l 2,1,2
 383 215 383 215 392.879882812 177 c 128,-1,3
 402.759765625 139 402.759765625 139 446.439453125 127.5 c 128,-1,4
 490.120117188 116 490.120117188 116 631.559570312 116 c 128,-1,5
 773 116 773 116 825 125.5 c 128,-1,6
 877 135 877 135 890.51953125 172 c 128,-1,7
 904.040039062 209 904.040039062 209 904.040039062 325 c 2,8,-1
 904.040039062 768 l 2,9,10
 904.040039062 887 904.040039062 887 892.599609375 925 c 128,-1,11
 881.159179688 963 881.159179688 963 838.51953125 973 c 128,-1,12
 795.879882812 983 795.879882812 983 653.399414062 983 c 128,-1,13
 510.919921875 983 510.919921875 983 458.919921875 972.5 c 128,-1,14
 406.919921875 962 406.919921875 962 394.959960938 924.5 c 128,-1,15
 383 887 383 887 383 768 c 2,0,-1
752.19921875 -24 m 0,16,17
 446.439453125 -24 446.439453125 -24 384.040039062 98 c 1,18,-1
 362 0 l 5,19,-1
 188 0 l 5,20,-1
 188 1532 l 1,21,-1
 383 1532 l 1,22,-1
 383 1014 l 1,23,24
 393.399414062 1074 393.399414062 1074 543.159179688 1108 c 0,25,26
 608.6796875 1123 608.6796875 1123 718.919921875 1123 c 0,27,28
 936.040039062 1123 936.040039062 1123 1017.54003906 1040.5 c 128,-1,29
 1099.04003906 958 1099.04003906 958 1099.04003906 777 c 2,30,-1
 1099.04003906 370 l 2,31,32
 1099.04003906 155 1099.04003906 155 1029.04003906 65.5 c 128,-1,33
 959.040039062 -24 959.040039062 -24 752.19921875 -24 c 0,16,17
EndSplineSet
EndChar

StartChar: c
Encoding: 99 99 68
Width: 1180
Flags: W
LayerCount: 2
Fore
SplineSet
1031.25195312 851 m 4,0,1
 1031.25195312 787 1031.25195312 787 1027.25195312 743 c 5,2,-1
 1027.25195312 739 l 5,3,-1
 839.251953125 739 l 5,4,-1
 839.251953125 769 l 6,5,6
 839.251953125 888 839.251953125 888 828.33203125 926.5 c 132,-1,7
 817.412109375 965 817.412109375 965 776.33203125 974 c 132,-1,8
 735.251953125 983 735.251953125 983 595.372070312 983 c 132,-1,9
 455.4921875 983 455.4921875 983 408.692382812 973.5 c 132,-1,10
 361.891601562 964 361.891601562 964 350.452148438 926.5 c 132,-1,11
 339.01171875 889 339.01171875 889 339.01171875 769 c 6,12,-1
 339.01171875 326 l 6,13,14
 339.01171875 208 339.01171875 208 350.452148438 171.5 c 132,-1,15
 361.891601562 135 361.891601562 135 408.692382812 125.5 c 132,-1,16
 455.4921875 116 455.4921875 116 573.532226562 116 c 132,-1,17
 691.572265625 116 691.572265625 116 739.412109375 119.5 c 4,18,19
 786.211914062 123 786.211914062 123 809.091796875 143 c 4,20,21
 838.211914062 169 838.211914062 169 839.251953125 326 c 6,22,-1
 839.251953125 354 l 5,23,-1
 1027.25195312 354 l 5,24,25
 1029.25195312 335 1029.25195312 335 1029.25195312 320 c 6,26,-1
 1029.25195312 288 l 6,27,28
 1029.25195312 106 1029.25195312 106 941.251953125 41 c 132,-1,29
 853.251953125 -24 853.251953125 -24 585.4921875 -24 c 4,30,31
 317.01171875 -24 317.01171875 -24 227.01171875 57 c 4,32,33
 143.01171875 131 143.01171875 131 144.01171875 342 c 6,34,-1
 144.01171875 767 l 6,35,36
 144.01171875 973 144.01171875 973 232.01171875 1048 c 132,-1,37
 320.01171875 1123 320.01171875 1123 583.131835938 1123 c 132,-1,38
 846.251953125 1123 846.251953125 1123 938.751953125 1061 c 132,-1,39
 1031.25195312 999 1031.25195312 999 1031.25195312 851 c 4,0,1
EndSplineSet
EndChar

StartChar: d
Encoding: 100 100 69
Width: 1228
Flags: W
LayerCount: 2
Fore
SplineSet
334 768 m 2,0,-1
 334 325 l 2,1,2
 334 168 334 168 368.83984375 142 c 128,-1,3
 403.6796875 116 403.6796875 116 569.559570312 116 c 128,-1,4
 735.439453125 116 735.439453125 116 779.120117188 127.5 c 128,-1,5
 822.799804688 139 822.799804688 139 832.6796875 177 c 128,-1,6
 842.559570312 215 842.559570312 215 842.559570312 325 c 2,7,-1
 842.559570312 768 l 2,8,9
 842.559570312 928 842.559570312 928 817.599609375 948 c 128,-1,10
 792.639648438 968 792.639648438 968 755.719726562 975.5 c 128,-1,11
 718.799804688 983 718.799804688 983 578.919921875 983 c 128,-1,12
 439.040039062 983 439.040039062 983 397.439453125 973 c 128,-1,13
 355.83984375 963 355.83984375 963 344.919921875 924.5 c 128,-1,14
 334 886 334 886 334 768 c 2,0,-1
496.240234375 1123 m 0,15,16
 785.360351562 1123 785.360351562 1123 842.559570312 1015 c 1,17,-1
 842.559570312 1532 l 1,18,-1
 1039.55957031 1532 l 1,19,-1
 1039.55957031 0 l 5,20,-1
 863.559570312 0 l 5,21,-1
 841.51953125 98 l 1,22,23
 808.240234375 -24 808.240234375 -24 478.559570312 -24 c 1,24,25
 280 -24 280 -24 209.5 65.5 c 128,-1,26
 139 155 139 155 139 370 c 2,27,-1
 139 777 l 2,28,29
 139 953 139 953 220 1038 c 128,-1,30
 301 1123 301 1123 496.240234375 1123 c 0,15,16
EndSplineSet
EndChar

StartChar: e
Encoding: 101 101 70
Width: 1193
Flags: W
LayerCount: 2
Fore
SplineSet
1032.12011719 224 m 4,0,1
 1032.12011719 95 1032.12011719 95 945.120117188 37 c 4,2,3
 852.759765625 -24 852.759765625 -24 630.200195312 -24 c 132,-1,4
 407.639648438 -24 407.639648438 -24 333.819335938 1.5 c 132,-1,5
 260 27 260 27 228 55 c 4,6,7
 144 129 144 129 144 342 c 6,8,-1
 144 767 l 6,9,10
 144 973 144 973 232 1048 c 132,-1,11
 320 1123 320 1123 596.559570312 1123 c 132,-1,12
 873.120117188 1123 873.120117188 1123 959.120117188 1048.5 c 132,-1,13
 1045.12011719 974 1045.12011719 974 1045.12011719 767 c 6,14,-1
 1045.12011719 555 l 5,15,-1
 339 555 l 5,16,-1
 339 326 l 6,17,18
 339 208 339 208 350.439453125 171.5 c 132,-1,19
 361.879882812 135 361.879882812 135 408.6796875 125.5 c 132,-1,20
 455.479492188 116 455.479492188 116 608.359375 116 c 132,-1,21
 761.240234375 116 761.240234375 116 810.120117188 130 c 5,22,23
 862.120117188 153 862.120117188 153 862.120117188 258 c 4,24,25
 862.120117188 332 862.120117188 332 860.040039062 347 c 5,26,-1
 1028.12011719 347 l 5,27,28
 1032.12011719 231 1032.12011719 231 1032.12011719 224 c 4,0,1
339 648 m 5,29,-1
 848.599609375 648 l 5,30,-1
 848.599609375 769 l 6,31,32
 848.599609375 888 848.599609375 888 837.6796875 926 c 132,-1,33
 826.759765625 964 826.759765625 964 783.080078125 973.5 c 132,-1,34
 739.399414062 983 739.399414062 983 597.439453125 983 c 132,-1,35
 455.479492188 983 455.479492188 983 408.6796875 973.5 c 132,-1,36
 361.879882812 964 361.879882812 964 350.439453125 926.5 c 132,-1,37
 339 889 339 889 339 769 c 6,38,-1
 339 648 l 5,29,-1
EndSplineSet
EndChar

StartChar: f
Encoding: 102 102 71
Width: 758
Flags: W
LayerCount: 2
Fore
SplineSet
451 1519 m 128,-1,1
 520 1519 520 1519 628 1501 c 1,2,-1
 628 1365 l 1,3,-1
 428 1365 l 1,4,-1
 428 1101 l 5,5,-1
 624 1101 l 5,6,-1
 624 994 l 1,7,-1
 428 994 l 1,8,-1
 428 0 l 1,9,-1
 232 0 l 1,10,-1
 232 994 l 1,11,-1
 104 994 l 1,12,-1
 104 1101 l 5,13,-1
 232 1101 l 5,14,-1
 232 1228 l 2,15,16
 232 1379 232 1379 261 1427.5 c 128,-1,17
 290 1476 290 1476 336 1497.5 c 128,-1,0
 382 1519 382 1519 451 1519 c 128,-1,1
EndSplineSet
EndChar

StartChar: g
Encoding: 103 103 72
Width: 1210
Flags: W
LayerCount: 2
Fore
SplineSet
609.439453125 116 m 132,-1,1
 725.919921875 116 725.919921875 116 771.6796875 125.5 c 132,-1,2
 817.439453125 135 817.439453125 135 828.879882812 170 c 132,-1,3
 840.3203125 205 840.3203125 205 840.3203125 317 c 6,4,-1
 840.3203125 782 l 6,5,6
 840.3203125 925 840.3203125 925 816.399414062 949 c 132,-1,7
 792.479492188 973 792.479492188 973 748.280273438 978 c 132,-1,8
 704.080078125 983 704.080078125 983 585 983 c 132,-1,9
 465.919921875 983 465.919921875 983 415.479492188 974 c 132,-1,10
 365.040039062 965 365.040039062 965 351.51953125 929 c 132,-1,11
 338 893 338 893 338 782 c 6,12,-1
 338 339 l 6,13,14
 338 172 338 172 365.559570312 147.5 c 132,-1,15
 393.120117188 123 393.120117188 123 443.040039062 119.5 c 132,-1,0
 492.959960938 116 492.959960938 116 609.439453125 116 c 132,-1,1
586.040039062 -221 m 132,-1,17
 780 -221 780 -221 806.51953125 -206.5 c 132,-1,18
 833.040039062 -192 833.040039062 -192 836.16015625 -171 c 132,-1,19
 839.280273438 -150 839.280273438 -150 839.280273438 -113 c 6,20,-1
 838.240234375 72 l 5,21,22
 812.240234375 -24 812.240234375 -24 560.120117188 -24 c 132,-1,23
 308 -24 308 -24 225.5 59 c 132,-1,24
 143 142 143 142 143 330 c 6,25,-1
 143 738 l 6,26,27
 143 947 143 947 212.5 1035 c 132,-1,28
 282 1123 282 1123 483.599609375 1123 c 4,29,30
 780 1123 780 1123 839.280273438 1010 c 5,31,-1
 861.3203125 1100 l 5,32,-1
 1036.3203125 1100 l 5,33,-1
 1036.3203125 15 l 6,34,35
 1036.3203125 -197 1036.3203125 -197 940.3203125 -281 c 132,-1,36
 844.3203125 -365 844.3203125 -365 610.919921875 -365 c 132,-1,37
 377.51953125 -365 377.51953125 -365 248 -313 c 5,38,-1
 275 -180 l 5,39,16
 392.080078125 -221 392.080078125 -221 586.040039062 -221 c 132,-1,17
EndSplineSet
EndChar

StartChar: h
Encoding: 104 104 73
Width: 1227
Flags: W
LayerCount: 2
Fore
SplineSet
615.439453125 984 m 128,-1,1
 501.559570312 984 501.559570312 984 453.719726562 972 c 128,-1,2
 405.879882812 960 405.879882812 960 394.439453125 914.5 c 128,-1,3
 383 869 383 869 383 723 c 2,4,-1
 383 0 l 1,5,-1
 188 0 l 1,6,-1
 188 1493 l 1,7,-1
 383 1493 l 1,8,-1
 383 1011 l 1,9,10
 453.719726562 1132 453.719726562 1132 685.719726562 1132 c 128,-1,11
 917.719726562 1132 917.719726562 1132 992.219726562 1045 c 128,-1,12
 1066.71972656 958 1066.71972656 958 1066.71972656 750 c 2,13,-1
 1066.71972656 0 l 1,14,-1
 869.719726562 0 l 1,15,-1
 869.719726562 742 l 2,16,17
 869.719726562 923 869.719726562 923 845.279296875 949.5 c 128,-1,18
 820.83984375 976 820.83984375 976 775.080078125 980 c 128,-1,0
 729.319335938 984 729.319335938 984 615.439453125 984 c 128,-1,1
EndSplineSet
EndChar

StartChar: i
Encoding: 105 105 74
Width: 574
Flags: W
LayerCount: 2
Fore
SplineSet
190 1101 m 1,0,-1
 386 1101 l 1,1,-1
 386 0 l 1,2,-1
 190 0 l 1,3,-1
 190 1101 l 1,0,-1
190 1338 m 1,4,-1
 190 1511 l 1,5,-1
 386 1511 l 1,6,-1
 386 1338 l 1,7,-1
 190 1338 l 1,4,-1
388 1511 m 1,8,-1
 386 1511 l 1,9,-1
 386 1515 l 1,10,-1
 388 1519 l 1,11,-1
 388 1511 l 1,8,-1
EndSplineSet
EndChar

StartChar: j
Encoding: 106 106 75
Width: 554
Flags: W
LayerCount: 2
Fore
SplineSet
364 -51 m 2,0,1
 364 -243 364 -243 239 -286 c 0,2,3
 195 -301 195 -301 137 -300.5 c 128,-1,4
 79 -300 79 -300 4 -287 c 1,5,-1
 1 -158 l 1,6,-1
 170 -158 l 1,7,-1
 170 1101 l 1,8,-1
 364 1101 l 1,9,-1
 364 -51 l 2,0,1
366 1338 m 1,10,-1
 170 1338 l 1,11,-1
 170 1511 l 1,12,-1
 366 1511 l 1,13,-1
 366 1338 l 1,10,-1
EndSplineSet
EndChar

StartChar: k
Encoding: 107 107 76
Width: 1155
Flags: W
LayerCount: 2
Fore
SplineSet
383 0 m 1,0,-1
 188 0 l 1,1,-1
 188 1493 l 1,2,-1
 383 1493 l 1,3,-1
 383 632 l 1,4,-1
 830.19921875 1101 l 1,5,-1
 1050.71972656 1101 l 1,6,-1
 615.959960938 651 l 1,7,-1
 615.959960938 646 l 1,8,-1
 1084.71972656 0 l 1,9,-1
 869.719726562 0 l 1,10,-1
 473.479492188 547 l 1,11,-1
 473.479492188 548 l 1,12,-1
 383 464 l 1,13,-1
 383 0 l 1,0,-1
EndSplineSet
EndChar

StartChar: l
Encoding: 108 108 77
Width: 572
Flags: W
LayerCount: 2
Fore
SplineSet
384 0 m 1,0,-1
 188 0 l 1,1,-1
 188 1493 l 1,2,-1
 384 1493 l 1,3,-1
 384 0 l 1,0,-1
EndSplineSet
EndChar

StartChar: m
Encoding: 109 109 78
Width: 1792
Flags: W
LayerCount: 2
Fore
SplineSet
634.279296875 1124 m 0,0,1
 887.919921875 1124 887.919921875 1124 957.919921875 997 c 1,2,3
 1026.75976562 1124 1026.75976562 1124 1252.58007812 1124 c 128,-1,4
 1478.39941406 1124 1478.39941406 1124 1553.89941406 1044 c 128,-1,5
 1629.39941406 964 1629.39941406 964 1629.39941406 771 c 2,6,-1
 1629.39941406 0 l 1,7,-1
 1433.39941406 0 l 1,8,-1
 1433.39941406 758 l 2,9,10
 1433.39941406 920 1433.39941406 920 1414.6796875 946 c 0,11,12
 1388.6796875 984 1388.6796875 984 1257.63964844 984 c 2,13,-1
 1198.359375 984 l 2,14,15
 1053.79980469 984 1053.79980469 984 1031.95996094 957 c 0,16,17
 1004.91992188 922 1004.91992188 922 1004.91992188 747 c 2,18,-1
 1004.91992188 0 l 1,19,-1
 806.919921875 0 l 1,20,-1
 806.919921875 743 l 2,21,22
 806.919921875 924 806.919921875 924 786.120117188 950 c 128,-1,23
 765.319335938 976 765.319335938 976 725.799804688 980 c 128,-1,24
 686.279296875 984 686.279296875 984 581.239257812 984 c 128,-1,25
 476.19921875 984 476.19921875 984 432.51953125 973.5 c 128,-1,26
 388.83984375 963 388.83984375 963 377.919921875 920.5 c 128,-1,27
 367 878 367 878 367 743 c 2,28,-1
 367 0 l 1,29,-1
 172 0 l 1,30,-1
 172 1101 l 1,31,-1
 347 1101 l 1,32,-1
 369.080078125 1011 l 1,33,34
 412.759765625 1072 412.759765625 1072 493.359375 1098 c 128,-1,35
 573.959960938 1124 573.959960938 1124 634.279296875 1124 c 0,0,1
EndSplineSet
EndChar

StartChar: n
Encoding: 110 110 79
Width: 1206
Flags: W
LayerCount: 2
Fore
SplineSet
367 732 m 2,0,-1
 367 0 l 1,1,-1
 172 0 l 1,2,-1
 172 1101 l 1,3,-1
 347 1101 l 1,4,-1
 369.080078125 1014 l 1,5,6
 369.080078125 1036 369.080078125 1036 445 1080 c 128,-1,7
 520.919921875 1124 520.919921875 1124 705.6796875 1124 c 128,-1,8
 890.439453125 1124 890.439453125 1124 965.939453125 1040 c 128,-1,9
 1041.43945312 956 1041.43945312 956 1041.43945312 750 c 2,10,-1
 1041.43945312 0 l 1,11,-1
 846.439453125 0 l 1,12,-1
 846.439453125 752 l 2,13,14
 846.439453125 925 846.439453125 925 825.120117188 947 c 128,-1,15
 803.799804688 969 803.799804688 969 774.6796875 976.5 c 128,-1,16
 745.559570312 984 745.559570312 984 611.399414062 984 c 128,-1,17
 477.239257812 984 477.239257812 984 433.559570312 973 c 128,-1,18
 389.879882812 962 389.879882812 962 378.439453125 917.5 c 128,-1,19
 367 873 367 873 367 732 c 2,0,-1
EndSplineSet
EndChar

StartChar: o
Encoding: 111 111 80
Width: 1215
Flags: W
LayerCount: 2
Fore
SplineSet
144.01171875 767 m 2,0,1
 144.01171875 973 144.01171875 973 232.01171875 1048 c 128,-1,2
 320.01171875 1123 320.01171875 1123 602.65234375 1123 c 128,-1,3
 885.291992188 1123 885.291992188 1123 977.291992188 1045 c 0,4,5
 1063.29199219 973 1063.29199219 973 1063.29199219 767 c 2,6,-1
 1063.29199219 342 l 2,7,8
 1063.29199219 130 1063.29199219 130 975.291992188 53 c 128,-1,9
 887.291992188 -24 887.291992188 -24 603.171875 -24 c 256,10,11
 319.01171875 -24 319.01171875 -24 227.01171875 56 c 0,12,13
 143.01171875 130 143.01171875 130 144.01171875 342 c 2,14,-1
 144.01171875 767 l 2,0,1
603.171875 983 m 256,15,16
 455.4921875 983 455.4921875 983 408.692382812 973.5 c 128,-1,17
 361.891601562 964 361.891601562 964 350.452148438 926.5 c 128,-1,18
 339.01171875 889 339.01171875 889 339.01171875 769 c 2,19,-1
 339.01171875 326 l 2,20,21
 339.01171875 208 339.01171875 208 350.452148438 171.5 c 128,-1,22
 361.891601562 135 361.891601562 135 408.692382812 125.5 c 128,-1,23
 455.4921875 116 455.4921875 116 602.65234375 116 c 128,-1,24
 749.8125 116 749.8125 116 796.612304688 125.5 c 128,-1,25
 843.412109375 135 843.412109375 135 854.8515625 171.5 c 128,-1,26
 866.291992188 208 866.291992188 208 866.291992188 326 c 2,27,-1
 866.291992188 769 l 2,28,29
 866.291992188 889 866.291992188 889 854.8515625 926.5 c 128,-1,30
 843.412109375 964 843.412109375 964 796.612304688 973.5 c 128,-1,31
 749.8125 983 749.8125 983 603.171875 983 c 256,15,16
EndSplineSet
EndChar

StartChar: p
Encoding: 112 112 81
Width: 1226
Flags: W
LayerCount: 2
Fore
SplineSet
876.599609375 340 m 2,0,-1
 876.599609375 782 l 2,1,2
 876.599609375 892 876.599609375 892 867.239257812 919 c 128,-1,3
 857.879882812 946 857.879882812 946 840.19921875 958 c 128,-1,4
 822.51953125 970 822.51953125 970 785.080078125 976.5 c 128,-1,5
 747.639648438 983 747.639648438 983 625.439453125 983 c 128,-1,6
 503.239257812 983 503.239257812 983 459.040039062 978 c 128,-1,7
 414.83984375 973 414.83984375 973 394.040039062 953 c 0,8,9
 367 926 367 926 367 782 c 2,10,-1
 367 340 l 2,11,12
 367 174 367 174 390.919921875 153 c 128,-1,13
 414.83984375 132 414.83984375 132 449.6796875 124 c 128,-1,14
 484.51953125 116 484.51953125 116 624.919921875 116 c 128,-1,15
 765.319335938 116 765.319335938 116 809.51953125 126 c 128,-1,16
 853.719726562 136 853.719726562 136 865.16015625 175.5 c 128,-1,17
 876.599609375 215 876.599609375 215 876.599609375 340 c 2,0,-1
713.319335938 -24 m 0,18,19
 422.120117188 -24 422.120117188 -24 367 93 c 1,20,-1
 367 -396 l 1,21,-1
 172 -396 l 1,22,-1
 172 1101 l 5,23,-1
 347 1101 l 5,24,-1
 368.040039062 1010 l 1,25,26
 368.040039062 1057 368.040039062 1057 512.599609375 1103 c 0,27,28
 576.040039062 1123 576.040039062 1123 753.319335938 1123 c 128,-1,29
 930.599609375 1123 930.599609375 1123 1002.09960938 1035 c 128,-1,30
 1073.59960938 947 1073.59960938 947 1073.59960938 738 c 2,31,-1
 1073.59960938 331 l 2,32,33
 1073.59960938 149 1073.59960938 149 992.099609375 62.5 c 128,-1,34
 910.599609375 -24 910.599609375 -24 713.319335938 -24 c 0,18,19
EndSplineSet
EndChar

StartChar: q
Encoding: 113 113 82
Width: 1217
Flags: W
LayerCount: 2
Fore
SplineSet
846.599609375 340 m 2,0,-1
 846.599609375 782 l 2,1,2
 846.599609375 925 846.599609375 925 822.6796875 949 c 128,-1,3
 798.759765625 973 798.759765625 973 754.559570312 978 c 128,-1,4
 710.359375 983 710.359375 983 588.16015625 983 c 128,-1,5
 465.959960938 983 465.959960938 983 413.959960938 973.5 c 128,-1,6
 361.959960938 964 361.959960938 964 349.479492188 928.5 c 128,-1,7
 337 893 337 893 337 782 c 2,8,-1
 337 340 l 2,9,10
 337 172 337 172 360.399414062 151.5 c 128,-1,11
 383.799804688 131 383.799804688 131 416.040039062 123.5 c 128,-1,12
 448.280273438 116 448.280273438 116 588.6796875 116 c 128,-1,13
 729.080078125 116 729.080078125 116 776.399414062 127 c 128,-1,14
 823.719726562 138 823.719726562 138 835.16015625 177.5 c 128,-1,15
 846.599609375 217 846.599609375 217 846.599609375 340 c 2,0,-1
502.359375 -24 m 0,16,17
 304 -24 304 -24 223 62 c 128,-1,18
 142 148 142 148 142 331 c 2,19,-1
 142 738 l 2,20,21
 142 946 142 946 212 1034.5 c 128,-1,22
 282 1123 282 1123 472.200195312 1123 c 0,23,24
 789.399414062 1123 789.399414062 1123 845.559570312 1010 c 1,25,-1
 866.599609375 1101 l 5,26,-1
 1040.59960938 1101 l 5,27,-1
 1040.59960938 -396 l 1,28,-1
 846.599609375 -396 l 1,29,-1
 846.599609375 93 l 1,30,31
 814.359375 -24 814.359375 -24 502.359375 -24 c 0,16,17
EndSplineSet
EndChar

StartChar: r
Encoding: 114 114 83
Width: 746
Flags: W
LayerCount: 2
Fore
SplineSet
522 961 m 0,0,1
 366 961 366 961 367 806 c 2,2,-1
 367 0 l 1,3,-1
 172 0 l 1,4,-1
 172 1101 l 1,5,-1
 329 1101 l 1,6,-1
 351 966 l 1,7,8
 420 1124 420 1124 636 1124 c 1,9,-1
 636 961 l 1,10,11
 579 961 579 961 522 961 c 0,0,1
EndSplineSet
EndChar

StartChar: s
Encoding: 115 115 84
Width: 1117
Flags: W
LayerCount: 2
Fore
SplineSet
604.240234375 103 m 132,-1,1
 724.360351562 103 724.360351562 103 764.919921875 136 c 132,-1,2
 805.479492188 169 805.479492188 169 805.479492188 292 c 132,-1,3
 805.479492188 415 805.479492188 415 785.719726562 448.5 c 132,-1,4
 765.959960938 482 765.959960938 482 706.6796875 489 c 6,5,-1
 425.879882812 517 l 6,6,7
 269 533 269 533 208.5 593.5 c 132,-1,8
 148 654 148 654 146.5 828 c 132,-1,9
 145 1002 145 1002 234.5 1062.5 c 132,-1,10
 324 1123 324 1123 534.580078125 1123 c 132,-1,11
 745.16015625 1123 745.16015625 1123 809.8203125 1094 c 132,-1,12
 874.479492188 1065 874.479492188 1065 903.979492188 1019 c 132,-1,13
 933.479492188 973 933.479492188 973 933.479492188 913 c 132,-1,14
 933.479492188 853 933.479492188 853 925.479492188 803 c 5,15,-1
 763.879882812 804 l 5,16,-1
 763.879882812 850 l 6,17,18
 763.879882812 954 763.879882812 954 733.200195312 973 c 132,-1,19
 702.51953125 992 702.51953125 992 658.3203125 994.5 c 132,-1,20
 614.120117188 997 614.120117188 997 540.799804688 997 c 132,-1,21
 467.479492188 997 467.479492188 997 424.3203125 995 c 132,-1,22
 381.16015625 993 381.16015625 993 353.080078125 973.5 c 132,-1,23
 325 954 325 954 325 843 c 260,24,25
 325 727 325 727 345.799804688 696.5 c 132,-1,26
 366.599609375 666 366.599609375 666 447.719726562 656 c 5,27,-1
 724.360351562 632 l 5,28,29
 869.479492188 616 869.479492188 616 924.479492188 554.5 c 132,-1,30
 979.479492188 493 979.479492188 493 980.479492188 299 c 132,-1,31
 981.479492188 105 981.479492188 105 888.280273438 40.5 c 132,-1,32
 795.080078125 -24 795.080078125 -24 630.240234375 -24 c 4,33,34
 466.439453125 -24 466.439453125 -24 391.559570312 -17 c 4,35,36
 141 6 141 6 140 238 c 4,37,38
 140 284 140 284 148 327 c 5,39,-1
 313 327 l 5,40,-1
 312 274 l 5,41,42
 312 151 312 151 348.66015625 129.5 c 132,-1,43
 385.3203125 108 385.3203125 108 434.719726562 105.5 c 132,-1,0
 484.120117188 103 484.120117188 103 604.240234375 103 c 132,-1,1
EndSplineSet
EndChar

StartChar: t
Encoding: 116 116 85
Width: 764
Flags: W
LayerCount: 2
Fore
SplineSet
476 -24 m 0,0,1
 242 -24 242 -24 242 155 c 2,2,-1
 242 993 l 1,3,-1
 95 993 l 1,4,-1
 95 1101 l 5,5,-1
 242 1101 l 5,6,-1
 242 1404 l 1,7,-1
 438 1404 l 1,8,-1
 438 1101 l 5,9,-1
 629 1101 l 5,10,-1
 629 993 l 1,11,-1
 438 993 l 1,12,-1
 438 120 l 1,13,-1
 619 120 l 1,14,-1
 619 -16 l 1,15,16
 543 -24 543 -24 476 -24 c 0,0,1
EndSplineSet
EndChar

StartChar: u
Encoding: 117 117 86
Width: 1212
Flags: W
LayerCount: 2
Fore
SplineSet
841.719726562 376 m 2,0,-1
 841.719726562 1101 l 5,1,-1
 1038.71972656 1101 l 5,2,-1
 1038.71972656 0 l 1,3,-1
 867.719726562 0 l 1,4,-1
 841.719726562 95 l 1,5,6
 841.719726562 73 841.719726562 73 763.200195312 24.5 c 128,-1,7
 684.6796875 -24 684.6796875 -24 497.83984375 -24 c 128,-1,8
 311 -24 311 -24 235.5 62 c 128,-1,9
 160 148 160 148 160 359 c 2,10,-1
 160 1101 l 5,11,-1
 355 1101 l 5,12,-1
 355 357 l 2,13,14
 355 172 355 172 378.919921875 151 c 128,-1,15
 402.83984375 130 402.83984375 130 433 123 c 128,-1,16
 463.16015625 116 463.16015625 116 600.959960938 116 c 128,-1,17
 738.759765625 116 738.759765625 116 780.360351562 129.5 c 128,-1,18
 821.959960938 143 821.959960938 143 831.83984375 189 c 128,-1,19
 841.719726562 235 841.719726562 235 841.719726562 376 c 2,0,-1
EndSplineSet
EndChar

StartChar: v
Encoding: 118 118 87
Width: 1096
Flags: W
LayerCount: 2
Fore
SplineSet
997.580078125 1101 m 1,0,-1
 658.049804688 0 l 1,1,-1
 452.049804688 0 l 1,2,-1
 75 1101 l 1,3,-1
 264 1101 l 1,4,-1
 553.049804688 202 l 1,5,-1
 797.580078125 1101 l 1,6,-1
 997.580078125 1101 l 1,0,-1
EndSplineSet
EndChar

StartChar: w
Encoding: 119 119 88
Width: 1644
Flags: W
LayerCount: 2
Fore
SplineSet
1150.40039062 219 m 1,0,-1
 1343.40039062 1101 l 1,1,-1
 1537.40039062 1101 l 1,2,-1
 1264.40039062 0 l 1,3,-1
 1058.40039062 0 l 1,4,-1
 811.919921875 845 l 1,5,-1
 580 0 l 1,6,-1
 375 0 l 1,7,-1
 88 1101 l 1,8,-1
 282 1101 l 1,9,-1
 473 219 l 1,10,-1
 719.360351562 1101 l 1,11,-1
 908.639648438 1101 l 1,12,-1
 1150.40039062 219 l 1,0,-1
EndSplineSet
EndChar

StartChar: x
Encoding: 120 120 89
Width: 1117
Flags: W
LayerCount: 2
Fore
SplineSet
557.6796875 404 m 1,0,-1
 306 0 l 1,1,-1
 106 0 l 1,2,-1
 450.560546875 553 l 1,3,-1
 450.560546875 557 l 1,4,-1
 111 1101 l 1,5,-1
 311.200195312 1101 l 1,6,-1
 556.640625 694 l 1,7,-1
 804.16015625 1101 l 1,8,-1
 1001.3203125 1101 l 1,9,-1
 666.879882812 557 l 1,10,-1
 666.879882812 553 l 1,11,-1
 1008.3203125 0 l 1,12,-1
 808.3203125 0 l 1,13,-1
 557.6796875 404 l 1,0,-1
EndSplineSet
EndChar

StartChar: y
Encoding: 121 121 90
Width: 1109
Flags: W
LayerCount: 2
Fore
SplineSet
314.564453125 -213 m 128,-1,1
 371.12890625 -213 371.12890625 -213 393.489257812 -204.5 c 128,-1,2
 415.849609375 -196 415.849609375 -196 433.529296875 -168 c 128,-1,3
 451.208984375 -140 451.208984375 -140 484.489257812 4 c 1,4,-1
 484.489257812 6 l 1,5,6
 473.049804688 36 473.049804688 36 454.329101562 86 c 128,-1,7
 435.609375 136 435.609375 136 411.168945312 200 c 128,-1,8
 386.729492188 264 386.729492188 264 358.12890625 337.5 c 128,-1,9
 329.529296875 411 329.529296875 411 300.264648438 488 c 128,-1,10
 271 565 271 565 242 642.5 c 128,-1,11
 213 720 213 720 186 791 c 2,12,-1
 70 1101 l 1,13,-1
 264 1101 l 1,14,-1
 572.889648438 246 l 1,15,-1
 816.37890625 1101 l 1,16,-1
 1013.37890625 1101 l 1,17,-1
 660.249023438 0 l 1,18,19
 610.329101562 -184 610.329101562 -184 571.849609375 -240 c 0,20,21
 495.9296875 -351 495.9296875 -351 379.46484375 -350.5 c 128,-1,22
 263 -350 263 -350 147 -323 c 1,23,-1
 173 -192 l 1,24,0
 258 -213 258 -213 314.564453125 -213 c 128,-1,1
EndSplineSet
EndChar

StartChar: z
Encoding: 122 122 91
Width: 963
Flags: W
LayerCount: 2
Fore
SplineSet
811.579101562 1101 m 1,0,-1
 811.579101562 969 l 1,1,-1
 329 132 l 1,2,-1
 329 127 l 1,3,-1
 808.579101562 127 l 1,4,-1
 808.579101562 0 l 1,5,-1
 123 0 l 1,6,-1
 123 136 l 1,7,-1
 618.579101562 965 l 1,8,-1
 618.579101562 971 l 1,9,-1
 159 971 l 1,10,-1
 159 1101 l 1,11,-1
 811.579101562 1101 l 1,0,-1
EndSplineSet
EndChar

StartChar: braceleft
Encoding: 123 123 92
Width: 661
Flags: W
LayerCount: 2
Fore
SplineSet
670.83984375 -172 m 1,0,1
 393.307617188 -172 393.307617188 -172 298.83984375 8.5 c 0,2,3
 247.498046875 106.600585938 247.498046875 106.600585938 237.168945312 208.299804688 c 128,-1,4
 226.83984375 310 226.83984375 310 218.845703125 416.586914062 c 128,-1,5
 210.8515625 523.173828125 210.8515625 523.173828125 191.33984375 577 c 0,6,7
 159.802734375 664 159.802734375 664 73.83984375 664 c 1,8,-1
 73.83984375 858 l 1,9,10
 181.662109375 858 181.662109375 858 210.33984375 1038.5 c 0,11,12
 218.83984375 1092 218.83984375 1092 231.951171875 1204.38085938 c 128,-1,13
 245.0625 1316.76171875 245.0625 1316.76171875 276.901367188 1425.92382812 c 128,-1,14
 308.740234375 1535.0859375 308.740234375 1535.0859375 401.108398438 1614.54296875 c 128,-1,15
 493.477539062 1694 493.477539062 1694 669.83984375 1694 c 1,16,-1
 669.83984375 1530 l 1,17,18
 470.9296875 1530 470.9296875 1530 431.33984375 1320 c 0,19,20
 413.828125 1227.11230469 413.828125 1227.11230469 410.333984375 1110.05664062 c 128,-1,21
 406.83984375 993 406.83984375 993 393.022460938 897.091796875 c 128,-1,22
 379.205078125 801.182617188 379.205078125 801.182617188 311.83984375 758 c 1,23,24
 401.60546875 707.36328125 401.60546875 707.36328125 407.734375 502.03125 c 0,25,26
 417.125976562 187.415039062 417.125976562 187.415039062 473.693359375 89.70703125 c 128,-1,27
 530.260742188 -8 530.260742188 -8 670.83984375 -8 c 1,28,-1
 670.83984375 -172 l 1,0,1
EndSplineSet
EndChar

StartChar: bar
Encoding: 124 124 93
Width: 544
Flags: W
LayerCount: 2
Fore
SplineSet
364.280273438 1716 m 1,0,-1
 364.280273438 -98 l 1,1,-1
 189.280273438 -98 l 1,2,-1
 189.280273438 1716 l 1,3,-1
 364.280273438 1716 l 1,0,-1
EndSplineSet
EndChar

StartChar: braceright
Encoding: 125 125 94
Width: 663
Flags: W
LayerCount: 2
Fore
SplineSet
3.080078125 1530 m 1,0,-1
 3.080078125 1694 l 1,1,2
 309.000976562 1694 309.000976562 1694 393.080078125 1429.5 c 0,3,4
 429.78515625 1314.03125 429.78515625 1314.03125 443.932617188 1180.515625 c 128,-1,5
 458.080078125 1047 458.080078125 1047 473.080078125 988.5 c 0,6,7
 506.541992188 858 506.541992188 858 599.080078125 858 c 1,8,-1
 599.080078125 664 l 1,9,10
 480.323242188 664 480.323242188 664 460.080078125 483.5 c 0,11,12
 454.080078125 430 454.080078125 430 445.270507812 312.545898438 c 128,-1,13
 436.461914062 195.090820312 436.461914062 195.090820312 409.2890625 89.9052734375 c 128,-1,14
 382.116210938 -15.279296875 382.116210938 -15.279296875 287.104492188 -93.6396484375 c 128,-1,15
 192.092773438 -172 192.092773438 -172 2.080078125 -172 c 1,16,-1
 2.080078125 -8 l 1,17,18
 201.612304688 -8 201.612304688 -8 241.580078125 204 c 0,19,20
 259.055664062 296.69921875 259.055664062 296.69921875 262.568359375 414.349609375 c 128,-1,21
 266.080078125 532 266.080078125 532 279.8515625 625.973632812 c 128,-1,22
 293.624023438 719.948242188 293.624023438 719.948242188 361.080078125 758 c 1,23,24
 271.37890625 815.500976562 271.37890625 815.500976562 265.260742188 1020.43847656 c 0,25,26
 255.743164062 1339.29785156 255.743164062 1339.29785156 199.352539062 1434.6484375 c 128,-1,27
 142.961914062 1530 142.961914062 1530 3.080078125 1530 c 1,0,-1
EndSplineSet
EndChar

StartChar: asciitilde
Encoding: 126 126 95
Width: 1028
Flags: W
LayerCount: 2
Fore
SplineSet
905.21875 1055.5 m 128,-1,1
 916.21875 1065 916.21875 1065 927.71875 1065 c 128,-1,2
 939.21875 1065 939.21875 1065 939.21875 1043.25 c 128,-1,3
 939.21875 1021.5 939.21875 1021.5 906.21875 980.25 c 0,4,5
 793.21875 839 793.21875 839 669.290039062 839 c 0,6,7
 609.259765625 839 609.259765625 839 509.274414062 878 c 128,-1,8
 409.290039062 917 409.290039062 917 356.28515625 934.5 c 128,-1,9
 303.280273438 952 303.280273438 952 265.280273438 952 c 128,-1,10
 227.280273438 952 227.280273438 952 205.780273438 943 c 128,-1,11
 184.280273438 934 184.280273438 934 169.280273438 923 c 128,-1,12
 154.280273438 912 154.280273438 912 144.280273438 903 c 128,-1,13
 134.280273438 894 134.280273438 894 122.780273438 894 c 128,-1,14
 111.280273438 894 111.280273438 894 111.280273438 915.81640625 c 128,-1,15
 111.280273438 937.6328125 111.280273438 937.6328125 145.280273438 984.81640625 c 0,16,17
 242.69140625 1120 242.69140625 1120 367.689453125 1120 c 0,18,19
 439.543945312 1120 439.543945312 1120 549.216796875 1080 c 128,-1,20
 658.889648438 1040 658.889648438 1040 711.5546875 1022 c 128,-1,21
 764.21875 1004 764.21875 1004 794.21875 1004 c 128,-1,22
 824.21875 1004 824.21875 1004 844.21875 1013.5 c 128,-1,23
 864.21875 1023 864.21875 1023 879.21875 1034.5 c 128,-1,0
 894.21875 1046 894.21875 1046 905.21875 1055.5 c 128,-1,1
EndSplineSet
EndChar

StartChar: exclamdown
Encoding: 161 161 96
Width: 542
Flags: W
LayerCount: 2
Fore
SplineSet
163.879882812 112 m 0,0,1
 163.879882812 340.400390625 163.879882812 340.400390625 203.346679688 650.870117188 c 128,-1,2
 242.813476562 961.340820312 242.813476562 961.340820312 252.346679688 976.169921875 c 128,-1,3
 261.879882812 991 261.879882812 991 278.951171875 991 c 128,-1,4
 296.022460938 991 296.022460938 991 304.920898438 950.474609375 c 128,-1,5
 313.819335938 909.94921875 313.819335938 909.94921875 347.349609375 643.680664062 c 128,-1,6
 380.879882812 377.412109375 380.879882812 377.412109375 380.879882812 237.706054688 c 128,-1,7
 380.879882812 98 380.879882812 98 374.879882812 57.5 c 128,-1,8
 368.879882812 17 368.879882812 17 354.810546875 -10.5 c 128,-1,9
 340.740234375 -38 340.740234375 -38 293.879882812 -38 c 0,10,11
 163.879882812 -38 163.879882812 -38 163.879882812 112 c 0,0,1
273.879882812 1556 m 256,12,13
 335.879882812 1556 335.879882812 1556 378.879882812 1513 c 128,-1,14
 421.879882812 1470 421.879882812 1470 421.879882812 1400 c 256,15,16
 421.879882812 1292.07421875 421.879882812 1292.07421875 330.879882812 1255 c 0,17,18
 303.879882812 1244 303.879882812 1244 273.879882812 1244 c 256,19,20
 212.319335938 1244 212.319335938 1244 169.599609375 1287.78710938 c 128,-1,21
 126.879882812 1331.57519531 126.879882812 1331.57519531 126.879882812 1400 c 256,22,23
 126.879882812 1506.16699219 126.879882812 1506.16699219 216.879882812 1544.5 c 0,24,25
 243.879882812 1556 243.879882812 1556 273.879882812 1556 c 256,12,13
EndSplineSet
EndChar

StartChar: cent
Encoding: 162 162 97
Width: 1081
Flags: W
LayerCount: 2
Fore
SplineSet
537.16015625 1505 m 1,0,-1
 610.16015625 1505 l 1,1,-1
 610.16015625 -72 l 1,2,-1
 537.16015625 -72 l 1,3,-1
 537.16015625 1505 l 1,0,-1
1011.20019531 1028 m 0,4,5
 1011.20019531 961 1011.20019531 961 1007.20019531 915 c 1,6,-1
 1007.20019531 911 l 1,7,-1
 819.200195312 911 l 1,8,-1
 819.200195312 942 l 2,9,10
 819.200195312 1066.30761719 819.200195312 1066.30761719 808.44140625 1106.09667969 c 128,-1,11
 797.681640625 1145.88574219 797.681640625 1145.88574219 756.267578125 1155.44238281 c 128,-1,12
 714.853515625 1165 714.853515625 1165 576.780273438 1165 c 128,-1,13
 438.70703125 1165 438.70703125 1165 391.766601562 1155.328125 c 128,-1,14
 344.826171875 1145.65625 344.826171875 1145.65625 333.353515625 1106.25683594 c 128,-1,15
 321.879882812 1066.85742188 321.879882812 1066.85742188 321.879882812 942 c 2,16,-1
 321.879882812 481 l 2,17,18
 321.879882812 357.857421875 321.879882812 357.857421875 333.493164062 319.571289062 c 128,-1,19
 345.106445312 281.286132812 345.106445312 281.286132812 391.90625 271.642578125 c 128,-1,20
 438.70703125 262 438.70703125 262 555.11328125 262 c 128,-1,21
 671.51953125 262 671.51953125 262 719.360351562 265.5 c 128,-1,22
 767.200195312 269 767.200195312 269 789.559570312 289.5 c 0,23,24
 819.200195312 316.674804688 819.200195312 316.674804688 819.200195312 481 c 2,25,-1
 819.200195312 510 l 1,26,-1
 1007.20019531 510 l 1,27,28
 1009.20019531 490 1009.20019531 490 1009.20019531 474 c 2,29,-1
 1009.20019531 441 l 2,30,31
 1009.20019531 251.604492188 1009.20019531 251.604492188 921.240234375 183.801757812 c 128,-1,32
 833.28125 116 833.28125 116 567.09765625 116 c 128,-1,33
 300.913085938 116 300.913085938 116 210.379882812 200 c 0,34,35
 126.879882812 277.474609375 126.879882812 277.474609375 126.879882812 497 c 2,36,-1
 126.879882812 940 l 2,37,38
 126.879882812 1154.92871094 126.879882812 1154.92871094 214.782226562 1232.96386719 c 128,-1,39
 302.684570312 1311 302.684570312 1311 564.2421875 1311 c 128,-1,40
 825.799804688 1311 825.799804688 1311 918.5 1246.75292969 c 128,-1,41
 1011.20019531 1182.50488281 1011.20019531 1182.50488281 1011.20019531 1028 c 0,4,5
EndSplineSet
EndChar

StartChar: sterling
Encoding: 163 163 98
Width: 1456
Flags: W
LayerCount: 2
Fore
SplineSet
525.919921875 0 m 2,0,1
 357.9921875 0 357.9921875 0 347.440429688 102 c 1,2,3
 336.888671875 0 336.888671875 0 115.440429688 0 c 1,4,-1
 115.440429688 222 l 1,5,6
 226.940429688 222 226.940429688 222 242.690429688 236 c 0,7,8
 263.440429688 254.444335938 263.440429688 254.444335938 263.440429688 348 c 2,9,-1
 263.440429688 724 l 1,10,-1
 117.440429688 724 l 1,11,-1
 117.440429688 882 l 1,12,-1
 263.440429688 882 l 1,13,-1
 264.440429688 1117 l 2,14,15
 264.440429688 1313.20019531 264.440429688 1313.20019531 310.842773438 1403.22167969 c 128,-1,16
 357.24609375 1493.24414062 357.24609375 1493.24414062 480.197265625 1525.12207031 c 128,-1,17
 603.147460938 1557 603.147460938 1557 817.513671875 1557 c 128,-1,18
 1031.87988281 1557 1031.87988281 1557 1125.53027344 1538.62304688 c 0,19,20
 1330.59960938 1497.1015625 1330.59960938 1497.1015625 1330.59960938 1240 c 2,21,-1
 1330.59960938 1046 l 1,22,-1
 1146.79980469 1046 l 1,23,-1
 1145.75976562 1179 l 1,24,25
 1143.3359375 1293.20117188 1143.3359375 1293.20117188 1130.82714844 1325.52734375 c 128,-1,26
 1118.31738281 1357.85351562 1118.31738281 1357.85351562 1063.97070312 1365.42675781 c 0,27,28
 1014.27050781 1372.35253906 1014.27050781 1372.35253906 846.76953125 1372.35253906 c 0,29,30
 831.110351562 1372.35253906 831.110351562 1372.35253906 814.421875 1372.29199219 c 0,31,32
 619.220703125 1371.58398438 619.220703125 1371.58398438 557.153320312 1360.73339844 c 128,-1,33
 495.086914062 1349.8828125 495.086914062 1349.8828125 478.263671875 1309.44140625 c 128,-1,34
 461.440429688 1269 461.440429688 1269 461.440429688 1146 c 2,35,-1
 460.440429688 881 l 1,36,-1
 1048 881 l 1,37,-1
 1048 723 l 1,38,-1
 461.440429688 723 l 1,39,-1
 461.440429688 345 l 2,40,41
 461.440429688 256.125 461.440429688 256.125 475.369140625 224.315429688 c 128,-1,42
 489.298828125 192.504882812 489.298828125 192.504882812 543.836914062 183.252929688 c 128,-1,43
 598.375 174 598.375 174 751.919921875 174 c 2,44,-1
 886.919921875 174 l 2,45,46
 1090.03320312 174 1090.03320312 174 1124.18359375 195.5 c 128,-1,47
 1158.33398438 217 1158.33398438 217 1162.96679688 251 c 128,-1,48
 1167.59960938 285 1167.59960938 285 1167.59960938 345 c 2,49,-1
 1167.59960938 510 l 1,50,-1
 1348.59960938 510 l 1,51,-1
 1348.59960938 344 l 2,52,53
 1348.59960938 147.247070312 1348.59960938 147.247070312 1277.73730469 73.623046875 c 128,-1,54
 1206.875 0 1206.875 0 986.919921875 0 c 2,55,-1
 525.919921875 0 l 2,0,1
EndSplineSet
EndChar

StartChar: currency
Encoding: 164 164 99
Width: 1157
Flags: W
LayerCount: 2
Fore
SplineSet
164.48046875 764 m 256,0,1
 164.48046875 984.4921875 164.48046875 984.4921875 280.919921875 1110 c 1,2,-1
 143.48046875 1281 l 1,3,-1
 206.48046875 1351 l 1,4,-1
 355.799804688 1170 l 1,5,6
 444.956054688 1239 444.956054688 1239 581.045898438 1239 c 128,-1,7
 717.134765625 1239 717.134765625 1239 805.080078125 1173 c 1,8,-1
 956.559570312 1350 l 1,9,-1
 1020.55957031 1280 l 1,10,-1
 883.080078125 1111 l 1,11,12
 1002.55957031 984.322265625 1002.55957031 984.322265625 1002.55957031 765.038085938 c 128,-1,13
 1002.55957031 545.75390625 1002.55957031 545.75390625 883.080078125 417 c 1,14,-1
 1021.55957031 247 l 1,15,-1
 957.559570312 178 l 1,16,-1
 808.200195312 357 l 1,17,18
 717.58984375 289 717.58984375 289 582.51953125 289 c 256,19,20
 443.916015625 289 443.916015625 289 354.759765625 358 c 1,21,-1
 205.48046875 178 l 1,22,-1
 142.48046875 247 l 1,23,-1
 280.919921875 417 l 1,24,25
 164.48046875 542.5078125 164.48046875 542.5078125 164.48046875 764 c 256,0,1
582.51953125 1138 m 256,26,27
 269.48046875 1138 269.48046875 1138 269.48046875 773 c 256,28,29
 269.48046875 495.771484375 269.48046875 495.771484375 439 430 c 0,30,31
 498.280273438 407 498.280273438 407 582.51953125 407 c 256,32,33
 895.559570312 407 895.559570312 407 895.559570312 772.5 c 0,34,35
 895.559570312 958.411132812 895.559570312 958.411132812 821.459960938 1048.20507812 c 128,-1,36
 747.360351562 1138 747.360351562 1138 582.51953125 1138 c 256,26,27
EndSplineSet
EndChar

StartChar: yen
Encoding: 165 165 100
Width: 1142
Flags: W
LayerCount: 2
Fore
SplineSet
676.9296875 293 m 1,0,-1
 676.9296875 0 l 1,1,-1
 477.9296875 0 l 1,2,-1
 477.9296875 293 l 1,3,-1
 156.040039062 293 l 1,4,-1
 156.040039062 394 l 1,5,-1
 477.9296875 394 l 1,6,-1
 477.9296875 510 l 1,7,-1
 449.849609375 572 l 1,8,-1
 156.040039062 572 l 1,9,-1
 156.040039062 672 l 1,10,-1
 406.169921875 672 l 1,11,-1
 53.0400390625 1499 l 1,12,-1
 268.040039062 1499 l 1,13,-1
 581.9296875 723 l 1,14,-1
 902.139648438 1499 l 1,15,-1
 1110.13964844 1499 l 1,16,-1
 749.729492188 672 l 1,17,-1
 989.139648438 672 l 1,18,-1
 989.139648438 572 l 1,19,-1
 705.009765625 572 l 1,20,-1
 676.9296875 510 l 1,21,-1
 676.9296875 394 l 1,22,-1
 989.139648438 394 l 1,23,-1
 989.139648438 293 l 1,24,-1
 676.9296875 293 l 1,0,-1
EndSplineSet
EndChar

StartChar: brokenbar
Encoding: 166 166 101
Width: 544
Flags: W
LayerCount: 2
Fore
SplineSet
369 563 m 1,0,-1
 369 -249 l 1,1,-1
 182 -249 l 1,2,-1
 182 563 l 1,3,-1
 369 563 l 1,0,-1
369 1631 m 1,4,-1
 369 819 l 1,5,-1
 182 819 l 1,6,-1
 182 1631 l 1,7,-1
 369 1631 l 1,4,-1
EndSplineSet
EndChar

StartChar: section
Encoding: 167 167 102
Width: 1084
Flags: W
LayerCount: 2
Fore
SplineSet
438.18359375 1045 m 128,-1,1
 480.379882812 1036 480.379882812 1036 629.66796875 1010.18261719 c 128,-1,2
 778.95703125 984.364257812 778.95703125 984.364257812 856.73828125 927.951171875 c 128,-1,3
 934.51953125 871.538085938 934.51953125 871.538085938 934.51953125 700.489257812 c 128,-1,4
 934.51953125 529.440429688 934.51953125 529.440429688 832.51953125 456 c 1,5,6
 931.51953125 370.813476562 931.51953125 370.813476562 931.51953125 162.536132812 c 128,-1,7
 931.51953125 -45.7421875 931.51953125 -45.7421875 838.13671875 -109.37109375 c 128,-1,8
 744.75390625 -173 744.75390625 -173 538.6953125 -173 c 129,-1,9
 332.63671875 -173 332.63671875 -173 239.118164062 -106.540039062 c 128,-1,10
 145.599609375 -40.0791015625 145.599609375 -40.0791015625 145.599609375 177 c 1,11,-1
 317.599609375 177 l 1,12,13
 317.599609375 23.5634765625 317.599609375 23.5634765625 358.16015625 -6.2177734375 c 128,-1,14
 398.719726562 -36 398.719726562 -36 445.51953125 -39.5 c 128,-1,15
 492.3203125 -43 492.3203125 -43 586.3359375 -43 c 128,-1,16
 680.3515625 -43 680.3515625 -43 719.435546875 -8.818359375 c 128,-1,17
 758.51953125 25.36328125 758.51953125 25.36328125 758.51953125 165.352539062 c 128,-1,18
 758.51953125 305.341796875 758.51953125 305.341796875 698.240234375 343.5 c 0,19,20
 664.431640625 364.88671875 664.431640625 364.88671875 617.375976562 370.443359375 c 128,-1,21
 570.3203125 376 570.3203125 376 528.200195312 382.5 c 128,-1,22
 486.080078125 389 486.080078125 389 438.759765625 396 c 0,23,24
 273.943359375 420.639648438 273.943359375 420.639648438 217.271484375 496.580078125 c 128,-1,25
 160.599609375 572.51953125 160.599609375 572.51953125 160.599609375 728.694335938 c 128,-1,26
 160.599609375 884.869140625 160.599609375 884.869140625 256.599609375 960 c 1,27,28
 162.599609375 1045.04785156 162.599609375 1045.04785156 162.599609375 1248.85742188 c 128,-1,29
 162.599609375 1452.66699219 162.599609375 1452.66699219 254.129882812 1516.33300781 c 128,-1,30
 345.66015625 1580 345.66015625 1580 549.267578125 1580 c 128,-1,31
 752.875 1580 752.875 1580 846.197265625 1513.54003906 c 128,-1,32
 939.51953125 1447.07910156 939.51953125 1447.07910156 939.51953125 1230 c 1,33,-1
 768.51953125 1230 l 1,34,35
 768.51953125 1378.08007812 768.51953125 1378.08007812 731.2421875 1409.04003906 c 128,-1,36
 693.96484375 1440 693.96484375 1440 652.810546875 1444.5 c 128,-1,37
 611.65625 1449 611.65625 1449 547.581054688 1449 c 0,38,39
 409.159179688 1449 409.159179688 1449 371.879882812 1415.56640625 c 128,-1,40
 334.599609375 1382.13378906 334.599609375 1382.13378906 334.599609375 1244.21484375 c 128,-1,41
 334.599609375 1106.29589844 334.599609375 1106.29589844 365.293945312 1080.14746094 c 128,-1,0
 395.987304688 1054 395.987304688 1054 438.18359375 1045 c 128,-1,1
336.599609375 741.713867188 m 128,-1,43
 336.599609375 670 336.599609375 670 344.934570312 639 c 128,-1,44
 353.270507812 608 353.270507812 608 371.502929688 588 c 128,-1,45
 389.736328125 568 389.736328125 568 419.4296875 557 c 128,-1,46
 449.123046875 546 449.123046875 546 492.361328125 538.5 c 128,-1,47
 535.599609375 531 535.599609375 531 593.423828125 525 c 128,-1,48
 651.248046875 519 651.248046875 519 726.263671875 510 c 1,49,50
 757.51953125 536.25 757.51953125 536.25 757.51953125 651.852539062 c 128,-1,51
 757.51953125 767.454101562 757.51953125 767.454101562 733.036132812 795.227539062 c 128,-1,52
 708.551757812 823 708.551757812 823 679.37890625 833 c 128,-1,53
 650.206054688 843 650.206054688 843 605.926757812 852 c 128,-1,54
 561.646484375 861 561.646484375 861 501.216796875 872.5 c 128,-1,55
 440.788085938 884 440.788085938 884 361.60546875 906 c 1,56,42
 336.599609375 813.428710938 336.599609375 813.428710938 336.599609375 741.713867188 c 128,-1,43
EndSplineSet
EndChar

StartChar: dieresis
Encoding: 168 168 103
Width: 1111
Flags: W
LayerCount: 2
Fore
SplineSet
132.080078125 233 m 256,0,1
 132.080078125 337.842773438 132.080078125 337.842773438 215.580078125 375.5 c 0,2,3
 241.080078125 387 241.080078125 387 271.080078125 387 c 256,4,5
 331.23046875 387 331.23046875 387 371.655273438 344.447265625 c 128,-1,6
 412.080078125 301.89453125 412.080078125 301.89453125 412.080078125 233 c 256,7,8
 412.080078125 127.654296875 412.080078125 127.654296875 328.080078125 90.5 c 0,9,10
 302.080078125 79 302.080078125 79 272.080078125 79 c 256,11,12
 212.397460938 79 212.397460938 79 172.23828125 122.329101562 c 128,-1,13
 132.080078125 165.658203125 132.080078125 165.658203125 132.080078125 233 c 256,0,1
709.51953125 233 m 256,14,15
 709.51953125 338.345703125 709.51953125 338.345703125 793.51953125 375.5 c 0,16,17
 819.51953125 387 819.51953125 387 849.51953125 387 c 256,18,19
 944.204101562 387 944.204101562 387 979.51953125 295.5 c 0,20,21
 990.51953125 267 990.51953125 267 990.51953125 233 c 256,22,23
 990.51953125 128.607421875 990.51953125 128.607421875 906.01953125 90.5 c 0,24,25
 880.51953125 79 880.51953125 79 850.51953125 79 c 256,26,27
 789.836914062 79 789.836914062 79 749.678710938 122.329101562 c 128,-1,28
 709.51953125 165.658203125 709.51953125 165.658203125 709.51953125 233 c 256,14,15
EndSplineSet
EndChar

StartChar: copyright
Encoding: 169 169 104
Width: 1714
Flags: W
LayerCount: 2
Fore
SplineSet
194.440429688 858 m 256,0,1
 194.440429688 558.65234375 194.440429688 558.65234375 392.040039062 344.5 c 0,2,3
 583.741210938 131 583.741210938 131 863.080078125 131 c 0,4,5
 1046.25683594 131 1046.25683594 131 1199.34277344 229.19140625 c 128,-1,6
 1352.42871094 327.3828125 1352.42871094 327.3828125 1443.234375 494.733398438 c 128,-1,7
 1534.04003906 662.083007812 1534.04003906 662.083007812 1534.04003906 858 c 256,8,9
 1534.04003906 1053.91699219 1534.04003906 1053.91699219 1443.234375 1221.26660156 c 128,-1,10
 1352.42871094 1388.6171875 1352.42871094 1388.6171875 1198.66210938 1486.80859375 c 0,11,12
 980.180664062 1577.67578125 980.180664062 1577.67578125 863.599609375 1585 c 1,13,14
 583.741210938 1585 583.741210938 1585 389.090820312 1371.17382812 c 128,-1,15
 194.440429688 1157.34765625 194.440429688 1157.34765625 194.440429688 858 c 256,0,1
864.120117188 1673 m 128,-1,17
 1069.89257812 1673 1069.89257812 1673 1240.84375 1563.69628906 c 128,-1,18
 1411.79492188 1454.39257812 1411.79492188 1454.39257812 1512.41796875 1267.15917969 c 128,-1,19
 1613.04003906 1079.92675781 1613.04003906 1079.92675781 1613.04003906 858 c 256,20,21
 1613.04003906 520.684570312 1613.04003906 520.684570312 1394.16015625 281.5 c 0,22,23
 1175.77050781 43 1175.77050781 43 864.120117188 43 c 1,24,25
 658.34765625 43 658.34765625 43 487.515625 152.303710938 c 128,-1,26
 316.684570312 261.607421875 316.684570312 261.607421875 216.0625 448.840820312 c 128,-1,27
 115.440429688 636.073242188 115.440429688 636.073242188 115.440429688 858 c 128,-1,28
 115.440429688 1079.92675781 115.440429688 1079.92675781 216.0625 1267.15917969 c 128,-1,29
 316.684570312 1454.39257812 316.684570312 1454.39257812 487.515625 1563.69628906 c 128,-1,16
 658.34765625 1673 658.34765625 1673 864.120117188 1673 c 128,-1,17
1251.16015625 725 m 1,30,31
 1251.16015625 440.420898438 1251.16015625 440.420898438 1171.66015625 366.5 c 0,32,33
 1143.16015625 340 1143.16015625 340 1089 323.5 c 128,-1,34
 1034.83984375 307 1034.83984375 307 861.25 307 c 128,-1,35
 687.661132812 307 687.661132812 307 605.904296875 332.77734375 c 128,-1,36
 524.1484375 358.555664062 524.1484375 358.555664062 487.734375 454.7265625 c 128,-1,37
 451.3203125 550.897460938 451.3203125 550.897460938 451.3203125 769 c 2,38,-1
 451.3203125 946 l 2,39,40
 451.3203125 1164.53808594 451.3203125 1164.53808594 487.682617188 1259.64160156 c 128,-1,41
 524.045898438 1354.74511719 524.045898438 1354.74511719 606.6015625 1381.37207031 c 128,-1,42
 689.157226562 1408 689.157226562 1408 862.658203125 1408 c 128,-1,43
 1036.16015625 1408 1036.16015625 1408 1110.69726562 1384.83007812 c 128,-1,44
 1185.234375 1361.65917969 1185.234375 1361.65917969 1218.19726562 1274.07226562 c 128,-1,45
 1251.16015625 1186.48535156 1251.16015625 1186.48535156 1251.16015625 990 c 1,46,-1
 1112.16015625 990 l 1,47,48
 1112.16015625 1217.71386719 1112.16015625 1217.71386719 1089.79980469 1245.35742188 c 128,-1,49
 1067.44042969 1273 1067.44042969 1273 1035.62792969 1283 c 128,-1,50
 1003.81640625 1293 1003.81640625 1293 861.592773438 1293 c 128,-1,51
 719.368164062 1293 719.368164062 1293 671.184570312 1278.08007812 c 128,-1,52
 623.000976562 1263.16015625 623.000976562 1263.16015625 609.66015625 1197.31347656 c 128,-1,53
 596.3203125 1131.46679688 596.3203125 1131.46679688 596.3203125 946 c 2,54,-1
 596.3203125 769 l 2,55,56
 596.3203125 511.7421875 596.3203125 511.7421875 622.3203125 477.87109375 c 128,-1,57
 648.3203125 444 648.3203125 444 683.84375 433 c 128,-1,58
 719.368164062 422 719.368164062 422 861.592773438 422 c 128,-1,59
 1003.81640625 422 1003.81640625 422 1047.29589844 435.66796875 c 128,-1,60
 1090.77539062 449.3359375 1090.77539062 449.3359375 1101.46777344 502.321289062 c 128,-1,61
 1112.16015625 555.307617188 1112.16015625 555.307617188 1112.16015625 725 c 1,62,-1
 1251.16015625 725 l 1,30,31
EndSplineSet
EndChar

StartChar: guillemotleft
Encoding: 171 171 106
Width: 1256
Flags: W
LayerCount: 2
Fore
SplineSet
655.76953125 245.150390625 m 0,0,1
 655.76953125 178 655.76953125 178 588.021484375 178 c 0,2,3
 553.552734375 178 553.552734375 178 526.809570312 202 c 2,4,-1
 137 574 l 2,5,6
 78 631.033203125 78 631.033203125 78 716 c 256,7,8
 78 800.966796875 78 800.966796875 137 858 c 2,9,-1
 526.809570312 1229 l 1,10,11
 562.095703125 1254 562.095703125 1254 592.291992188 1254 c 128,-1,12
 622.489257812 1254 622.489257812 1254 639.129882812 1233.5 c 128,-1,13
 655.76953125 1213 655.76953125 1213 655.76953125 1187.5 c 128,-1,14
 655.76953125 1162 655.76953125 1162 631.849609375 1116 c 1,15,-1
 292 716 l 1,16,-1
 631.849609375 316 l 1,17,18
 655.76953125 272.299804688 655.76953125 272.299804688 655.76953125 245.150390625 c 0,0,1
1158.65917969 244.200195312 m 0,19,20
 1158.65917969 178 1158.65917969 178 1093.37304688 178 c 0,21,22
 1061.08789062 178 1061.08789062 178 1033.65917969 202 c 1,23,-1
 642.25 574 l 2,24,25
 578.809570312 632.966796875 578.809570312 632.966796875 578.809570312 716 c 256,26,27
 578.809570312 800.935546875 578.809570312 800.935546875 642.25 858 c 1,28,-1
 1033.65917969 1229 l 1,29,30
 1067.58789062 1254 1067.58789062 1254 1096.62304688 1254 c 128,-1,31
 1125.65917969 1254 1125.65917969 1254 1142.15917969 1233.5 c 128,-1,32
 1158.65917969 1213 1158.65917969 1213 1158.65917969 1188.5 c 128,-1,33
 1158.65917969 1164 1158.65917969 1164 1134.65917969 1116 c 1,34,-1
 802.409179688 716 l 1,35,-1
 1134.65917969 316 l 1,36,37
 1158.65917969 270.400390625 1158.65917969 270.400390625 1158.65917969 244.200195312 c 0,19,20
EndSplineSet
EndChar

StartChar: logicalnot
Encoding: 172 172 107
Width: 1246
Flags: W
LayerCount: 2
Fore
SplineSet
1077.56933594 294 m 1,0,-1
 936.569335938 294 l 1,1,-1
 936.569335938 773 l 1,2,-1
 108.16015625 773 l 1,3,-1
 108.16015625 962 l 1,4,-1
 1077.56933594 962 l 1,5,-1
 1077.56933594 294 l 1,0,-1
EndSplineSet
EndChar

StartChar: uni00AD
Encoding: 173 173 108
Width: 1081
Flags: W
LayerCount: 2
Fore
SplineSet
937.139648438 549 m 1,0,-1
 150.799804688 549 l 1,1,-1
 150.799804688 728 l 1,2,-1
 937.139648438 728 l 1,3,-1
 937.139648438 549 l 1,0,-1
EndSplineSet
EndChar

StartChar: registered
Encoding: 174 174 109
Width: 1714
Flags: W
LayerCount: 2
Fore
SplineSet
1235.55957031 1109 m 0,0,1
 1235.55957031 865.727539062 1235.55957031 865.727539062 1059.20019531 853 c 1,2,3
 1181.15039062 847.103515625 1181.15039062 847.103515625 1217.28027344 742 c 0,4,5
 1228.28027344 710 1228.28027344 710 1228.28027344 674 c 2,6,-1
 1228.28027344 323 l 1,7,-1
 1087.28027344 323 l 1,8,-1
 1087.28027344 629 l 2,9,10
 1087.28027344 745.090820312 1087.28027344 745.090820312 1063.87988281 765.545898438 c 0,11,12
 1034.75976562 791 1034.75976562 791 934.400390625 791 c 2,13,-1
 670.240234375 791 l 1,14,-1
 683.040039062 322 l 1,15,-1
 540.040039062 322 l 1,16,-1
 527.240234375 1395 l 1,17,-1
 866.799804688 1395 l 2,18,19
 1065.38476562 1395 1065.38476562 1395 1135.78027344 1354 c 0,20,21
 1235.55957031 1295.34765625 1235.55957031 1295.34765625 1235.55957031 1109 c 0,0,1
866.799804688 900 m 2,22,23
 1004.66308594 900 1004.66308594 900 1048.47167969 933.94140625 c 128,-1,24
 1092.28027344 967.8828125 1092.28027344 967.8828125 1092.28027344 1095.1015625 c 128,-1,25
 1092.28027344 1222.3203125 1092.28027344 1222.3203125 1050 1251.66015625 c 128,-1,26
 1007.71972656 1281 1007.71972656 1281 864.719726562 1281 c 2,27,-1
 670.240234375 1281 l 1,28,-1
 670.240234375 900 l 1,29,-1
 866.799804688 900 l 2,22,23
194.440429688 858 m 256,30,31
 194.440429688 558.65234375 194.440429688 558.65234375 410.040039062 344.5 c 0,32,33
 599.4609375 131 599.4609375 131 870.0390625 131 c 0,34,35
 1047.59375 131 1047.59375 131 1197.62304688 229.19140625 c 128,-1,36
 1347.65332031 327.3828125 1347.65332031 327.3828125 1440.84667969 494.733398438 c 128,-1,37
 1534.04003906 662.083007812 1534.04003906 662.083007812 1534.04003906 858 c 256,38,39
 1534.04003906 1053.91699219 1534.04003906 1053.91699219 1443.234375 1221.26660156 c 128,-1,40
 1352.42871094 1388.6171875 1352.42871094 1388.6171875 1197.78222656 1486.80859375 c 0,41,42
 980.260742188 1577.67578125 980.260742188 1577.67578125 863.6796875 1585 c 1,43,44
 586.661132812 1585 586.661132812 1585 390.55078125 1371.17382812 c 128,-1,45
 194.440429688 1157.34765625 194.440429688 1157.34765625 194.440429688 858 c 256,30,31
864.426757812 1673 m 128,-1,47
 1069.97265625 1673 1069.97265625 1673 1240.88378906 1563.69628906 c 128,-1,48
 1411.79492188 1454.39257812 1411.79492188 1454.39257812 1512.41796875 1267.15917969 c 128,-1,49
 1613.04003906 1079.92675781 1613.04003906 1079.92675781 1613.04003906 858 c 256,50,51
 1613.04003906 520.684570312 1613.04003906 520.684570312 1387.78027344 281.5 c 0,52,53
 1174.890625 43 1174.890625 43 871.046875 43 c 1,54,55
 671.681640625 43 671.681640625 43 504.631835938 152.303710938 c 128,-1,56
 337.583007812 261.607421875 337.583007812 261.607421875 226.51171875 448.840820312 c 128,-1,57
 115.440429688 636.073242188 115.440429688 636.073242188 115.440429688 858 c 128,-1,58
 115.440429688 1079.92675781 115.440429688 1079.92675781 216.0625 1267.15917969 c 128,-1,59
 316.684570312 1454.39257812 316.684570312 1454.39257812 487.783203125 1563.69628906 c 128,-1,46
 658.881835938 1673 658.881835938 1673 864.426757812 1673 c 128,-1,47
EndSplineSet
EndChar

StartChar: macron
Encoding: 175 175 110
Width: 870
Flags: W
LayerCount: 2
Fore
SplineSet
741.559570312 838 m 1,0,-1
 741.559570312 711 l 1,1,-1
 144.559570312 711 l 1,2,-1
 144.559570312 838 l 1,3,-1
 741.559570312 838 l 1,0,-1
EndSplineSet
EndChar

StartChar: degree
Encoding: 176 176 111
Width: 855
Flags: W
LayerCount: 2
Fore
SplineSet
126.879882812 1322 m 256,0,1
 126.879882812 1449.09082031 126.879882812 1449.09082031 221.19921875 1523.04589844 c 128,-1,2
 315.517578125 1597 315.517578125 1597 434.879882812 1597 c 256,3,4
 553.2421875 1597 553.2421875 1597 647.561523438 1523.04589844 c 128,-1,5
 741.879882812 1449.09082031 741.879882812 1449.09082031 741.879882812 1321 c 256,6,7
 741.879882812 1192.90917969 741.879882812 1192.90917969 648.19921875 1119.45410156 c 128,-1,8
 554.517578125 1046 554.517578125 1046 434.879882812 1046 c 256,9,10
 315.517578125 1046 315.517578125 1046 221.19921875 1119.95410156 c 128,-1,11
 126.879882812 1193.90917969 126.879882812 1193.90917969 126.879882812 1322 c 256,0,1
566.879882812 1321 m 256,12,13
 566.879882812 1390.17675781 566.879882812 1390.17675781 530.6796875 1438.08789062 c 128,-1,14
 494.48046875 1486 494.48046875 1486 434.365234375 1486 c 128,-1,15
 374.25 1486 374.25 1486 339.564453125 1437.65136719 c 128,-1,16
 304.879882812 1389.30273438 304.879882812 1389.30273438 304.879882812 1321 c 256,17,18
 304.879882812 1251.69726562 304.879882812 1251.69726562 339.564453125 1203.34863281 c 128,-1,19
 374.25 1155 374.25 1155 434.586914062 1155 c 128,-1,20
 494.923828125 1155 494.923828125 1155 530.901367188 1203.67675781 c 128,-1,21
 566.879882812 1252.35253906 566.879882812 1252.35253906 566.879882812 1321 c 256,12,13
EndSplineSet
EndChar

StartChar: plusminus
Encoding: 177 177 112
Width: 990
Flags: W
LayerCount: 2
Fore
SplineSet
583.609375 1117 m 1,0,-1
 583.609375 754 l 1,1,-1
 893.099609375 754 l 1,2,-1
 893.099609375 585 l 1,3,-1
 583.609375 585 l 1,4,-1
 583.609375 223 l 1,5,-1
 417.609375 223 l 1,6,-1
 417.609375 585 l 1,7,-1
 109.16015625 585 l 1,8,-1
 109.16015625 754 l 1,9,-1
 417.609375 754 l 1,10,-1
 417.609375 1117 l 1,11,-1
 583.609375 1117 l 1,0,-1
894.099609375 -24 m 1,12,-1
 108.16015625 -24 l 1,13,-1
 108.16015625 139 l 1,14,-1
 894.099609375 139 l 1,15,-1
 894.099609375 -24 l 1,12,-1
EndSplineSet
EndChar

StartChar: acute
Encoding: 180 180 115
Width: 696
Flags: W
LayerCount: 2
Fore
SplineSet
146.719726562 1292 m 128,-1,1
 130 1292 130 1292 130 1308 c 128,-1,2
 130 1324 130 1324 138.5 1332 c 128,-1,3
 147 1340 147 1340 163.5 1357 c 0,4,5
 416.109375 1617.26464844 416.109375 1617.26464844 485 1635.5 c 0,6,7
 502 1640 502 1640 529.911132812 1640 c 128,-1,8
 557.821289062 1640 557.821289062 1640 584.411132812 1610.21972656 c 128,-1,9
 611 1580.44042969 611 1580.44042969 611 1528.07714844 c 128,-1,10
 611 1475.71386719 611 1475.71386719 545 1438 c 1,11,12
 524.673828125 1421.06152344 524.673828125 1421.06152344 344.056640625 1356.53027344 c 128,-1,0
 163.439453125 1292 163.439453125 1292 146.719726562 1292 c 128,-1,1
EndSplineSet
EndChar

StartChar: mu
Encoding: 181 181 116
Width: 1212
Flags: W
LayerCount: 2
Fore
SplineSet
841.719726562 376 m 2,0,-1
 841.719726562 1101 l 1,1,-1
 1038.71972656 1101 l 1,2,-1
 1038.71972656 0 l 1,3,-1
 867.719726562 0 l 1,4,-1
 841.719726562 95 l 1,5,6
 841.719726562 73 841.719726562 73 763.200195312 24.5 c 128,-1,7
 684.6796875 -24 684.6796875 -24 550.284772802 -24 c 128,-1,8
 415.889858104 -24 415.889858104 -24 355.359375 -7.45536371741 c 1,9,-1
 355.359375 -231.5 l 1,10,-1
 160.359375 -231.5 l 1,11,-1
 160.359375 330.48025239 l 2,12,13
 160 344.442630334 160 344.442630334 160 359 c 2,14,-1
 160 1101 l 1,15,-1
 355 1101 l 1,16,-1
 355 400.5 l 1,17,-1
 355.359375 400.5 l 1,18,-1
 355.359375 314.112020043 l 1,19,20
 357.931931432 169.425971523 357.931931432 169.425971523 380.385887591 149.712985761 c 128,-1,21
 402.83984375 130 402.83984375 130 433 123 c 128,-1,22
 463.16015625 116 463.16015625 116 600.959960938 116 c 128,-1,23
 738.759765625 116 738.759765625 116 780.360351562 129.5 c 128,-1,24
 821.959960938 143 821.959960938 143 831.83984375 189 c 128,-1,25
 841.719726562 235 841.719726562 235 841.719726562 376 c 2,0,-1
EndSplineSet
EndChar

StartChar: paragraph
Encoding: 182 182 117
Width: 1088
Flags: W
LayerCount: 2
Fore
SplineSet
69.6796875 1190.5 m 0,0,1
 69.6796875 1386.45507812 69.6796875 1386.45507812 204.1796875 1463 c 0,2,3
 306.094726562 1521 306.094726562 1521 517.6796875 1521 c 2,4,-1
 905.280273438 1521 l 1,5,-1
 905.280273438 0 l 1,6,-1
 752.280273438 0 l 1,7,-1
 752.280273438 844 l 1,8,-1
 580.6796875 844 l 1,9,-1
 580.6796875 0 l 1,10,-1
 426.6796875 0 l 1,11,-1
 426.6796875 845 l 1,12,13
 417.189453125 844.708007812 417.189453125 844.708007812 407.94140625 844.708007812 c 0,14,15
 182.653320312 844.708007812 182.653320312 844.708007812 101.1796875 1018 c 0,16,17
 69.6796875 1085 69.6796875 1085 69.6796875 1190.5 c 0,0,1
EndSplineSet
EndChar

StartChar: cedilla
Encoding: 184 184 118
Width: 736
Flags: W
LayerCount: 2
Fore
SplineSet
399.360351562 -376.166992188 m 0,0,1
 399.360351562 -289 399.360351562 -289 261.360351562 -289 c 1,2,3
 271.975585938 -243 271.975585938 -243 281.66796875 -207 c 128,-1,4
 291.360351562 -171 291.360351562 -171 298.360351562 -144 c 2,5,-1
 336.360351562 0 l 1,6,-1
 445.360351562 0 l 1,7,-1
 396.360351562 -168 l 1,8,9
 408.360351562 -170 408.360351562 -170 429.360351562 -172 c 128,-1,10
 450.360351562 -174 450.360351562 -174 493.400390625 -184.541015625 c 128,-1,11
 536.44140625 -195.081054688 536.44140625 -195.081054688 575.900390625 -234.541015625 c 128,-1,12
 615.360351562 -274 615.360351562 -274 615.360351562 -364.5703125 c 128,-1,13
 615.360351562 -455.140625 615.360351562 -455.140625 548.83984375 -506.0703125 c 128,-1,14
 482.319335938 -557 482.319335938 -557 381.768554688 -557 c 128,-1,15
 281.216796875 -557 281.216796875 -557 197.288085938 -514.272460938 c 128,-1,16
 113.360351562 -471.545898438 113.360351562 -471.545898438 113.360351562 -426 c 0,17,18
 113.360351562 -404 113.360351562 -404 127.360351562 -388.5 c 128,-1,19
 141.360351562 -373 141.360351562 -373 156.360351562 -373 c 128,-1,20
 171.360351562 -373 171.360351562 -373 219.723632812 -401 c 128,-1,21
 268.086914062 -429 268.086914062 -429 333.723632812 -429 c 128,-1,22
 399.360351562 -429 399.360351562 -429 399.360351562 -376.166992188 c 0,0,1
EndSplineSet
EndChar

StartChar: guillemotright
Encoding: 187 187 121
Width: 1260
Flags: W
LayerCount: 2
Fore
SplineSet
115.440429688 1185.40917969 m 0,0,1
 115.440429688 1254 115.440429688 1254 176.975585938 1254 c 0,2,3
 206.51171875 1254 206.51171875 1254 240.440429688 1229 c 1,4,-1
 631.849609375 858 l 2,5,6
 694.25 800 694.25 800 694.25 716 c 256,7,8
 694.25 634 694.25 634 631.849609375 574 c 1,9,-1
 240.440429688 202 l 2,10,11
 214.725585938 178 214.725585938 178 181.083007812 178 c 0,12,13
 115.440429688 178 115.440429688 178 115.440429688 247.13671875 c 0,14,15
 115.440429688 276.272460938 115.440429688 276.272460938 138.440429688 316 c 1,16,-1
 469.609375 716 l 1,17,-1
 138.440429688 1116 l 1,18,19
 115.440429688 1157.81835938 115.440429688 1157.81835938 115.440429688 1185.40917969 c 0,0,1
617.290039062 1186.31835938 m 128,-1,21
 617.290039062 1213 617.290039062 1213 634.44921875 1233.5 c 128,-1,22
 651.609375 1254 651.609375 1254 681.806640625 1254 c 128,-1,23
 712.00390625 1254 712.00390625 1254 747.290039062 1229 c 1,24,-1
 1136.05957031 858 l 2,25,26
 1195.05957031 800.966796875 1195.05957031 800.966796875 1195.05957031 715.965820312 c 128,-1,27
 1195.05957031 630.965820312 1195.05957031 630.965820312 1136.05957031 574 c 2,28,-1
 747.290039062 202 l 2,29,30
 720.546875 178 720.546875 178 686.078125 178 c 128,-1,31
 651.609375 178 651.609375 178 634.44921875 198 c 128,-1,32
 617.290039062 218 617.290039062 218 617.290039062 246.272460938 c 128,-1,33
 617.290039062 274.545898438 617.290039062 274.545898438 642.25 316 c 1,34,-1
 981.059570312 716 l 1,35,-1
 642.25 1116 l 1,36,20
 617.290039062 1159.63671875 617.290039062 1159.63671875 617.290039062 1186.31835938 c 128,-1,21
EndSplineSet
EndChar

StartChar: onequarter
Encoding: 188 188 122
Width: 768
Flags: W
LayerCount: 2
Fore
SplineSet
397 152 m 1,0,-1
 176 152 l 1,1,-1
 138 250 l 1,2,-1
 339 616 l 1,3,-1
 511 616 l 1,4,-1
 511 250 l 1,5,-1
 583 250 l 1,6,-1
 583 152 l 1,7,-1
 511 152 l 1,8,-1
 511 0 l 1,9,-1
 397 0 l 1,10,-1
 397 152 l 1,0,-1
397 250 m 1,11,-1
 397 544 l 1,12,13
 360 469 360 469 323 397 c 128,-1,14
 286 325 286 325 248 250 c 1,15,-1
 397 250 l 1,11,-1
713 711 m 1,16,-1
 78 711 l 1,17,-1
 78 826 l 1,18,-1
 713 826 l 1,19,-1
 713 711 l 1,16,-1
282 1431 m 1,20,21
 325 1431 325 1431 343 1458 c 128,-1,22
 361 1485 361 1485 361 1499 c 1,23,-1
 469 1499 l 1,24,-1
 469 918 l 1,25,-1
 348 918 l 1,26,-1
 348 1368 l 1,27,-1
 282 1368 l 1,28,-1
 282 1431 l 1,20,21
EndSplineSet
EndChar

StartChar: onehalf
Encoding: 189 189 123
Width: 768
Flags: W
LayerCount: 2
Fore
SplineSet
585.200195312 117 m 1,0,-1
 585.200195312 0 l 1,1,-1
 185.599609375 0 l 1,2,-1
 185.599609375 99 l 2,3,4
 185.599609375 203.081054688 185.599609375 203.081054688 314.879882812 288.5 c 0,5,6
 353.360351562 313 353.360351562 313 391.3203125 335.5 c 128,-1,7
 429.280273438 358 429.280273438 358 454.240234375 380 c 128,-1,8
 479.200195312 402 479.200195312 402 479.200195312 451.737304688 c 128,-1,9
 479.200195312 501.473632812 479.200195312 501.473632812 463.897460938 517.737304688 c 128,-1,10
 448.594726562 534 448.594726562 534 404.096679688 534 c 128,-1,11
 359.599609375 534 359.599609375 534 346.080078125 532 c 0,12,13
 307.599609375 526.307617188 307.599609375 526.307617188 307.599609375 434 c 1,14,-1
 188.599609375 434 l 1,15,16
 188.599609375 618.47265625 188.599609375 618.47265625 306.599609375 636.5 c 0,17,18
 344 642 344 642 416.864257812 642 c 128,-1,19
 489.729492188 642 489.729492188 642 542.46484375 609.982421875 c 128,-1,20
 595.200195312 577.963867188 595.200195312 577.963867188 595.200195312 465.322265625 c 128,-1,21
 595.200195312 352.680664062 595.200195312 352.680664062 511.700195312 290.5 c 0,22,23
 488.200195312 273 488.200195312 273 425.5078125 232.396484375 c 128,-1,24
 362.815429688 191.79296875 362.815429688 191.79296875 337.090820312 170.590820312 c 128,-1,25
 311.366210938 149.389648438 311.366210938 149.389648438 303.599609375 117 c 1,26,-1
 585.200195312 117 l 1,0,-1
708.200195312 711 m 1,27,-1
 67.599609375 711 l 1,28,-1
 67.599609375 826 l 1,29,-1
 708.200195312 826 l 1,30,-1
 708.200195312 711 l 1,27,-1
270.599609375 1431 m 1,31,32
 313.83984375 1431 313.83984375 1431 332.559570312 1458 c 128,-1,33
 351.280273438 1485 351.280273438 1485 351.280273438 1499 c 1,34,-1
 463.599609375 1499 l 1,35,-1
 463.599609375 918 l 1,36,-1
 338.799804688 918 l 1,37,-1
 338.799804688 1368 l 1,38,-1
 270.599609375 1368 l 1,39,-1
 270.599609375 1431 l 1,31,32
EndSplineSet
EndChar

StartChar: threequarters
Encoding: 190 190 124
Width: 808
Flags: W
LayerCount: 2
Fore
SplineSet
377.639648438 1155 m 1,0,-1
 377.639648438 1248 l 1,1,-1
 409.639648438 1248 l 2,2,3
 465.573242188 1248 465.573242188 1248 484.106445312 1260.08691406 c 128,-1,4
 502.639648438 1272.17382812 502.639648438 1272.17382812 502.639648438 1324.0390625 c 128,-1,5
 502.639648438 1375.90429688 502.639648438 1375.90429688 484.858398438 1389.45214844 c 128,-1,6
 467.077148438 1403 467.077148438 1403 412.758789062 1403 c 128,-1,7
 358.440429688 1403 358.440429688 1403 343.040039062 1390.84179688 c 128,-1,8
 327.639648438 1378.68457031 327.639648438 1378.68457031 327.639648438 1319 c 1,9,-1
 225.639648438 1319 l 1,10,11
 225.639648438 1479.90917969 225.639648438 1479.90917969 332.639648438 1494.5 c 0,12,13
 365.639648438 1499 365.639648438 1499 440.458984375 1499 c 128,-1,14
 515.279296875 1499 515.279296875 1499 557.458984375 1466.69140625 c 128,-1,15
 599.639648438 1434.3828125 599.639648438 1434.3828125 599.639648438 1338.8203125 c 128,-1,16
 599.639648438 1243.2578125 599.639648438 1243.2578125 573.639648438 1223.12890625 c 128,-1,17
 547.639648438 1203 547.639648438 1203 520.639648438 1199 c 1,18,19
 566.55078125 1190.65234375 566.55078125 1190.65234375 583.095703125 1167.14160156 c 128,-1,20
 599.639648438 1143.63183594 599.639648438 1143.63183594 599.639648438 1049.08203125 c 128,-1,21
 599.639648438 954.532226562 599.639648438 954.532226562 558.653320312 922.265625 c 128,-1,22
 517.666992188 890 517.666992188 890 412.065429688 890 c 128,-1,23
 306.463867188 890 306.463867188 890 266.051757812 919.869140625 c 128,-1,24
 225.639648438 949.739257812 225.639648438 949.739257812 225.639648438 1060 c 1,25,-1
 327.639648438 1060 l 1,26,27
 327.639648438 1008.22265625 327.639648438 1008.22265625 342.568359375 996.611328125 c 128,-1,28
 357.497070312 985 357.497070312 985 412.368164062 985 c 128,-1,29
 467.240234375 985 467.240234375 985 484.940429688 997.068359375 c 128,-1,30
 502.639648438 1009.13671875 502.639648438 1009.13671875 502.639648438 1068.88476562 c 128,-1,31
 502.639648438 1128.63378906 502.639648438 1128.63378906 479.375 1141.81640625 c 128,-1,32
 456.110351562 1155 456.110351562 1155 377.639648438 1155 c 1,0,-1
414.639648438 152 m 1,33,-1
 193.639648438 152 l 1,34,-1
 155.639648438 250 l 1,35,-1
 355.639648438 616 l 1,36,-1
 527.639648438 616 l 1,37,-1
 527.639648438 250 l 1,38,-1
 599.639648438 250 l 1,39,-1
 599.639648438 152 l 1,40,-1
 527.639648438 152 l 1,41,-1
 527.639648438 0 l 1,42,-1
 414.639648438 0 l 1,43,-1
 414.639648438 152 l 1,33,-1
414.639648438 250 m 1,44,-1
 414.639648438 544 l 1,45,46
 377.639648438 469 377.639648438 469 340.139648438 397 c 128,-1,47
 302.639648438 325 302.639648438 325 264.639648438 250 c 1,48,-1
 414.639648438 250 l 1,44,-1
729.639648438 701 m 1,49,-1
 94.6396484375 701 l 1,50,-1
 94.6396484375 816 l 1,51,-1
 729.639648438 816 l 1,52,-1
 729.639648438 701 l 1,49,-1
EndSplineSet
EndChar

StartChar: questiondown
Encoding: 191 191 125
Width: 717
Flags: W
LayerCount: 2
Fore
SplineSet
430.06640625 -24 m 0,0,1
 68.6396484375 -24 68.6396484375 -24 68.6396484375 334.8359375 c 0,2,3
 68.6396484375 509.084960938 68.6396484375 509.084960938 222.639648438 687.5 c 0,4,5
 323.7109375 804.594726562 323.7109375 804.594726562 357.67578125 876.296875 c 128,-1,6
 391.639648438 948 391.639648438 948 399.639648438 1020 c 1,7,8
 421.639648438 1028 421.639648438 1028 444.211914062 1028 c 128,-1,9
 466.783203125 1028 466.783203125 1028 481.639648438 1015 c 1,10,11
 481.639648438 807.87890625 481.639648438 807.87890625 392.97265625 665.706054688 c 128,-1,12
 304.305664062 523.533203125 304.305664062 523.533203125 282.97265625 462.766601562 c 128,-1,13
 261.639648438 402 261.639648438 402 261.639648438 346 c 0,14,15
 261.639648438 160 261.639648438 160 445.639648438 160 c 0,16,17
 507.639648438 160 507.639648438 160 668.639648438 202 c 1,18,-1
 691.639648438 37 l 1,19,20
 533.4921875 -24 533.4921875 -24 430.06640625 -24 c 0,0,1
587.639648438 1392 m 256,21,22
 587.639648438 1287.15722656 587.639648438 1287.15722656 504.139648438 1249.5 c 0,23,24
 478.639648438 1238 478.639648438 1238 448.639648438 1238 c 256,25,26
 353.956054688 1238 353.956054688 1238 318.639648438 1329.5 c 0,27,28
 307.639648438 1358 307.639648438 1358 307.639648438 1392 c 256,29,30
 307.639648438 1496.39257812 307.639648438 1496.39257812 392.139648438 1534.5 c 0,31,32
 417.639648438 1546 417.639648438 1546 447.639648438 1546 c 256,33,34
 507.323242188 1546 507.323242188 1546 547.481445312 1502.67089844 c 128,-1,35
 587.639648438 1459.34179688 587.639648438 1459.34179688 587.639648438 1392 c 256,21,22
EndSplineSet
EndChar

StartChar: AE
Encoding: 198 198 132
Width: 1955
Flags: W
LayerCount: 2
Fore
SplineSet
1190.12011719 703 m 1,0,-1
 1190.12011719 160 l 1,1,-1
 1853.12011719 160 l 1,2,-1
 1853.12011719 0 l 1,3,-1
 991.120117188 0 l 1,4,-1
 991.120117188 389 l 1,5,-1
 439.919921875 389 l 1,6,-1
 217.360351562 0 l 1,7,-1
 35.3603515625 0 l 1,8,-1
 907.919921875 1499 l 1,9,-1
 1837.12011719 1499 l 1,10,-1
 1837.12011719 1339 l 1,11,-1
 1190.12011719 1339 l 1,12,-1
 1190.12011719 863 l 1,13,-1
 1757.12011719 863 l 1,14,-1
 1757.12011719 703 l 1,15,-1
 1190.12011719 703 l 1,0,-1
991.120117188 521 m 1,16,-1
 991.120117188 1373 l 1,17,-1
 516.879882812 521 l 1,18,-1
 991.120117188 521 l 1,16,-1
EndSplineSet
EndChar

StartChar: Eth
Encoding: 208 208 142
Width: 1463
Flags: W
LayerCount: 2
Fore
SplineSet
221.719726562 0 m 1,0,-1
 221.719726562 696 l 1,1,-1
 96.7197265625 696 l 1,2,-1
 96.7197265625 822 l 1,3,-1
 221.719726562 822 l 1,4,-1
 221.719726562 1498 l 1,5,-1
 744.080078125 1499 l 2,6,7
 996.377929688 1499 996.377929688 1499 1077.18945312 1476 c 0,8,9
 1218.43164062 1434.63867188 1218.43164062 1434.63867188 1267.91601562 1310.4609375 c 128,-1,10
 1317.40039062 1186.28320312 1317.40039062 1186.28320312 1317.40039062 903 c 2,11,-1
 1317.40039062 594 l 2,12,13
 1317.40039062 314.283203125 1317.40039062 314.283203125 1267.9296875 191.07421875 c 128,-1,14
 1218.45996094 67.8662109375 1218.45996094 67.8662109375 1104.4140625 33.93359375 c 128,-1,15
 990.368164062 0 990.368164062 0 744.080078125 0 c 2,16,-1
 221.719726562 0 l 1,0,-1
422.719726562 822 m 1,17,-1
 654.639648438 822 l 1,18,-1
 654.639648438 696 l 1,19,-1
 422.719726562 696 l 1,20,-1
 422.719726562 163 l 1,21,-1
 744.080078125 162 l 2,22,23
 950.374023438 162 950.374023438 162 998.02734375 176.5 c 128,-1,24
 1045.6796875 191 1045.6796875 191 1068.04003906 217 c 128,-1,25
 1090.40039062 243 1090.40039062 243 1102.23046875 298.170898438 c 128,-1,26
 1114.06054688 353.341796875 1114.06054688 353.341796875 1116.40039062 594 c 1,27,-1
 1116.40039062 903 l 1,28,29
 1113.99023438 1143.92871094 1113.99023438 1143.92871094 1103.75488281 1196.96386719 c 128,-1,30
 1093.51953125 1250 1093.51953125 1250 1074.28027344 1277.5 c 128,-1,31
 1055.04003906 1305 1055.04003906 1305 1011.47167969 1322 c 128,-1,32
 967.903320312 1339 967.903320312 1339 794 1339 c 2,33,-1
 422.719726562 1338 l 1,34,-1
 422.719726562 822 l 1,17,-1
EndSplineSet
EndChar

StartChar: multiply
Encoding: 215 215 149
Width: 880
Flags: W
LayerCount: 2
Fore
SplineSet
560.21875 670 m 1,0,-1
 783.21875 420 l 1,1,-1
 665.21875 288 l 1,2,-1
 438.409179688 538 l 1,3,-1
 211.559570312 288 l 1,4,-1
 92.5595703125 420 l 1,5,-1
 316.559570312 670 l 1,6,-1
 92.5595703125 920 l 1,7,-1
 211.559570312 1052 l 1,8,-1
 438.409179688 802 l 1,9,-1
 665.21875 1052 l 1,10,-1
 783.21875 920 l 1,11,-1
 560.21875 670 l 1,0,-1
EndSplineSet
EndChar

StartChar: Oslash
Encoding: 216 216 150
Width: 1467
Flags: W
LayerCount: 2
Fore
SplineSet
1129.95996094 1599 m 1
 428.959960938 -140 l 5
 315.959960938 -110 l 5
 1016.95996094 1629 l 1
 1129.95996094 1599 l 1
EndSplineSet
Refer: 48 79 N 1 0 0 1 0 0 3
EndChar

StartChar: Thorn
Encoding: 222 222 156
Width: 1283
Flags: W
LayerCount: 2
Fore
SplineSet
721.120117188 1299 m 2,0,1
 963.751953125 1299 963.751953125 1299 1062.01953125 1227 c 0,2,3
 1187.51953125 1134.03710938 1187.51953125 1134.03710938 1187.51953125 847.125976562 c 128,-1,4
 1187.51953125 560.213867188 1187.51953125 560.213867188 1055.51953125 467.5 c 0,5,6
 975.805664062 411.934570312 975.805664062 411.934570312 877.583007812 404.966796875 c 128,-1,7
 779.360351562 398 779.360351562 398 708.639648438 398 c 2,8,-1
 390.400390625 398 l 1,9,-1
 390.400390625 0 l 1,10,-1
 192.400390625 0 l 1,11,-1
 192.400390625 1498 l 1,12,-1
 390.400390625 1498 l 1,13,-1
 390.400390625 1299 l 1,14,-1
 721.120117188 1299 l 2,0,1
703.440429688 559 m 2,15,16
 893.413085938 559 893.413085938 559 933.626953125 599 c 128,-1,17
 973.83984375 639 973.83984375 639 982.6796875 694 c 128,-1,18
 991.51953125 749 991.51953125 749 991.51953125 847 c 128,-1,19
 991.51953125 945 991.51953125 945 981.120117188 1005.5 c 128,-1,20
 970.719726562 1066 970.719726562 1066 940.040039062 1096 c 0,21,22
 892.997070312 1142 892.997070312 1142 708.639648438 1142 c 2,23,-1
 390.400390625 1142 l 1,24,-1
 390.400390625 559 l 1,25,-1
 703.440429688 559 l 2,15,16
EndSplineSet
EndChar

StartChar: germandbls
Encoding: 223 223 157
Width: 1264
Flags: W
LayerCount: 2
Fore
SplineSet
1070.97753906 1147.12109375 m 0,0,1
 1070.97753906 842.599609375 1070.97753906 842.599609375 923.959960938 828 c 1,2,3
 1015.23730469 823.6328125 1015.23730469 823.6328125 1080.10742188 725.49609375 c 128,-1,4
 1144.97753906 627.359375 1144.97753906 627.359375 1144.97753906 390.44140625 c 0,5,6
 1144.97753906 49.318359375 1144.97753906 49.318359375 856.6796875 12 c 0,7,8
 760.228515625 0 760.228515625 0 637.280273438 0 c 2,9,-1
 490.280273438 0 l 1,10,-1
 490.280273438 157 l 1,11,-1
 636.280273438 157 l 2,12,13
 806.864257812 157 806.864257812 157 861.833007812 167.372070312 c 128,-1,14
 916.801757812 177.745117188 916.801757812 177.745117188 934.2578125 228.12109375 c 0,15,16
 950.408203125 274.729492188 950.408203125 274.729492188 950.408203125 414.96484375 c 0,17,18
 950.408203125 426.30078125 950.408203125 426.30078125 950.3046875 438.249023438 c 0,19,20
 948.919921875 598 948.919921875 598 939.559570312 637 c 0,21,22
 922.198242188 709.340820312 922.198242188 709.340820312 864.579101562 725.170898438 c 128,-1,23
 806.959960938 741 806.959960938 741 628.599609375 741 c 2,24,-1
 524.599609375 741 l 1,25,-1
 524.599609375 887 l 1,26,-1
 610.919921875 887 l 2,27,28
 760.16015625 887 760.16015625 887 807.451171875 896.573242188 c 128,-1,29
 854.741210938 906.146484375 854.741210938 906.146484375 866.991210938 945.40625 c 128,-1,30
 879.240234375 984.666992188 879.240234375 984.666992188 879.240234375 1111.83300781 c 128,-1,31
 879.240234375 1239 879.240234375 1239 868.528320312 1280.20019531 c 128,-1,32
 857.81640625 1321.40039062 857.81640625 1321.40039062 814.967773438 1331.70019531 c 128,-1,33
 772.120117188 1342 772.120117188 1342 631.373046875 1342 c 128,-1,34
 490.626953125 1342 490.626953125 1342 445.657226562 1330.20703125 c 128,-1,35
 400.6875 1318.41503906 400.6875 1318.41503906 389.34375 1274.70703125 c 128,-1,36
 378 1231 378 1231 378 1090 c 2,37,-1
 379 -150 l 1,38,-1
 182 -150 l 1,39,-1
 183 1102 l 2,40,41
 183 1338.10839844 183 1338.10839844 285.823242188 1418.55371094 c 128,-1,42
 388.646484375 1499 388.646484375 1499 629.029296875 1499 c 128,-1,43
 869.412109375 1499 869.412109375 1499 970.194335938 1424.81347656 c 128,-1,44
 1070.97753906 1350.62597656 1070.97753906 1350.62597656 1070.97753906 1147.12109375 c 0,0,1
EndSplineSet
EndChar

StartChar: oslash
Encoding: 248 248 181
Width: 1231
Flags: W
LayerCount: 2
Fore
SplineSet
902.879882812 1255 m 1
 381.879882812 -164 l 1
 291.879882812 -134 l 1
 812.879882812 1285 l 1
 902.879882812 1255 l 1
EndSplineSet
Refer: 80 111 N 1 0 0 1 3 0 2
EndChar

StartChar: thorn
Encoding: 254 254 187
Width: 1235
Flags: W
LayerCount: 2
Fore
SplineSet
743.639648438 1180 m 0,0,1
 934.280273438 1180 934.280273438 1180 1016.78027344 1091.74414062 c 128,-1,2
 1099.28027344 1003.48828125 1099.28027344 1003.48828125 1099.28027344 808 c 2,3,-1
 1099.28027344 387 l 2,4,5
 1099.28027344 161.416015625 1099.28027344 161.416015625 1028.6015625 68.7080078125 c 128,-1,6
 957.923828125 -24 957.923828125 -24 768.080078125 -24 c 1,7,8
 444.415039062 -24 444.415039062 -24 386.400390625 105 c 1,9,-1
 386.400390625 -402 l 1,10,-1
 192.400390625 -402 l 1,11,-1
 192.400390625 1594 l 1,12,-1
 385.400390625 1594 l 1,13,-1
 385.400390625 1053 l 1,14,15
 423.096679688 1180 423.096679688 1180 743.639648438 1180 c 0,0,1
633.26953125 1018 m 128,-1,17
 514.059570312 1018 514.059570312 1018 462.548828125 1007.92578125 c 128,-1,18
 411.037109375 997.852539062 411.037109375 997.852539062 398.71875 959.159179688 c 128,-1,19
 386.400390625 920.466796875 386.400390625 920.466796875 386.400390625 799 c 2,20,-1
 386.400390625 342 l 2,21,22
 386.400390625 196 386.400390625 196 410.83984375 172.5 c 128,-1,23
 435.280273438 149 435.280273438 149 481.559570312 144 c 128,-1,24
 527.83984375 139 527.83984375 139 649.8984375 139 c 128,-1,25
 771.956054688 139 771.956054688 139 824.192382812 147.911132812 c 128,-1,26
 876.428710938 156.822265625 876.428710938 156.822265625 889.854492188 193.129882812 c 128,-1,27
 903.280273438 229.4375 903.280273438 229.4375 903.280273438 342 c 2,28,-1
 903.280273438 799 l 2,29,30
 903.280273438 961.372070312 903.280273438 961.372070312 876.759765625 985.686523438 c 128,-1,31
 850.240234375 1010 850.240234375 1010 801.360351562 1014 c 128,-1,16
 752.48046875 1018 752.48046875 1018 633.26953125 1018 c 128,-1,17
EndSplineSet
EndChar

StartChar: uni0111
Encoding: 273 273 204
Width: 1228
Flags: W
LayerCount: 2
Fore
SplineSet
631.059570312 1389 m 1
 1189.05957031 1389 l 1
 1189.05957031 1283 l 5
 631.059570312 1283 l 5
 631.059570312 1389 l 1
EndSplineSet
Refer: 69 100 N 1 0 0 1 0 0 2
EndChar

StartChar: dotlessi
Encoding: 305 305 228
Width: 532
Flags: W
LayerCount: 2
Fore
SplineSet
373.83984375 1147 m 1,0,-1
 373.83984375 0 l 1,1,-1
 177.83984375 0 l 1,2,-1
 177.83984375 1147 l 1,3,-1
 373.83984375 1147 l 1,0,-1
EndSplineSet
EndChar

StartChar: Lslash
Encoding: 321 321 244
Width: 1038
Flags: W
LayerCount: 2
Fore
SplineSet
232.83984375 0 m 1,0,-1
 232.83984375 632 l 1,1,-1
 99.83984375 568 l 1,2,-1
 99.83984375 754 l 1,3,-1
 232.83984375 818 l 1,4,-1
 232.83984375 1499 l 1,5,-1
 434.83984375 1499 l 1,6,-1
 434.83984375 915 l 1,7,-1
 734.360351562 1054 l 1,8,-1
 734.360351562 868 l 1,9,-1
 434.83984375 729 l 1,10,-1
 434.83984375 164 l 1,11,-1
 984.529296875 164 l 1,12,-1
 984.529296875 0 l 1,13,-1
 232.83984375 0 l 1,0,-1
EndSplineSet
EndChar

StartChar: lslash
Encoding: 322 322 245
Width: 698
Flags: W
LayerCount: 2
Fore
SplineSet
445.440429688 0 m 1,0,-1
 251.440429688 0 l 1,1,-1
 251.440429688 660 l 1,2,-1
 89.4404296875 568 l 1,3,-1
 89.4404296875 754 l 1,4,-1
 251.440429688 846 l 1,5,-1
 251.440429688 1552 l 1,6,-1
 445.440429688 1552 l 1,7,-1
 445.440429688 956 l 1,8,-1
 617.440429688 1054 l 1,9,-1
 617.440429688 868 l 1,10,-1
 445.440429688 770 l 1,11,-1
 445.440429688 0 l 1,0,-1
EndSplineSet
EndChar

StartChar: OE
Encoding: 338 338 258
Width: 2065
Flags: W
LayerCount: 2
Fore
SplineSet
1951.95996094 1499 m 1,0,-1
 1951.95996094 1339 l 1,1,-1
 1304.95996094 1339 l 1,2,-1
 1304.95996094 863 l 1,3,-1
 1870.95996094 863 l 1,4,-1
 1870.95996094 703 l 1,5,-1
 1304.95996094 703 l 1,6,-1
 1304.95996094 160 l 1,7,-1
 1967.95996094 160 l 1,8,-1
 1967.95996094 0 l 1,9,-1
 732.639648438 0 l 2,10,11
 468.259765625 0 468.259765625 0 363.083984375 27.416015625 c 128,-1,12
 257.909179688 54.8330078125 257.909179688 54.8330078125 209.034179688 176.557617188 c 128,-1,13
 160.16015625 298.283203125 160.16015625 298.283203125 160.16015625 594 c 2,14,-1
 160.16015625 903 l 2,15,16
 160.16015625 1199.71679688 160.16015625 1199.71679688 209.258789062 1322.00195312 c 128,-1,17
 258.358398438 1444.28710938 258.358398438 1444.28710938 365.262695312 1472.14355469 c 128,-1,18
 472.166992188 1500 472.166992188 1500 653.233398438 1500 c 2,19,-1
 935.959960938 1500 l 1,20,-1
 1299.45996094 1499 l 2,21,22
 1625.70996094 1499 1625.70996094 1499 1951.95996094 1499 c 1,0,-1
1104.95996094 160 m 1,23,-1
 1104.95996094 1341 l 1,24,-1
 732.639648438 1341 l 2,25,26
 526.200195312 1341 526.200195312 1341 477.059570312 1327 c 128,-1,27
 427.919921875 1313 427.919921875 1313 405.040039062 1286.5 c 128,-1,28
 382.16015625 1260 382.16015625 1260 369.16015625 1202.26171875 c 128,-1,29
 356.16015625 1144.5234375 356.16015625 1144.5234375 356.16015625 903 c 2,30,-1
 356.16015625 594 l 2,31,32
 356.16015625 371.384765625 356.16015625 371.384765625 367.50390625 290 c 128,-1,33
 378.846679688 208.615234375 378.846679688 208.615234375 424.219726562 183.807617188 c 128,-1,34
 469.591796875 159 469.591796875 159 612.3046875 159 c 2,35,-1
 922.440429688 159 l 1,36,-1
 1066.48046875 160 l 2,37,38
 1085.71972656 160 1085.71972656 160 1104.95996094 160 c 1,23,-1
EndSplineSet
EndChar

StartChar: dotlessj
Encoding: 567 567 295
Width: 523
Flags: W
LayerCount: 2
Fore
SplineSet
355.83984375 -49 m 2,0,1
 355.83984375 -183 355.83984375 -183 302.83984375 -247 c 128,-1,2
 249.83984375 -311 249.83984375 -311 161.672851562 -311 c 128,-1,3
 73.5068359375 -311 73.5068359375 -311 -1.16015625 -297 c 1,4,-1
 -4.16015625 -156 l 1,5,-1
 162.83984375 -156 l 1,6,-1
 162.83984375 1147 l 1,7,-1
 355.83984375 1147 l 1,8,-1
 355.83984375 -49 l 2,0,1
EndSplineSet
EndChar

StartChar: circumflex
Encoding: 710 710 296
Width: 816
Flags: W
LayerCount: 2
Fore
SplineSet
696.400390625 1440.5 m 0,0,1
 696.400390625 1401 696.400390625 1401 658.900390625 1401 c 0,2,3
 643.400390625 1401 643.400390625 1401 625.400390625 1416 c 1,4,-1
 418.400390625 1627 l 1,5,-1
 211.400390625 1416 l 1,6,7
 193.400390625 1401 193.400390625 1401 177.900390625 1401 c 0,8,9
 140.400390625 1401 140.400390625 1401 140.400390625 1441 c 256,10,11
 140.400390625 1461 140.400390625 1461 153.400390625 1481 c 2,12,-1
 324.400390625 1754 l 2,13,14
 351.182617188 1798 351.182617188 1798 418.400390625 1798 c 256,15,16
 483.704101562 1798 483.704101562 1798 512.400390625 1754 c 1,17,-1
 682.400390625 1481 l 2,18,19
 696.400390625 1459 696.400390625 1459 696.400390625 1440.5 c 0,0,1
EndSplineSet
EndChar

StartChar: caron
Encoding: 711 711 297
Width: 718
Flags: W
LayerCount: 2
Fore
SplineSet
90.48046875 1625.5 m 0,0,1
 90.48046875 1666 90.48046875 1666 126.98046875 1666 c 0,2,3
 142.48046875 1666 142.48046875 1666 160.48046875 1651 c 1,4,-1
 367.48046875 1440 l 1,5,-1
 574.48046875 1651 l 1,6,7
 593.48046875 1666 593.48046875 1666 609.48046875 1666 c 256,8,9
 645.48046875 1666 645.48046875 1666 645.48046875 1626 c 0,10,11
 645.48046875 1609 645.48046875 1609 632.48046875 1586 c 1,12,-1
 461.48046875 1313 l 2,13,14
 434.697265625 1269 434.697265625 1269 368.48046875 1269 c 256,15,16
 300.262695312 1269 300.262695312 1269 273.48046875 1313 c 2,17,-1
 102.48046875 1586 l 2,18,19
 90.48046875 1605 90.48046875 1605 90.48046875 1625.5 c 0,0,1
EndSplineSet
EndChar

StartChar: breve
Encoding: 728 728 298
Width: 754
Flags: W
LayerCount: 2
Fore
SplineSet
517.059570312 1463.5 m 0,0,1
 461.559570312 1448 461.559570312 1448 350.364257812 1448 c 128,-1,2
 239.168945312 1448 239.168945312 1448 165.864257812 1515.44042969 c 128,-1,3
 92.5595703125 1582.87988281 92.5595703125 1582.87988281 92.5595703125 1748 c 1,4,-1
 234.559570312 1748 l 1,5,6
 234.439453125 1742.07910156 234.439453125 1742.07910156 234.439453125 1736.37890625 c 0,7,8
 234.439453125 1645.85253906 234.439453125 1645.85253906 264.915039062 1611.02246094 c 0,9,10
 297.309570312 1574 297.309570312 1574 387.559570312 1574 c 256,11,12
 477.809570312 1574 477.809570312 1574 509.684570312 1610.42871094 c 128,-1,13
 541.559570312 1646.85742188 541.559570312 1646.85742188 541.559570312 1748 c 1,14,-1
 683.559570312 1748 l 1,15,16
 683.559570312 1510 683.559570312 1510 517.059570312 1463.5 c 0,0,1
EndSplineSet
EndChar

StartChar: dotaccent
Encoding: 729 729 299
Width: 477
Flags: W
LayerCount: 2
Fore
SplineSet
145.599609375 1207 m 1,0,-1
 146.599609375 1435 l 1,1,-1
 342.599609375 1435 l 1,2,-1
 343.599609375 1207 l 1,3,-1
 145.599609375 1207 l 1,0,-1
EndSplineSet
EndChar

StartChar: ring
Encoding: 730 730 300
Width: 771
Flags: W
LayerCount: 2
Fore
SplineSet
647 402 m 256,0,1
 647 281.155273438 647 281.155273438 571.827148438 214.577148438 c 128,-1,2
 496.654296875 148 496.654296875 148 390.639648438 148 c 256,3,4
 285.666015625 148 285.666015625 148 209.913085938 215.021484375 c 128,-1,5
 134.16015625 282.041992188 134.16015625 282.041992188 134.16015625 402.170898438 c 128,-1,6
 134.16015625 522.299804688 134.16015625 522.299804688 208.609375 589.150390625 c 128,-1,7
 283.057617188 656 283.057617188 656 389.3359375 656 c 128,-1,8
 495.614257812 656 495.614257812 656 571.306640625 588.978515625 c 128,-1,9
 647 521.958007812 647 521.958007812 647 402 c 256,0,1
274.16015625 402 m 256,10,11
 274.16015625 265 274.16015625 265 401.8203125 265 c 0,12,13
 435.879882812 265 435.879882812 265 469.940429688 300.918945312 c 128,-1,14
 504 336.838867188 504 336.838867188 504 400 c 256,15,16
 504 497.049804688 504 497.049804688 430.16015625 529 c 0,17,18
 409.360351562 538 409.360351562 538 375.8203125 538 c 128,-1,19
 342.280273438 538 342.280273438 538 308.219726562 502.081054688 c 128,-1,20
 274.16015625 466.161132812 274.16015625 466.161132812 274.16015625 402 c 256,10,11
EndSplineSet
EndChar

StartChar: ogonek
Encoding: 731 731 301
Width: 730
Flags: W
LayerCount: 2
Fore
SplineSet
322.004882812 -537 m 0,0,1
 119.599609375 -537 119.599609375 -537 119.599609375 -389.430664062 c 0,2,3
 119.599609375 -214.420898438 119.599609375 -214.420898438 362.599609375 3 c 2,4,-1
 381.599609375 20 l 1,5,-1
 489.599609375 20 l 1,6,7
 364.125 -108.612304688 364.125 -108.612304688 336.362304688 -198.306152344 c 128,-1,9
 308.599609375 -288 308.599609375 -288 308.599609375 -321 c 0,10,11
 308.599609375 -409 308.599609375 -409 381.599609375 -409 c 128,-1,13
 454.599609375 -409 454.599609375 -409 509.599609375 -381 c 128,-1,14
 564.599609375 -353 564.599609375 -353 589.099609375 -353 c 128,-1,16
 613.599609375 -353 613.599609375 -353 613.599609375 -409.626953125 c 128,-1,18
 613.599609375 -466.25390625 613.599609375 -466.25390625 494.004394531 -501.626953125 c 128,-1,20
 374.409179688 -537 374.409179688 -537 322.004882812 -537 c 0,0,1
EndSplineSet
EndChar

StartChar: tilde
Encoding: 732 732 302
Width: 1054
Flags: W
LayerCount: 2
Fore
SplineSet
911.458984375 595.5 m 128,-1,1
 922.458984375 605 922.458984375 605 933.958984375 605 c 128,-1,2
 945.458984375 605 945.458984375 605 945.458984375 584.288085938 c 128,-1,3
 945.458984375 563.577148438 945.458984375 563.577148438 910.958984375 519.788085938 c 0,4,5
 800.03515625 379 800.03515625 379 675.529296875 379 c 0,6,7
 615.5 379 615.5 379 515.514648438 418 c 128,-1,8
 415.529296875 457 415.529296875 457 362.024414062 474.5 c 128,-1,9
 308.51953125 492 308.51953125 492 271.01953125 492 c 128,-1,10
 233.51953125 492 233.51953125 492 212.01953125 483 c 128,-1,11
 190.51953125 474 190.51953125 474 175.51953125 463 c 128,-1,12
 160.51953125 452 160.51953125 452 150.51953125 443 c 128,-1,13
 140.51953125 434 140.51953125 434 129.01953125 434 c 128,-1,14
 117.51953125 434 117.51953125 434 117.51953125 449 c 256,15,16
 117.51953125 478.127929688 117.51953125 478.127929688 149.51953125 523.063476562 c 0,17,18
 247.03515625 660 247.03515625 660 373.9296875 660 c 0,19,20
 444.744140625 660 444.744140625 660 554.416992188 620 c 128,-1,21
 664.08984375 580 664.08984375 580 716.774414062 562 c 128,-1,22
 769.458984375 544 769.458984375 544 799.458984375 544 c 128,-1,23
 829.458984375 544 829.458984375 544 849.458984375 553.5 c 128,-1,24
 869.458984375 563 869.458984375 563 884.958984375 574.5 c 128,-1,0
 900.458984375 586 900.458984375 586 911.458984375 595.5 c 128,-1,1
EndSplineSet
EndChar

StartChar: hungarumlaut
Encoding: 733 733 303
Width: 1153
Flags: W
LayerCount: 2
Fore
SplineSet
146.719726562 1292 m 128,-1,1
 130 1292 130 1292 130 1308 c 128,-1,2
 130 1324 130 1324 138.5 1332 c 128,-1,3
 147 1340 147 1340 163.5 1357 c 0,4,5
 417.723632812 1617.26464844 417.723632812 1617.26464844 489.369140625 1635.5 c 0,6,7
 507.049804688 1640 507.049804688 1640 536.077148438 1640 c 128,-1,8
 565.103515625 1640 565.103515625 1640 592.756835938 1610.21972656 c 128,-1,9
 620.409179688 1580.44042969 620.409179688 1580.44042969 620.409179688 1528.07714844 c 128,-1,10
 620.409179688 1475.71386719 620.409179688 1475.71386719 551.76953125 1438 c 1,11,12
 530.629882812 1421.06152344 530.629882812 1421.06152344 347.03515625 1356.53027344 c 128,-1,0
 163.439453125 1292 163.439453125 1292 146.719726562 1292 c 128,-1,1
594.122070312 1292 m 128,-1,14
 576.729492188 1292 576.729492188 1292 576.729492188 1308.5 c 128,-1,15
 576.729492188 1325 576.729492188 1325 586.466796875 1333.26074219 c 128,-1,16
 596.203125 1341.52148438 596.203125 1341.52148438 659.303710938 1404.52832031 c 128,-1,17
 722.404296875 1467.53613281 722.404296875 1467.53613281 797.154296875 1533.93652344 c 128,-1,18
 871.904296875 1600.33789062 871.904296875 1600.33789062 905.06640625 1620.16894531 c 128,-1,19
 938.229492188 1640 938.229492188 1640 975.811523438 1640 c 128,-1,20
 1013.39355469 1640 1013.39355469 1640 1040.78613281 1610.5 c 128,-1,21
 1068.1796875 1581 1068.1796875 1581 1068.1796875 1529.18457031 c 128,-1,22
 1068.1796875 1477.36816406 1068.1796875 1477.36816406 1000.1796875 1438 c 1,23,24
 979.118164062 1420.44921875 979.118164062 1420.44921875 795.31640625 1356.22460938 c 128,-1,13
 611.515625 1292 611.515625 1292 594.122070312 1292 c 128,-1,14
EndSplineSet
EndChar

StartChar: endash
Encoding: 8211 8211 307
Width: 1116
Flags: W
LayerCount: 2
Fore
SplineSet
977.69921875 754 m 1,0,-1
 977.69921875 568 l 1,1,-1
 150.799804688 568 l 1,2,-1
 150.799804688 754 l 1,3,-1
 977.69921875 754 l 1,0,-1
EndSplineSet
EndChar

StartChar: emdash
Encoding: 8212 8212 308
Width: 1890
Flags: W
LayerCount: 2
Fore
SplineSet
1751.45898438 754 m 1,0,-1
 1751.45898438 568 l 1,1,-1
 142.48046875 568 l 1,2,-1
 142.48046875 754 l 1,3,-1
 1751.45898438 754 l 1,0,-1
EndSplineSet
EndChar

StartChar: quoteleft
Encoding: 8216 8216 309
Width: 552
Flags: W
LayerCount: 2
Fore
SplineSet
287.16015625 1000 m 0,0,1
 134.16015625 1000 134.16015625 1000 134.16015625 1202 c 0,2,3
 134.16015625 1335.30371094 134.16015625 1335.30371094 219.754882812 1443.65234375 c 128,-1,4
 305.349609375 1552 305.349609375 1552 432.16015625 1552 c 1,5,-1
 432.16015625 1484 l 1,6,7
 380.568359375 1484 380.568359375 1484 337.864257812 1431.6875 c 128,-1,8
 295.16015625 1379.375 295.16015625 1379.375 295.16015625 1285 c 1,9,10
 427.16015625 1285 427.16015625 1285 427.16015625 1134.55761719 c 0,11,12
 427.16015625 1092.11425781 427.16015625 1092.11425781 389.671875 1046.05761719 c 128,-1,13
 352.18359375 1000 352.18359375 1000 287.16015625 1000 c 0,0,1
EndSplineSet
EndChar

StartChar: quoteright
Encoding: 8217 8217 310
Width: 552
Flags: W
LayerCount: 2
Fore
SplineSet
278.440429688 1267 m 1,0,1
 146.440429688 1267 146.440429688 1267 146.440429688 1417.25 c 0,2,3
 146.440429688 1460.5 146.440429688 1460.5 184.7421875 1506.25 c 128,-1,4
 223.044921875 1552 223.044921875 1552 306.01953125 1552 c 128,-1,5
 388.994140625 1552 388.994140625 1552 426.940429688 1448 c 0,6,7
 440.440429688 1411 440.440429688 1411 440.440429688 1350 c 0,8,9
 440.440429688 1217.96191406 440.440429688 1217.96191406 354.344726562 1108.98144531 c 128,-1,10
 268.25 1000 268.25 1000 141.440429688 1000 c 1,11,-1
 141.440429688 1068 l 1,12,13
 194.541992188 1068 194.541992188 1068 236.491210938 1120.70507812 c 128,-1,14
 278.440429688 1173.41015625 278.440429688 1173.41015625 278.440429688 1267 c 1,0,1
EndSplineSet
EndChar

StartChar: quotesinglbase
Encoding: 8218 8218 311
Width: 427
Flags: W
LayerCount: 2
Fore
SplineSet
283.080078125 277 m 128,-1,1
 306.080078125 254 306.080078125 254 306.080078125 154 c 128,-1,2
 306.080078125 54 306.080078125 54 274.080078125 -90 c 128,-1,3
 242.080078125 -234 242.080078125 -234 237.595703125 -254.5 c 128,-1,4
 233.111328125 -275 233.111328125 -275 215.080078125 -275 c 0,5,6
 207.080078125 -275 207.080078125 -275 169.580078125 -125 c 128,-1,7
 132.080078125 25 132.080078125 25 132.080078125 122.5 c 128,-1,8
 132.080078125 220 132.080078125 220 139.080078125 244.5 c 0,9,10
 154.9375 300 154.9375 300 207.508789062 300 c 128,-1,0
 260.080078125 300 260.080078125 300 283.080078125 277 c 128,-1,1
EndSplineSet
EndChar

StartChar: quotedblleft
Encoding: 8220 8220 312
Width: 1032
Flags: W
LayerCount: 2
Fore
SplineSet
287.16015625 1000 m 0,0,1
 134.16015625 1000 134.16015625 1000 134.16015625 1202 c 0,2,3
 134.16015625 1335.30371094 134.16015625 1335.30371094 219.754882812 1443.65234375 c 128,-1,4
 305.349609375 1552 305.349609375 1552 434.25 1552 c 1,5,-1
 434.25 1484 l 1,6,7
 380.59375 1484 380.59375 1484 337.876953125 1431.6875 c 128,-1,8
 295.16015625 1379.375 295.16015625 1379.375 295.16015625 1285 c 1,9,10
 429.049804688 1285 429.049804688 1285 429.049804688 1134.55761719 c 0,11,12
 429.049804688 1092.11425781 429.049804688 1092.11425781 390.616210938 1046.05761719 c 128,-1,13
 352.18359375 1000 352.18359375 1000 287.16015625 1000 c 0,0,1
776.1796875 1285 m 1,14,15
 907.1796875 1285 907.1796875 1285 907.1796875 1134.55761719 c 0,16,17
 907.1796875 1092.11425781 907.1796875 1092.11425781 869.690429688 1046.05761719 c 128,-1,18
 832.202148438 1000 832.202148438 1000 748.897460938 1000 c 128,-1,19
 665.59375 1000 665.59375 1000 626.129882812 1104 c 0,20,21
 612.08984375 1141 612.08984375 1141 612.08984375 1202 c 0,22,23
 612.08984375 1335.30371094 612.08984375 1335.30371094 698.729492188 1443.65234375 c 128,-1,24
 785.369140625 1552 785.369140625 1552 912.1796875 1552 c 1,25,-1
 912.1796875 1484 l 1,26,27
 860.077148438 1484 860.077148438 1484 818.127929688 1431.29492188 c 128,-1,28
 776.1796875 1378.58984375 776.1796875 1378.58984375 776.1796875 1285 c 1,14,15
EndSplineSet
EndChar

StartChar: quotedblright
Encoding: 8221 8221 313
Width: 1032
Flags: W
LayerCount: 2
Fore
SplineSet
758.499023438 1267 m 1,0,1
 624.569335938 1267 624.569335938 1267 624.569335938 1417.25 c 0,2,3
 624.569335938 1460.5 624.569335938 1460.5 663.836914062 1506.25 c 128,-1,4
 703.103515625 1552 703.103515625 1552 786.078125 1552 c 128,-1,5
 869.053710938 1552 869.053710938 1552 906.999023438 1448 c 0,6,7
 920.499023438 1411 920.499023438 1411 920.499023438 1350 c 0,8,9
 920.499023438 1216 920.499023438 1216 834.099609375 1108 c 128,-1,10
 747.69921875 1000 747.69921875 1000 620.409179688 1000 c 1,11,-1
 620.409179688 1068 l 1,12,13
 674.595703125 1068 674.595703125 1068 716.547851562 1120.70507812 c 128,-1,14
 758.499023438 1173.41015625 758.499023438 1173.41015625 758.499023438 1267 c 1,0,1
278.440429688 1267 m 1,15,16
 146.440429688 1267 146.440429688 1267 146.440429688 1417.25 c 0,17,18
 146.440429688 1460.5 146.440429688 1460.5 184.7421875 1506.25 c 128,-1,19
 223.044921875 1552 223.044921875 1552 306.055664062 1552 c 128,-1,20
 389.065429688 1552 389.065429688 1552 428.529296875 1448 c 0,21,22
 442.569335938 1411 442.569335938 1411 442.569335938 1350 c 0,23,24
 442.569335938 1217.96191406 442.569335938 1217.96191406 355.41015625 1108.98144531 c 128,-1,25
 268.25 1000 268.25 1000 141.440429688 1000 c 1,26,-1
 141.440429688 1068 l 1,27,28
 194.541992188 1068 194.541992188 1068 236.491210938 1120.70507812 c 128,-1,29
 278.440429688 1173.41015625 278.440429688 1173.41015625 278.440429688 1267 c 1,15,16
EndSplineSet
EndChar

StartChar: quotedblbase
Encoding: 8222 8222 314
Width: 713
Flags: W
LayerCount: 2
Fore
SplineSet
132.080078125 122.5 m 128,-1,1
 132.080078125 220 132.080078125 220 138.580078125 244.5 c 0,2,3
 153.3046875 300 153.3046875 300 218.080078125 300 c 256,4,5
 262.3203125 300 262.3203125 300 284.200195312 277.208007812 c 128,-1,6
 306.080078125 254.416992188 306.080078125 254.416992188 306.080078125 151.541992188 c 128,-1,7
 306.080078125 48.6669921875 306.080078125 48.6669921875 271.080078125 -102.166992188 c 128,-1,8
 236.080078125 -253 236.080078125 -253 235.580078125 -258.5 c 128,-1,9
 235.080078125 -264 235.080078125 -264 232.72265625 -269.5 c 128,-1,10
 230.365234375 -275 230.365234375 -275 220.22265625 -275 c 128,-1,11
 210.080078125 -275 210.080078125 -275 207.580078125 -271 c 128,-1,12
 205.080078125 -267 205.080078125 -267 168.580078125 -121 c 128,-1,0
 132.080078125 25 132.080078125 25 132.080078125 122.5 c 128,-1,1
500.860351562 -275 m 0,13,14
 488.8671875 -275 488.8671875 -275 488.8671875 -267.782226562 c 0,15,16
 488.8671875 -258.978515625 488.8671875 -258.978515625 453.360351562 -113.400390625 c 0,17,18
 417.360351562 34.2001953125 417.360351562 34.2001953125 417.360351562 126.099609375 c 128,-1,19
 417.360351562 218 417.360351562 218 424.360351562 243 c 128,-1,20
 431.360351562 268 431.360351562 268 447.360351562 284 c 128,-1,21
 463.360351562 300 463.360351562 300 494.860351562 300 c 0,22,23
 549.759765625 300 549.759765625 300 570.059570312 277.934570312 c 128,-1,24
 590.360351562 255.869140625 590.360351562 255.869140625 590.360351562 136.434570312 c 128,-1,25
 590.360351562 17 590.360351562 17 554.860351562 -124 c 128,-1,26
 519.360351562 -265 519.360351562 -265 516.360351562 -270 c 128,-1,27
 513.360351562 -275 513.360351562 -275 500.860351562 -275 c 0,13,14
EndSplineSet
EndChar

StartChar: dagger
Encoding: 8224 8224 315
Width: 841
Flags: W
LayerCount: 2
Fore
SplineSet
143.01953125 865 m 0,0,1
 28.080078125 865 28.080078125 865 28.080078125 972.43359375 c 0,2,3
 28.080078125 1018.66699219 28.080078125 1018.66699219 52.580078125 1051.33300781 c 128,-1,4
 77.080078125 1084 77.080078125 1084 118.580078125 1084 c 128,-1,5
 160.080078125 1084 160.080078125 1084 199.080078125 1074.5 c 128,-1,6
 238.080078125 1065 238.080078125 1065 277.405273438 1052 c 128,-1,7
 316.729492188 1039 316.729492188 1039 349.389648438 1026 c 128,-1,8
 382.049804688 1013 382.049804688 1013 398.049804688 1007 c 1,9,10
 331.049804688 1310.26269531 331.049804688 1310.26269531 331.049804688 1397.6484375 c 128,-1,11
 331.049804688 1485.03417969 331.049804688 1485.03417969 361.393554688 1518.51757812 c 128,-1,12
 391.737304688 1552 391.737304688 1552 431.049804688 1552 c 256,13,14
 495.28515625 1552 495.28515625 1552 521.549804688 1481.5 c 0,15,16
 531.049804688 1456 531.049804688 1456 531.049804688 1389.47363281 c 128,-1,17
 531.049804688 1322.94726562 531.049804688 1322.94726562 462.049804688 1007 c 1,18,19
 656.51953125 1084 656.51953125 1084 732.619140625 1084 c 0,20,21
 834.01953125 1084 834.01953125 1084 834.01953125 959.099609375 c 0,22,23
 834.01953125 926.200195312 834.01953125 926.200195312 808.51953125 895.599609375 c 128,-1,24
 783.01953125 865 783.01953125 865 718.51953125 865 c 128,-1,25
 654.01953125 865 654.01953125 865 467.049804688 939 c 1,26,27
 514.8828125 423.083007812 514.8828125 423.083007812 537.049804688 146 c 1,28,29
 537.049804688 8 537.049804688 8 431.049804688 8 c 256,30,31
 325.049804688 8 325.049804688 8 325.049804688 146 c 1,32,33
 334.649414062 266 334.649414062 266 342.349609375 357 c 128,-1,34
 350.049804688 448 350.049804688 448 356.342773438 524.094726562 c 128,-1,35
 362.63671875 600.189453125 362.63671875 600.189453125 394.049804688 939 c 1,36,37
 380.049804688 934 380.049804688 934 293.504882812 899.5 c 128,-1,38
 206.959960938 865 206.959960938 865 143.01953125 865 c 0,0,1
EndSplineSet
EndChar

StartChar: daggerdbl
Encoding: 8225 8225 316
Width: 1052
Flags: W
LayerCount: 2
Fore
SplineSet
597.649414062 1047 m 1,0,1
 812.258789062 1134 812.258789062 1134 876.458984375 1134 c 256,2,3
 994.458984375 1134 994.458984375 1134 994.458984375 1000.5 c 0,4,5
 994.458984375 964 994.458984375 964 964.958984375 929.5 c 128,-1,6
 935.458984375 895 935.458984375 895 863.958984375 895 c 128,-1,7
 792.458984375 895 792.458984375 895 597.649414062 979 c 1,8,-1
 597.649414062 535 l 1,9,10
 799.458984375 619 799.458984375 619 867.458984375 619 c 128,-1,11
 935.458984375 619 935.458984375 619 964.958984375 584.5 c 128,-1,12
 994.458984375 550 994.458984375 550 994.458984375 499.965820312 c 128,-1,13
 994.458984375 449.930664062 994.458984375 449.930664062 964.170898438 415.465820312 c 128,-1,14
 933.883789062 381 933.883789062 381 889.170898438 381 c 129,-1,15
 844.458984375 381 844.458984375 381 805.958984375 391 c 128,-1,16
 767.458984375 401 767.458984375 401 728.833984375 415 c 128,-1,17
 690.209960938 429 690.209960938 429 655.369140625 443.5 c 128,-1,18
 620.529296875 458 620.529296875 458 597.649414062 467 c 1,19,20
 610.129882812 421 610.129882812 421 646.009765625 307.982421875 c 128,-1,21
 681.889648438 194.965820312 681.889648438 194.965820312 681.889648438 114.31640625 c 128,-1,22
 681.889648438 33.6669921875 681.889648438 33.6669921875 637.26953125 -2.1669921875 c 128,-1,23
 592.649414062 -38 592.649414062 -38 534.649414062 -38 c 256,24,25
 437.022460938 -38 437.022460938 -38 400.969726562 42 c 0,26,27
 387.44921875 72 387.44921875 72 387.44921875 112 c 128,-1,28
 387.44921875 152 387.44921875 152 395.76953125 194 c 128,-1,29
 404.08984375 236 404.08984375 236 416.569335938 281 c 128,-1,30
 429.049804688 326 429.049804688 326 443.609375 373.5 c 128,-1,31
 458.169921875 421 458.169921875 421 470.649414062 467 c 1,32,33
 273.728515625 381 273.728515625 381 203.784179688 381 c 128,-1,34
 133.83984375 381 133.83984375 381 103.83984375 415.5 c 128,-1,35
 73.83984375 450 73.83984375 450 73.83984375 500.5 c 0,36,37
 73.83984375 619 73.83984375 619 205.33984375 619 c 0,38,39
 275.83984375 619 275.83984375 619 470.649414062 535 c 1,40,-1
 470.649414062 979 l 1,41,42
 271.639648438 895 271.639648438 895 203.240234375 895 c 0,43,44
 73.83984375 895 73.83984375 895 73.83984375 1012.79296875 c 0,45,46
 73.83984375 1063.5859375 73.83984375 1063.5859375 103.869140625 1098.79296875 c 128,-1,47
 133.8984375 1134 133.8984375 1134 202.703125 1134 c 128,-1,48
 271.506835938 1134 271.506835938 1134 470.649414062 1047 c 1,49,50
 459.209960938 1090 459.209960938 1090 423.330078125 1205.82128906 c 128,-1,51
 387.44921875 1321.64257812 387.44921875 1321.64257812 387.44921875 1400.17871094 c 128,-1,52
 387.44921875 1478.71386719 387.44921875 1478.71386719 431.799804688 1515.35742188 c 128,-1,53
 476.149414062 1552 476.149414062 1552 534.649414062 1552 c 256,54,55
 631.475585938 1552 631.475585938 1552 668.369140625 1471.5 c 0,56,57
 681.889648438 1442 681.889648438 1442 681.889648438 1401.5 c 128,-1,58
 681.889648438 1361 681.889648438 1361 673.049804688 1318 c 128,-1,59
 664.209960938 1275 664.209960938 1275 651.729492188 1229.5 c 128,-1,60
 639.25 1184 639.25 1184 624.689453125 1137 c 128,-1,61
 610.129882812 1090 610.129882812 1090 597.649414062 1047 c 1,0,1
EndSplineSet
EndChar

StartChar: bullet
Encoding: 8226 8226 317
Width: 917
Flags: W
LayerCount: 2
Fore
SplineSet
469.609375 1030 m 256,0,1
 630.82421875 1030 630.82421875 1030 716.901367188 921.877929688 c 128,-1,2
 802.979492188 813.755859375 802.979492188 813.755859375 802.979492188 664 c 256,3,4
 802.979492188 513.638671875 802.979492188 513.638671875 716.095703125 405.819335938 c 128,-1,5
 629.211914062 298 629.211914062 298 467.529296875 298 c 256,6,7
 305.5625 298 305.5625 298 213.62109375 405.79296875 c 128,-1,8
 121.6796875 513.5859375 121.6796875 513.5859375 121.6796875 662 c 256,9,10
 121.6796875 809.20703125 121.6796875 809.20703125 214.03125 919.603515625 c 128,-1,11
 306.381835938 1030 306.381835938 1030 469.609375 1030 c 256,0,1
EndSplineSet
EndChar

StartChar: ellipsis
Encoding: 8230 8230 318
Width: 1624
Flags: W
LayerCount: 2
Fore
SplineSet
122.719726562 117 m 256,0,1
 122.719726562 221.904296875 122.719726562 221.904296875 207.719726562 259.5 c 0,2,3
 233.719726562 271 233.719726562 271 263.719726562 271 c 256,4,5
 322.870117188 271 322.870117188 271 363.294921875 228.447265625 c 128,-1,6
 403.719726562 185.89453125 403.719726562 185.89453125 403.719726562 117 c 256,7,8
 403.719726562 12.607421875 403.719726562 12.607421875 319.219726562 -25.5 c 0,9,10
 293.719726562 -37 293.719726562 -37 263.719726562 -37 c 256,11,12
 203.037109375 -37 203.037109375 -37 162.87890625 6.3291015625 c 128,-1,13
 122.719726562 49.658203125 122.719726562 49.658203125 122.719726562 117 c 256,0,1
816.200195312 271 m 256,14,15
 910.883789062 271 910.883789062 271 946.200195312 179.5 c 0,16,17
 957.200195312 151 957.200195312 151 957.200195312 117 c 256,18,19
 957.200195312 13.1396484375 957.200195312 13.1396484375 873.200195312 -25.5 c 0,20,21
 848.200195312 -37 848.200195312 -37 818.200195312 -37 c 256,22,23
 757.516601562 -37 757.516601562 -37 716.858398438 6.8681640625 c 128,-1,24
 676.200195312 50.7373046875 676.200195312 50.7373046875 676.200195312 118.016601562 c 128,-1,25
 676.200195312 185.296875 676.200195312 185.296875 715.837890625 228.1484375 c 128,-1,26
 755.474609375 271 755.474609375 271 816.200195312 271 c 256,14,15
1229.6796875 117 m 256,27,28
 1229.6796875 221.842773438 1229.6796875 221.842773438 1313.1796875 259.5 c 0,29,30
 1338.6796875 271 1338.6796875 271 1383.75488281 271 c 128,-1,31
 1428.83007812 271 1428.83007812 271 1469.25488281 228.447265625 c 128,-1,32
 1509.6796875 185.89453125 1509.6796875 185.89453125 1509.6796875 117 c 256,33,34
 1509.6796875 12.607421875 1509.6796875 12.607421875 1425.1796875 -25.5 c 0,35,36
 1399.6796875 -37 1399.6796875 -37 1369.6796875 -37 c 256,37,38
 1274.6796875 -37 1274.6796875 -37 1240.1796875 55 c 0,39,40
 1229.6796875 83 1229.6796875 83 1229.6796875 117 c 256,27,28
EndSplineSet
EndChar

StartChar: guilsinglleft
Encoding: 8249 8249 319
Width: 743
Flags: W
LayerCount: 2
Fore
SplineSet
582.463867188 1254 m 0,0,1
 644 1254 644 1254 644 1187.5 c 0,2,3
 644 1162 644 1162 621 1116 c 1,4,-1
 293 716 l 1,5,-1
 621 316 l 1,6,7
 644 272.299804688 644 272.299804688 644 245.150390625 c 0,8,9
 644 178 644 178 579.213867188 178 c 0,10,11
 546.428710938 178 546.428710938 178 519 202 c 1,12,-1
 138 574 l 2,13,14
 78 631.930664062 78 631.930664062 78 716 c 128,-1,15
 78 800.069335938 78 800.069335938 138 858 c 2,16,-1
 519 1229 l 1,17,18
 552.928710938 1254 552.928710938 1254 582.463867188 1254 c 0,0,1
EndSplineSet
EndChar

StartChar: guilsinglright
Encoding: 8250 8250 320
Width: 745
Flags: W
LayerCount: 2
Fore
SplineSet
115.440429688 1185.40917969 m 0,0,1
 115.440429688 1254 115.440429688 1254 176.975585938 1254 c 0,2,3
 206.51171875 1254 206.51171875 1254 240.440429688 1229 c 1,4,-1
 621.440429688 858 l 2,5,6
 681.440429688 800 681.440429688 800 681.440429688 716 c 256,7,8
 681.440429688 634 681.440429688 634 621.440429688 574 c 1,9,-1
 240.440429688 202 l 2,10,11
 214.725585938 178 214.725585938 178 181.083007812 178 c 0,12,13
 115.440429688 178 115.440429688 178 115.440429688 247.13671875 c 0,14,15
 115.440429688 276.272460938 115.440429688 276.272460938 138.440429688 316 c 1,16,-1
 465.440429688 716 l 1,17,-1
 138.440429688 1116 l 1,18,19
 115.440429688 1157.81835938 115.440429688 1157.81835938 115.440429688 1185.40917969 c 0,0,1
EndSplineSet
EndChar

StartChar: Euro
Encoding: 8364 8364 321
Width: 1440
Flags: W
LayerCount: 2
Fore
SplineSet
987.440429688 650 m 1,0,-1
 987.440429688 549 l 1,1,-1
 72.7998046875 549 l 1,2,-1
 72.7998046875 650 l 1,3,-1
 987.440429688 650 l 1,0,-1
72.7998046875 823 m 1,4,-1
 72.7998046875 927 l 1,5,-1
 987.440429688 928 l 1,6,-1
 987.440429688 824 l 1,7,-1
 72.7998046875 823 l 1,4,-1
1334.44042969 1166.5 m 128,-1,9
 1334.44042969 1066 1334.44042969 1066 1326.44042969 980 c 1,10,-1
 1143.44042969 980 l 1,11,12
 1141.04882812 1198.38964844 1141.04882812 1198.38964844 1130.28417969 1244.69433594 c 128,-1,13
 1119.51953125 1291 1119.51953125 1291 1098.71972656 1313.5 c 128,-1,14
 1077.91992188 1336 1077.91992188 1336 1033.94238281 1348 c 128,-1,15
 989.965820312 1360 989.965820312 1360 847.783203125 1360 c 128,-1,16
 705.599609375 1360 705.599609375 1360 642.16015625 1358 c 128,-1,17
 578.719726562 1356 578.719726562 1356 537.120117188 1343.5 c 128,-1,18
 495.51953125 1331 495.51953125 1331 473.16015625 1303.5 c 128,-1,19
 450.799804688 1276 450.799804688 1276 437.799804688 1212.875 c 128,-1,20
 424.799804688 1149.75 424.799804688 1149.75 424.799804688 903 c 2,21,-1
 424.799804688 594 l 2,22,23
 424.799804688 348.5 424.799804688 348.5 437.799804688 284.75 c 128,-1,24
 450.799804688 221 450.799804688 221 473.16015625 194 c 128,-1,25
 495.51953125 167 495.51953125 167 544.053710938 153 c 128,-1,26
 592.586914062 139 592.586914062 139 738.013671875 139 c 128,-1,27
 883.440429688 139 883.440429688 139 942.200195312 140.5 c 128,-1,28
 1000.95996094 142 1000.95996094 142 1039.44042969 153 c 128,-1,29
 1077.91992188 164 1077.91992188 164 1098.71972656 187.5 c 128,-1,30
 1119.51953125 211 1119.51953125 211 1130.29589844 258.989257812 c 128,-1,31
 1141.07128906 306.978515625 1141.07128906 306.978515625 1143.44042969 537 c 1,32,-1
 1326.44042969 537 l 1,33,34
 1331.44042969 432 1331.44042969 432 1331.44042969 360.5 c 0,35,36
 1331.44042969 46.4306640625 1331.44042969 46.4306640625 1120.0859375 -0.740234375 c 0,37,38
 987.088867188 -29.4033203125 987.088867188 -29.4033203125 832.182617188 -29.4033203125 c 0,39,40
 781.76171875 -29.4033203125 781.76171875 -29.4033203125 729.01953125 -26.3662109375 c 0,41,42
 514.240234375 -14 514.240234375 -14 449.240234375 5.5 c 0,43,44
 323.889648438 44.31640625 323.889648438 44.31640625 274.344726562 172.384765625 c 128,-1,45
 224.799804688 300.453125 224.799804688 300.453125 224.799804688 594 c 2,46,-1
 224.799804688 903 l 2,47,48
 224.799804688 1189.76464844 224.799804688 1189.76464844 272.756835938 1319.53125 c 128,-1,49
 320.71484375 1449.29785156 320.71484375 1449.29785156 429.868164062 1486.14941406 c 128,-1,50
 539.022460938 1523 539.022460938 1523 728.911132812 1523 c 128,-1,51
 918.799804688 1523 918.799804688 1523 1026.44042969 1511.5 c 128,-1,52
 1134.08007812 1500 1134.08007812 1500 1201.75976562 1460.5 c 128,-1,53
 1269.44042969 1421 1269.44042969 1421 1301.94042969 1344 c 128,-1,8
 1334.44042969 1267 1334.44042969 1267 1334.44042969 1166.5 c 128,-1,9
EndSplineSet
EndChar

StartChar: trademark
Encoding: 8482 8482 322
Width: 1481
Flags: W
LayerCount: 2
Fore
SplineSet
540.599609375 1521 m 1,0,-1
 540.599609375 1400 l 1,1,-1
 382.51953125 1400 l 1,2,-1
 382.51953125 643 l 1,3,-1
 242.51953125 643 l 1,4,-1
 242.51953125 1400 l 1,5,-1
 91.51953125 1400 l 1,6,-1
 91.51953125 1521 l 1,7,-1
 540.599609375 1521 l 1,0,-1
777.040039062 643 m 1,8,-1
 630.040039062 643 l 1,9,-1
 630.040039062 1521 l 1,10,-1
 822.799804688 1521 l 1,11,-1
 969.440429688 960 l 1,12,-1
 1118.16015625 1521 l 1,13,-1
 1307.79980469 1521 l 1,14,-1
 1307.79980469 643 l 1,15,-1
 1160.79980469 643 l 1,16,-1
 1160.79980469 1116 l 1,17,-1
 1022.48046875 643 l 1,18,-1
 913.280273438 643 l 1,19,-1
 777.040039062 1116 l 1,20,-1
 777.040039062 643 l 1,8,-1
EndSplineSet
EndChar

StartChar: exclam
Encoding: 33 33 323
Width: 525
Flags: W
LayerCount: 2
Fore
SplineSet
167.040039062 0 m 1,0,-1
 168.040039062 228 l 1,1,-1
 364.040039062 228 l 1,2,-1
 365.040039062 0 l 1,3,-1
 167.040039062 0 l 1,0,-1
157.040039062 1417.86328125 m 0,4,5
 157.040039062 1556 157.040039062 1556 281.040039062 1556 c 0,6,7
 329.607421875 1556 329.607421875 1556 351.82421875 1521.75 c 128,-1,8
 374.040039062 1487.5 374.040039062 1487.5 374.040039062 1356.25 c 128,-1,9
 374.040039062 1225 374.040039062 1225 292.040039062 528 c 0,10,11
 287.75390625 498 287.75390625 498 265.397460938 498 c 128,-1,12
 243.040039062 498 243.040039062 498 240.540039062 519 c 128,-1,13
 238.040039062 540 238.040039062 540 233.540039062 581 c 128,-1,14
 229.040039062 622 229.040039062 622 223.040039062 682 c 128,-1,15
 217.040039062 742 217.040039062 742 210.040039062 815.5 c 128,-1,16
 203.040039062 889 203.040039062 889 180.040039062 1123.59960938 c 128,-1,17
 157.040039062 1358.20019531 157.040039062 1358.20019531 157.040039062 1417.86328125 c 0,4,5
EndSplineSet
EndChar

StartChar: uni0326
Encoding: 806 806 324
Width: 707
Flags: W
LayerCount: 2
Fore
SplineSet
193.440429688 -295.961914062 m 0,0,1
 193.440429688 -247.922851562 193.440429688 -247.922851562 235.530273438 -193.961914062 c 128,-1,2
 277.620117188 -140 277.620117188 -140 348.440429688 -140 c 0,3,4
 460.377929688 -140 460.377929688 -140 504.940429688 -255 c 0,5,6
 520.440429688 -295 520.440429688 -295 520.440429688 -355.5 c 0,7,8
 520.440429688 -487.903320312 520.440429688 -487.903320312 430.775390625 -589.452148438 c 128,-1,9
 341.110351562 -691 341.110351562 -691 207.440429688 -691 c 1,10,-1
 207.440429688 -631 l 1,11,12
 257.645507812 -628.717773438 257.645507812 -628.717773438 296.54296875 -585.615234375 c 128,-1,13
 335.440429688 -542.513671875 335.440429688 -542.513671875 335.440429688 -466 c 1,14,15
 193.440429688 -458.32421875 193.440429688 -458.32421875 193.440429688 -295.961914062 c 0,0,1
EndSplineSet
EndChar

StartChar: commaaccent
Encoding: 63171 63171 325
Width: 707
Flags: W
LayerCount: 2
Fore
SplineSet
193.440429688 -295.961914062 m 0,0,1
 193.440429688 -247.922851562 193.440429688 -247.922851562 235.530273438 -193.961914062 c 128,-1,2
 277.620117188 -140 277.620117188 -140 348.440429688 -140 c 0,3,4
 460.377929688 -140 460.377929688 -140 504.940429688 -255 c 0,5,6
 520.440429688 -295 520.440429688 -295 520.440429688 -355.5 c 0,7,8
 520.440429688 -487.903320312 520.440429688 -487.903320312 430.775390625 -589.452148438 c 128,-1,9
 341.110351562 -691 341.110351562 -691 207.440429688 -691 c 1,10,-1
 207.440429688 -631 l 1,11,12
 257.645507812 -628.717773438 257.645507812 -628.717773438 296.54296875 -585.615234375 c 128,-1,13
 335.440429688 -542.513671875 335.440429688 -542.513671875 335.440429688 -466 c 1,14,15
 193.440429688 -458.32421875 193.440429688 -458.32421875 193.440429688 -295.961914062 c 0,0,1
EndSplineSet
EndChar

StartChar: quotedbl
Encoding: 34 34 327
Width: 726
Flags: W
LayerCount: 2
Fore
SplineSet
228.98046875 1500 m 0,0,1
 315.48046875 1500 315.48046875 1500 315.48046875 1378.16699219 c 128,-1,2
 315.48046875 1256.33300781 315.48046875 1256.33300781 284.48046875 1111.66699219 c 128,-1,3
 253.48046875 967 253.48046875 967 249.15625 946 c 128,-1,4
 244.833007812 925 244.833007812 925 232.65625 925 c 128,-1,5
 220.48046875 925 220.48046875 925 217.48046875 930 c 128,-1,6
 214.48046875 935 214.48046875 935 208.98046875 955.166992188 c 128,-1,7
 203.48046875 975.333007812 203.48046875 975.333007812 172.98046875 1123.76660156 c 128,-1,8
 142.48046875 1272.20019531 142.48046875 1272.20019531 142.48046875 1363.30859375 c 128,-1,9
 142.48046875 1454.41699219 142.48046875 1454.41699219 164.360351562 1477.20800781 c 128,-1,10
 186.240234375 1500 186.240234375 1500 228.98046875 1500 c 0,0,1
423.48046875 1323 m 128,-1,12
 423.48046875 1420 423.48046875 1420 430.48046875 1444.5 c 0,13,14
 446.336914062 1500 446.336914062 1500 500.139648438 1500 c 128,-1,15
 553.94140625 1500 553.94140625 1500 575.7109375 1476.41699219 c 128,-1,16
 597.48046875 1452.83300781 597.48046875 1452.83300781 597.48046875 1346.21679688 c 128,-1,17
 597.48046875 1239.59960938 597.48046875 1239.59960938 562.48046875 1093.29980469 c 0,18,19
 527.97265625 949.060546875 527.97265625 949.060546875 527.97265625 941.642578125 c 128,-1,20
 527.97265625 934.225585938 527.97265625 934.225585938 526.908203125 930.5 c 0,21,22
 525.336914062 925 525.336914062 925 513.908203125 925 c 128,-1,23
 502.48046875 925 502.48046875 925 499.48046875 929.5 c 128,-1,24
 496.48046875 934 496.48046875 934 459.98046875 1080 c 128,-1,11
 423.48046875 1226 423.48046875 1226 423.48046875 1323 c 128,-1,12
EndSplineSet
EndChar

StartChar: fraction
Encoding: 8260 8260 328
Width: 714
Flags: W
LayerCount: 2
Fore
SplineSet
708.338867188 1499 m 1,0,-1
 111.51953125 0 l 1,1,-1
 -12.48046875 0 l 1,2,-1
 581.338867188 1499 l 1,3,-1
 708.338867188 1499 l 1,0,-1
EndSplineSet
EndChar

StartChar: florin
Encoding: 402 402 329
Width: 697
Flags: W
LayerCount: 2
Fore
SplineSet
441.826171875 1579 m 128,-1,1
 511.611328125 1579 511.611328125 1579 617.040039062 1561 c 1,2,-1
 617.040039062 1412 l 1,3,-1
 418.040039062 1412 l 1,4,-1
 418.040039062 855 l 1,5,-1
 613.040039062 855 l 1,6,-1
 613.040039062 736 l 1,7,-1
 418.040039062 736 l 1,8,-1
 418.040039062 -50 l 2,9,10
 418.040039062 -101 418.040039062 -101 414.540039062 -148 c 0,11,12
 402.327148438 -312 402.327148438 -312 193.040039062 -312 c 0,13,14
 128.290039062 -312 128.290039062 -312 27.0400390625 -294 c 1,15,-1
 27.0400390625 -145 l 1,16,-1
 224.040039062 -145 l 1,17,-1
 224.040039062 736 l 1,18,-1
 61.0400390625 736 l 1,19,-1
 61.0400390625 855 l 1,20,-1
 224.040039062 855 l 1,21,-1
 222.040039062 1271 l 2,22,23
 222.040039062 1426.91308594 222.040039062 1426.91308594 250.540039062 1478.95605469 c 128,-1,24
 279.040039062 1531 279.040039062 1531 325.540039062 1555 c 128,-1,0
 372.040039062 1579 372.040039062 1579 441.826171875 1579 c 128,-1,1
EndSplineSet
EndChar

StartChar: periodcentered
Encoding: 183 183 330
Width: 553
Flags: W
LayerCount: 2
Fore
SplineSet
141.440429688 682 m 256,0,1
 141.440429688 787.345703125 141.440429688 787.345703125 225.440429688 824.5 c 0,2,3
 251.440429688 836 251.440429688 836 281.440429688 836 c 256,4,5
 340.58984375 836 340.58984375 836 381.014648438 793.447265625 c 128,-1,6
 421.440429688 750.89453125 421.440429688 750.89453125 421.440429688 682 c 256,7,8
 421.440429688 577.607421875 421.440429688 577.607421875 336.940429688 539.5 c 0,9,10
 311.440429688 528 311.440429688 528 281.440429688 528 c 256,11,12
 221.756835938 528 221.756835938 528 181.598632812 571.329101562 c 128,-1,13
 141.440429688 614.658203125 141.440429688 614.658203125 141.440429688 682 c 256,0,1
EndSplineSet
EndChar

StartChar: fi
Encoding: 64257 64257 331
Width: 1218
Flags: W
LayerCount: 2
Fore
SplineSet
437.888671875 1579 m 128,-1,1
 524.017578125 1579 524.017578125 1579 644.360351562 1561 c 1,2,-1
 644.360351562 1412 l 1,3,-1
 420.759765625 1412 l 1,4,-1
 420.759765625 1147 l 1,5,-1
 1048.36035156 1147 l 1,6,-1
 1048.36035156 0 l 1,7,-1
 852.360351562 0 l 1,8,-1
 852.360351562 1028 l 1,9,-1
 420.759765625 1028 l 1,10,-1
 420.759765625 0 l 1,11,-1
 225.759765625 0 l 1,12,-1
 225.759765625 1028 l 1,13,-1
 97.759765625 1028 l 1,14,-1
 97.759765625 1147 l 1,15,-1
 225.759765625 1147 l 1,16,17
 225.759765625 1253 225.759765625 1253 223.759765625 1333.5 c 0,18,19
 223.549804688 1341.97363281 223.549804688 1341.97363281 223.549804688 1350.15917969 c 0,20,21
 223.549804688 1419.73730469 223.549804688 1419.73730469 238.759765625 1468.5 c 0,22,23
 255.759765625 1523 255.759765625 1523 303.759765625 1551 c 128,-1,0
 351.759765625 1579 351.759765625 1579 437.888671875 1579 c 128,-1,1
1048.36035156 1384 m 1,24,-1
 852.360351562 1384 l 1,25,-1
 852.360351562 1571 l 1,26,-1
 1048.36035156 1571 l 1,27,-1
 1048.36035156 1384 l 1,24,-1
EndSplineSet
EndChar

StartChar: fl
Encoding: 64258 64258 332
Width: 1207
Flags: W
LayerCount: 2
Fore
SplineSet
689.9296875 1576 m 128,-1,1
 864.459960938 1576 864.459960938 1576 1036.95996094 1561 c 1,2,-1
 1035.95996094 0 l 1,3,-1
 841.959960938 0 l 1,4,-1
 841.959960938 1412 l 1,5,-1
 419.719726562 1412 l 1,6,-1
 419.719726562 1147 l 1,7,-1
 621.48046875 1147 l 1,8,-1
 621.48046875 1028 l 1,9,-1
 419.719726562 1028 l 1,10,-1
 419.719726562 0 l 1,11,-1
 224.719726562 0 l 1,12,-1
 224.719726562 1028 l 1,13,-1
 96.7197265625 1028 l 1,14,-1
 96.7197265625 1147 l 1,15,-1
 224.719726562 1147 l 1,16,-1
 223.719726562 1220.5 l 1,17,-1
 222.719726562 1316 l 1,18,19
 222.719726562 1431.86914062 222.719726562 1431.86914062 237.219726562 1468.43457031 c 128,-1,20
 251.719726562 1505 251.719726562 1505 275.719726562 1524 c 128,-1,21
 299.719726562 1543 299.719726562 1543 342.219726562 1554.5 c 128,-1,22
 384.719726562 1566 384.719726562 1566 450.059570312 1571 c 128,-1,0
 515.400390625 1576 515.400390625 1576 689.9296875 1576 c 128,-1,1
EndSplineSet
EndChar
